G04 #@! TF.GenerationSoftware,KiCad,Pcbnew,(5.1.9)-1*
G04 #@! TF.CreationDate,2021-04-12T22:56:46-07:00*
G04 #@! TF.ProjectId,2 layer FINAL test board,32206c61-7965-4722-9046-494e414c2074,rev?*
G04 #@! TF.SameCoordinates,Original*
G04 #@! TF.FileFunction,Copper,L2,Bot*
G04 #@! TF.FilePolarity,Positive*
%FSLAX46Y46*%
G04 Gerber Fmt 4.6, Leading zero omitted, Abs format (unit mm)*
G04 Created by KiCad (PCBNEW (5.1.9)-1) date 2021-04-12 22:56:46*
%MOMM*%
%LPD*%
G01*
G04 APERTURE LIST*
G04 #@! TA.AperFunction,ViaPad*
%ADD10C,0.800000*%
G04 #@! TD*
G04 #@! TA.AperFunction,ViaPad*
%ADD11C,1.600000*%
G04 #@! TD*
G04 #@! TA.AperFunction,Conductor*
%ADD12C,0.400000*%
G04 #@! TD*
G04 APERTURE END LIST*
D10*
X93000000Y-150900000D03*
X95000000Y-146800000D03*
X97000000Y-151000000D03*
X99000000Y-147000000D03*
X101000000Y-151000000D03*
X105000000Y-151000000D03*
X109000000Y-151000000D03*
X113000000Y-151000000D03*
X117000000Y-151000000D03*
X121000000Y-151000000D03*
X125000000Y-151000000D03*
X129000000Y-151000000D03*
X133000000Y-151000000D03*
X137000000Y-151000000D03*
X141000000Y-151000000D03*
X145000000Y-151000000D03*
X149000000Y-151000000D03*
X153000000Y-151000000D03*
X157000000Y-151000000D03*
X161000000Y-151000000D03*
X165000000Y-151000000D03*
X169000000Y-151000000D03*
X173000000Y-151000000D03*
X177000000Y-151000000D03*
X103000000Y-147000000D03*
X107000000Y-147000000D03*
X111000000Y-147000000D03*
X115000000Y-147000000D03*
X119000000Y-147000000D03*
X123000000Y-147000000D03*
X127000000Y-147000000D03*
X131000000Y-147000000D03*
X135000000Y-147000000D03*
X139000000Y-147000000D03*
X143000000Y-147000000D03*
X147000000Y-147000000D03*
X151000000Y-147000000D03*
X155000000Y-147000000D03*
X159000000Y-147000000D03*
X163000000Y-147000000D03*
X167000000Y-147000000D03*
X171000000Y-147000000D03*
X175000000Y-147000000D03*
X94000000Y-56200000D03*
X96000000Y-60300000D03*
X98000000Y-56000000D03*
X100000000Y-60000000D03*
X104000000Y-60000000D03*
X108000000Y-60000000D03*
X112000000Y-60000000D03*
X116000000Y-60000000D03*
X120000000Y-60000000D03*
X124000000Y-60000000D03*
X128000000Y-60000000D03*
X132000000Y-60000000D03*
X136000000Y-60000000D03*
X140000000Y-60000000D03*
X144000000Y-60000000D03*
X148000000Y-60000000D03*
X152000000Y-60000000D03*
X156000000Y-60000000D03*
X160000000Y-60000000D03*
X164000000Y-60000000D03*
X168000000Y-60000000D03*
X172000000Y-60000000D03*
X176000000Y-60000000D03*
X102000000Y-56000000D03*
X106000000Y-56000000D03*
X110000000Y-56000000D03*
X114000000Y-56000000D03*
X118000000Y-56000000D03*
X122000000Y-56000000D03*
X126000000Y-56000000D03*
X130000000Y-56000000D03*
X134000000Y-56000000D03*
X138000000Y-56000000D03*
X142000000Y-56000000D03*
X146000000Y-56000000D03*
X150000000Y-56000000D03*
X154000000Y-56000000D03*
X158000000Y-56000000D03*
X162000000Y-56000000D03*
X166000000Y-56000000D03*
X170000000Y-56000000D03*
X174000000Y-56000000D03*
X178000000Y-56000000D03*
D11*
X186000000Y-105000000D03*
X184000000Y-100000000D03*
X180000000Y-95000000D03*
X182000000Y-110000000D03*
D12*
X95000000Y-62000000D02*
X95009630Y-61803965D01*
X95009630Y-61803965D02*
X95038429Y-61609819D01*
X95038429Y-61609819D02*
X95086119Y-61419430D01*
X95086119Y-61419430D02*
X95152240Y-61234633D01*
X95152240Y-61234633D02*
X95236157Y-61057206D01*
X95236157Y-61057206D02*
X95337060Y-60888859D01*
X95337060Y-60888859D02*
X95453979Y-60731213D01*
X95453979Y-60731213D02*
X95585786Y-60585786D01*
X95585786Y-60585786D02*
X95731213Y-60453979D01*
X95731213Y-60453979D02*
X95888859Y-60337060D01*
X95888859Y-60337060D02*
X96057206Y-60236157D01*
X96057206Y-60236157D02*
X96234633Y-60152240D01*
X96234633Y-60152240D02*
X96419430Y-60086119D01*
X96419430Y-60086119D02*
X96609819Y-60038429D01*
X96609819Y-60038429D02*
X96803965Y-60009630D01*
X96803965Y-60009630D02*
X97000000Y-60000000D01*
X93000000Y-61000000D02*
X93014445Y-60705948D01*
X93014445Y-60705948D02*
X93057644Y-60414729D01*
X93057644Y-60414729D02*
X93129178Y-60129145D01*
X93129178Y-60129145D02*
X93228361Y-59851949D01*
X93228361Y-59851949D02*
X93354236Y-59585809D01*
X93354236Y-59585809D02*
X93505591Y-59333289D01*
X93505591Y-59333289D02*
X93680968Y-59096820D01*
X93680968Y-59096820D02*
X93878679Y-58878679D01*
X93878679Y-58878679D02*
X94096820Y-58680968D01*
X94096820Y-58680968D02*
X94333289Y-58505591D01*
X94333289Y-58505591D02*
X94585809Y-58354236D01*
X94585809Y-58354236D02*
X94851949Y-58228361D01*
X94851949Y-58228361D02*
X95129145Y-58129178D01*
X95129145Y-58129178D02*
X95414729Y-58057644D01*
X95414729Y-58057644D02*
X95705948Y-58014445D01*
X95705948Y-58014445D02*
X96000000Y-58000000D01*
X91000000Y-60000000D02*
X91019261Y-59607931D01*
X91019261Y-59607931D02*
X91076858Y-59219638D01*
X91076858Y-59219638D02*
X91172238Y-58838861D01*
X91172238Y-58838861D02*
X91304481Y-58469266D01*
X91304481Y-58469266D02*
X91472314Y-58114413D01*
X91472314Y-58114413D02*
X91674121Y-57777719D01*
X91674121Y-57777719D02*
X91907958Y-57462426D01*
X91907958Y-57462426D02*
X92171572Y-57171572D01*
X92171572Y-57171572D02*
X92462426Y-56907958D01*
X92462426Y-56907958D02*
X92777719Y-56674121D01*
X92777719Y-56674121D02*
X93114413Y-56472314D01*
X93114413Y-56472314D02*
X93469266Y-56304481D01*
X93469266Y-56304481D02*
X93838861Y-56172238D01*
X93838861Y-56172238D02*
X94219638Y-56076858D01*
X94219638Y-56076858D02*
X94607931Y-56019261D01*
X94607931Y-56019261D02*
X95000000Y-56000000D01*
X89000000Y-59000000D02*
X89024076Y-58509914D01*
X89024076Y-58509914D02*
X89096073Y-58024548D01*
X89096073Y-58024548D02*
X89215298Y-57548576D01*
X89215298Y-57548576D02*
X89380602Y-57086582D01*
X89380602Y-57086582D02*
X89590393Y-56643016D01*
X89590393Y-56643016D02*
X89842651Y-56222148D01*
X89842651Y-56222148D02*
X90134947Y-55828033D01*
X90134947Y-55828033D02*
X90464466Y-55464466D01*
X90464466Y-55464466D02*
X90828033Y-55134947D01*
X90828033Y-55134947D02*
X91222148Y-54842651D01*
X91222148Y-54842651D02*
X91643016Y-54590393D01*
X91643016Y-54590393D02*
X92086582Y-54380602D01*
X92086582Y-54380602D02*
X92548576Y-54215298D01*
X92548576Y-54215298D02*
X93024548Y-54096073D01*
X93024548Y-54096073D02*
X93509914Y-54024076D01*
X93509914Y-54024076D02*
X94000000Y-54000000D01*
X97000000Y-145000000D02*
X96803965Y-144990369D01*
X96803965Y-144990369D02*
X96609819Y-144961570D01*
X96609819Y-144961570D02*
X96419430Y-144913880D01*
X96419430Y-144913880D02*
X96234633Y-144847759D01*
X96234633Y-144847759D02*
X96057206Y-144763842D01*
X96057206Y-144763842D02*
X95888859Y-144662939D01*
X95888859Y-144662939D02*
X95731213Y-144546020D01*
X95731213Y-144546020D02*
X95585786Y-144414213D01*
X95585786Y-144414213D02*
X95453979Y-144268786D01*
X95453979Y-144268786D02*
X95337060Y-144111140D01*
X95337060Y-144111140D02*
X95236157Y-143942793D01*
X95236157Y-143942793D02*
X95152240Y-143765366D01*
X95152240Y-143765366D02*
X95086119Y-143580569D01*
X95086119Y-143580569D02*
X95038429Y-143390180D01*
X95038429Y-143390180D02*
X95009630Y-143196034D01*
X95009630Y-143196034D02*
X95000000Y-143000000D01*
X95000000Y-143000000D02*
X95000000Y-62000000D01*
X96000000Y-147000000D02*
X95705948Y-146985554D01*
X95705948Y-146985554D02*
X95414729Y-146942355D01*
X95414729Y-146942355D02*
X95129145Y-146870821D01*
X95129145Y-146870821D02*
X94851949Y-146771638D01*
X94851949Y-146771638D02*
X94585809Y-146645763D01*
X94585809Y-146645763D02*
X94333289Y-146494408D01*
X94333289Y-146494408D02*
X94096820Y-146319031D01*
X94096820Y-146319031D02*
X93878679Y-146121320D01*
X93878679Y-146121320D02*
X93680968Y-145903179D01*
X93680968Y-145903179D02*
X93505591Y-145666710D01*
X93505591Y-145666710D02*
X93354236Y-145414190D01*
X93354236Y-145414190D02*
X93228361Y-145148050D01*
X93228361Y-145148050D02*
X93129178Y-144870854D01*
X93129178Y-144870854D02*
X93057644Y-144585270D01*
X93057644Y-144585270D02*
X93014445Y-144294051D01*
X93014445Y-144294051D02*
X93000000Y-144000000D01*
X93000000Y-144000000D02*
X93000000Y-61000000D01*
X95000000Y-149000000D02*
X94607931Y-148980738D01*
X94607931Y-148980738D02*
X94219638Y-148923141D01*
X94219638Y-148923141D02*
X93838861Y-148827761D01*
X93838861Y-148827761D02*
X93469266Y-148695518D01*
X93469266Y-148695518D02*
X93114413Y-148527685D01*
X93114413Y-148527685D02*
X92777719Y-148325878D01*
X92777719Y-148325878D02*
X92462426Y-148092041D01*
X92462426Y-148092041D02*
X92171572Y-147828427D01*
X92171572Y-147828427D02*
X91907958Y-147537573D01*
X91907958Y-147537573D02*
X91674121Y-147222280D01*
X91674121Y-147222280D02*
X91472314Y-146885586D01*
X91472314Y-146885586D02*
X91304481Y-146530733D01*
X91304481Y-146530733D02*
X91172238Y-146161138D01*
X91172238Y-146161138D02*
X91076858Y-145780361D01*
X91076858Y-145780361D02*
X91019261Y-145392068D01*
X91019261Y-145392068D02*
X91000000Y-145000000D01*
X91000000Y-145000000D02*
X91000000Y-60000000D01*
X94000000Y-151000000D02*
X93509914Y-150975923D01*
X93509914Y-150975923D02*
X93024548Y-150903926D01*
X93024548Y-150903926D02*
X92548576Y-150784701D01*
X92548576Y-150784701D02*
X92086582Y-150619397D01*
X92086582Y-150619397D02*
X91643016Y-150409606D01*
X91643016Y-150409606D02*
X91222148Y-150157348D01*
X91222148Y-150157348D02*
X90828033Y-149865052D01*
X90828033Y-149865052D02*
X90464466Y-149535533D01*
X90464466Y-149535533D02*
X90134947Y-149171966D01*
X90134947Y-149171966D02*
X89842651Y-148777851D01*
X89842651Y-148777851D02*
X89590393Y-148356983D01*
X89590393Y-148356983D02*
X89380602Y-147913417D01*
X89380602Y-147913417D02*
X89215298Y-147451423D01*
X89215298Y-147451423D02*
X89096073Y-146975451D01*
X89096073Y-146975451D02*
X89024076Y-146490085D01*
X89024076Y-146490085D02*
X89000000Y-146000000D01*
X89000000Y-146000000D02*
X89000000Y-59000000D01*
X186000000Y-146000000D02*
X185975923Y-146490085D01*
X185975923Y-146490085D02*
X185903926Y-146975451D01*
X185903926Y-146975451D02*
X185784701Y-147451423D01*
X185784701Y-147451423D02*
X185619397Y-147913417D01*
X185619397Y-147913417D02*
X185409606Y-148356983D01*
X185409606Y-148356983D02*
X185157348Y-148777851D01*
X185157348Y-148777851D02*
X184865052Y-149171966D01*
X184865052Y-149171966D02*
X184535533Y-149535533D01*
X184535533Y-149535533D02*
X184171966Y-149865052D01*
X184171966Y-149865052D02*
X183777851Y-150157348D01*
X183777851Y-150157348D02*
X183356983Y-150409606D01*
X183356983Y-150409606D02*
X182913417Y-150619397D01*
X182913417Y-150619397D02*
X182451423Y-150784701D01*
X182451423Y-150784701D02*
X181975451Y-150903926D01*
X181975451Y-150903926D02*
X181490085Y-150975923D01*
X181490085Y-150975923D02*
X181000000Y-151000000D01*
X181000000Y-151000000D02*
X94000000Y-151000000D01*
X184000000Y-145000000D02*
X183980738Y-145392068D01*
X183980738Y-145392068D02*
X183923141Y-145780361D01*
X183923141Y-145780361D02*
X183827761Y-146161138D01*
X183827761Y-146161138D02*
X183695518Y-146530733D01*
X183695518Y-146530733D02*
X183527685Y-146885586D01*
X183527685Y-146885586D02*
X183325878Y-147222280D01*
X183325878Y-147222280D02*
X183092041Y-147537573D01*
X183092041Y-147537573D02*
X182828427Y-147828427D01*
X182828427Y-147828427D02*
X182537573Y-148092041D01*
X182537573Y-148092041D02*
X182222280Y-148325878D01*
X182222280Y-148325878D02*
X181885586Y-148527685D01*
X181885586Y-148527685D02*
X181530733Y-148695518D01*
X181530733Y-148695518D02*
X181161138Y-148827761D01*
X181161138Y-148827761D02*
X180780361Y-148923141D01*
X180780361Y-148923141D02*
X180392068Y-148980738D01*
X180392068Y-148980738D02*
X180000000Y-149000000D01*
X180000000Y-149000000D02*
X95000000Y-149000000D01*
X179000000Y-147000000D02*
X96000000Y-147000000D01*
X179000000Y-147000000D02*
X179294051Y-146985554D01*
X179294051Y-146985554D02*
X179585270Y-146942355D01*
X179585270Y-146942355D02*
X179870854Y-146870821D01*
X179870854Y-146870821D02*
X180148050Y-146771638D01*
X180148050Y-146771638D02*
X180414190Y-146645763D01*
X180414190Y-146645763D02*
X180666710Y-146494408D01*
X180666710Y-146494408D02*
X180903179Y-146319031D01*
X180903179Y-146319031D02*
X181121320Y-146121320D01*
X181121320Y-146121320D02*
X181319031Y-145903179D01*
X181319031Y-145903179D02*
X181494408Y-145666710D01*
X181494408Y-145666710D02*
X181645763Y-145414190D01*
X181645763Y-145414190D02*
X181771638Y-145148050D01*
X181771638Y-145148050D02*
X181870821Y-144870854D01*
X181870821Y-144870854D02*
X181942355Y-144585270D01*
X181942355Y-144585270D02*
X181985554Y-144294051D01*
X181985554Y-144294051D02*
X182000000Y-144000000D01*
X180000000Y-143000000D02*
X179990369Y-143196034D01*
X179990369Y-143196034D02*
X179961570Y-143390180D01*
X179961570Y-143390180D02*
X179913880Y-143580569D01*
X179913880Y-143580569D02*
X179847759Y-143765366D01*
X179847759Y-143765366D02*
X179763842Y-143942793D01*
X179763842Y-143942793D02*
X179662939Y-144111140D01*
X179662939Y-144111140D02*
X179546020Y-144268786D01*
X179546020Y-144268786D02*
X179414213Y-144414213D01*
X179414213Y-144414213D02*
X179268786Y-144546020D01*
X179268786Y-144546020D02*
X179111140Y-144662939D01*
X179111140Y-144662939D02*
X178942793Y-144763842D01*
X178942793Y-144763842D02*
X178765366Y-144847759D01*
X178765366Y-144847759D02*
X178580569Y-144913880D01*
X178580569Y-144913880D02*
X178390180Y-144961570D01*
X178390180Y-144961570D02*
X178196034Y-144990369D01*
X178196034Y-144990369D02*
X178000000Y-145000000D01*
X178000000Y-145000000D02*
X97000000Y-145000000D01*
X178000000Y-60000000D02*
X97000000Y-60000000D01*
X178000000Y-60000000D02*
X178196034Y-60009630D01*
X178196034Y-60009630D02*
X178390180Y-60038429D01*
X178390180Y-60038429D02*
X178580569Y-60086119D01*
X178580569Y-60086119D02*
X178765366Y-60152240D01*
X178765366Y-60152240D02*
X178942793Y-60236157D01*
X178942793Y-60236157D02*
X179111140Y-60337060D01*
X179111140Y-60337060D02*
X179268786Y-60453979D01*
X179268786Y-60453979D02*
X179414213Y-60585786D01*
X179414213Y-60585786D02*
X179546020Y-60731213D01*
X179546020Y-60731213D02*
X179662939Y-60888859D01*
X179662939Y-60888859D02*
X179763842Y-61057206D01*
X179763842Y-61057206D02*
X179847759Y-61234633D01*
X179847759Y-61234633D02*
X179913880Y-61419430D01*
X179913880Y-61419430D02*
X179961570Y-61609819D01*
X179961570Y-61609819D02*
X179990369Y-61803965D01*
X179990369Y-61803965D02*
X180000000Y-62000000D01*
X180000000Y-62000000D02*
X180000000Y-95000000D01*
X179000000Y-58000000D02*
X96000000Y-58000000D01*
X179000000Y-58000000D02*
X179294051Y-58014445D01*
X179294051Y-58014445D02*
X179585270Y-58057644D01*
X179585270Y-58057644D02*
X179870854Y-58129178D01*
X179870854Y-58129178D02*
X180148050Y-58228361D01*
X180148050Y-58228361D02*
X180414190Y-58354236D01*
X180414190Y-58354236D02*
X180666710Y-58505591D01*
X180666710Y-58505591D02*
X180903179Y-58680968D01*
X180903179Y-58680968D02*
X181121320Y-58878679D01*
X181121320Y-58878679D02*
X181319031Y-59096820D01*
X181319031Y-59096820D02*
X181494408Y-59333289D01*
X181494408Y-59333289D02*
X181645763Y-59585809D01*
X181645763Y-59585809D02*
X181771638Y-59851949D01*
X181771638Y-59851949D02*
X181870821Y-60129145D01*
X181870821Y-60129145D02*
X181942355Y-60414729D01*
X181942355Y-60414729D02*
X181985554Y-60705948D01*
X181985554Y-60705948D02*
X182000000Y-61000000D01*
X182000000Y-61000000D02*
X182000000Y-110000000D01*
X180000000Y-56000000D02*
X95000000Y-56000000D01*
X180000000Y-56000000D02*
X180392068Y-56019261D01*
X180392068Y-56019261D02*
X180780361Y-56076858D01*
X180780361Y-56076858D02*
X181161138Y-56172238D01*
X181161138Y-56172238D02*
X181530733Y-56304481D01*
X181530733Y-56304481D02*
X181885586Y-56472314D01*
X181885586Y-56472314D02*
X182222280Y-56674121D01*
X182222280Y-56674121D02*
X182537573Y-56907958D01*
X182537573Y-56907958D02*
X182828427Y-57171572D01*
X182828427Y-57171572D02*
X183092041Y-57462426D01*
X183092041Y-57462426D02*
X183325878Y-57777719D01*
X183325878Y-57777719D02*
X183527685Y-58114413D01*
X183527685Y-58114413D02*
X183695518Y-58469266D01*
X183695518Y-58469266D02*
X183827761Y-58838861D01*
X183827761Y-58838861D02*
X183923141Y-59219638D01*
X183923141Y-59219638D02*
X183980738Y-59607931D01*
X183980738Y-59607931D02*
X184000000Y-60000000D01*
X184000000Y-60000000D02*
X184000000Y-100000000D01*
X181000000Y-54000000D02*
X94000000Y-54000000D01*
X181000000Y-54000000D02*
X181490085Y-54024076D01*
X181490085Y-54024076D02*
X181975451Y-54096073D01*
X181975451Y-54096073D02*
X182451423Y-54215298D01*
X182451423Y-54215298D02*
X182913417Y-54380602D01*
X182913417Y-54380602D02*
X183356983Y-54590393D01*
X183356983Y-54590393D02*
X183777851Y-54842651D01*
X183777851Y-54842651D02*
X184171966Y-55134947D01*
X184171966Y-55134947D02*
X184535533Y-55464466D01*
X184535533Y-55464466D02*
X184865052Y-55828033D01*
X184865052Y-55828033D02*
X185157348Y-56222148D01*
X185157348Y-56222148D02*
X185409606Y-56643016D01*
X185409606Y-56643016D02*
X185619397Y-57086582D01*
X185619397Y-57086582D02*
X185784701Y-57548576D01*
X185784701Y-57548576D02*
X185903926Y-58024548D01*
X185903926Y-58024548D02*
X185975923Y-58509914D01*
X185975923Y-58509914D02*
X186000000Y-59000000D01*
X186000000Y-59000000D02*
X186000000Y-105000000D01*
X186000000Y-105000000D02*
X186000000Y-146000000D01*
X184000000Y-100000000D02*
X184000000Y-145000000D01*
X180000000Y-95000000D02*
X180000000Y-143000000D01*
X182000000Y-110000000D02*
X182000000Y-144000000D01*
M02*
