M48
METRIC,TZ
T1C0.400
T2C0.800
%
G90
G05
T1
X93000Y-150900
X94000Y-56200
X95000Y-146800
X96000Y-60300
X97000Y-151000
X98000Y-56000
X99000Y-147000
X100000Y-60000
X101000Y-151000
X102000Y-56000
X103000Y-147000
X104000Y-60000
X105000Y-151000
X106000Y-56000
X107000Y-147000
X108000Y-60000
X109000Y-151000
X110000Y-56000
X111000Y-147000
X112000Y-60000
X113000Y-151000
X114000Y-56000
X115000Y-147000
X116000Y-60000
X117000Y-151000
X118000Y-56000
X119000Y-147000
X120000Y-60000
X121000Y-151000
X122000Y-56000
X123000Y-147000
X124000Y-60000
X125000Y-151000
X126000Y-56000
X127000Y-147000
X128000Y-60000
X129000Y-151000
X130000Y-56000
X131000Y-147000
X132000Y-60000
X133000Y-151000
X134000Y-56000
X135000Y-147000
X136000Y-60000
X137000Y-151000
X138000Y-56000
X139000Y-147000
X140000Y-60000
X141000Y-151000
X142000Y-56000
X143000Y-147000
X144000Y-60000
X145000Y-151000
X146000Y-56000
X147000Y-147000
X148000Y-60000
X149000Y-151000
X150000Y-56000
X151000Y-147000
X152000Y-60000
X153000Y-151000
X154000Y-56000
X155000Y-147000
X156000Y-60000
X157000Y-151000
X158000Y-56000
X159000Y-147000
X160000Y-60000
X161000Y-151000
X162000Y-56000
X163000Y-147000
X164000Y-60000
X165000Y-151000
X166000Y-56000
X167000Y-147000
X168000Y-60000
X169000Y-151000
X170000Y-56000
X171000Y-147000
X172000Y-60000
X173000Y-151000
X174000Y-56000
X175000Y-147000
X176000Y-60000
X177000Y-151000
X178000Y-56000
T2
X180000Y-95000
X182000Y-110000
X184000Y-100000
X186000Y-105000
T0
M30
