G04*
G04 #@! TF.GenerationSoftware,Altium Limited,Altium Designer,21.3.1 (25)*
G04*
G04 Layer_Physical_Order=4*
G04 Layer_Color=39423*
%FSLAX25Y25*%
%MOIN*%
G70*
G04*
G04 #@! TF.SameCoordinates,D0EAD6BF-6444-4E14-9138-9319D8FA21D0*
G04*
G04*
G04 #@! TF.FilePolarity,Positive*
G04*
G01*
G75*
%ADD11C,0.01575*%
%ADD12C,0.03150*%
%ADD13C,0.01000*%
%ADD14C,0.01575*%
%ADD15O,0.39370X0.15748*%
D11*
X1959Y494901D02*
D03*
X548032Y15354D02*
D03*
D12*
X41258Y526392D02*
D03*
X25551Y518858D02*
D03*
X49131Y494854D02*
D03*
X33392Y494945D02*
D03*
X17681Y494878D02*
D03*
X544252Y543386D02*
D03*
X56975Y526392D02*
D03*
X72691D02*
D03*
X88408D02*
D03*
X104124D02*
D03*
X119841D02*
D03*
X135557D02*
D03*
X151274D02*
D03*
X166990D02*
D03*
X182707D02*
D03*
X198423D02*
D03*
X214140D02*
D03*
X229856D02*
D03*
X245573D02*
D03*
X261290D02*
D03*
X277006D02*
D03*
X292723D02*
D03*
X308439D02*
D03*
X324156D02*
D03*
X339872D02*
D03*
X355589D02*
D03*
X371305D02*
D03*
X387022D02*
D03*
X402738D02*
D03*
X418455D02*
D03*
X434171D02*
D03*
X449888D02*
D03*
X465604D02*
D03*
X481321D02*
D03*
X497038D02*
D03*
X9843Y543307D02*
D03*
X80557Y494988D02*
D03*
X96273D02*
D03*
X111990D02*
D03*
X127707D02*
D03*
X143423D02*
D03*
X159140D02*
D03*
X174856D02*
D03*
X190573D02*
D03*
X206289D02*
D03*
X222006D02*
D03*
X237722D02*
D03*
X253439D02*
D03*
X269155D02*
D03*
X284872D02*
D03*
X300588D02*
D03*
X316305D02*
D03*
X332021D02*
D03*
X347738D02*
D03*
X363455D02*
D03*
X379171D02*
D03*
X394888D02*
D03*
X410604D02*
D03*
X426321D02*
D03*
X442037D02*
D03*
X457754D02*
D03*
X473470D02*
D03*
X504903D02*
D03*
X520620D02*
D03*
X536299Y494803D02*
D03*
X489187Y494988D02*
D03*
X512756Y526378D02*
D03*
X528473D02*
D03*
X5906Y7874D02*
D03*
X13780Y13386D02*
D03*
X21654Y21260D02*
D03*
X29528Y7874D02*
D03*
X37402Y33465D02*
D03*
X45276Y7874D02*
D03*
X60992D02*
D03*
X76709D02*
D03*
X92425D02*
D03*
X108142D02*
D03*
X123858D02*
D03*
X139575D02*
D03*
X155291D02*
D03*
X171008D02*
D03*
X186724D02*
D03*
X202441D02*
D03*
X218158D02*
D03*
X233874D02*
D03*
X249590D02*
D03*
X265307D02*
D03*
X281024D02*
D03*
X296740D02*
D03*
X312457D02*
D03*
X328173D02*
D03*
X343890D02*
D03*
X359606D02*
D03*
X375323D02*
D03*
X391039D02*
D03*
X406756D02*
D03*
X422472D02*
D03*
X438189D02*
D03*
X453905D02*
D03*
X469622D02*
D03*
X485339D02*
D03*
X501055D02*
D03*
X516772D02*
D03*
X524409Y18504D02*
D03*
X532283Y10630D02*
D03*
X540158Y5512D02*
D03*
X68898Y39370D02*
D03*
X84646D02*
D03*
X100362D02*
D03*
X116079D02*
D03*
X131795D02*
D03*
X147512D02*
D03*
X163228D02*
D03*
X178945D02*
D03*
X194661D02*
D03*
X210378D02*
D03*
X226095D02*
D03*
X241811D02*
D03*
X257528D02*
D03*
X273244D02*
D03*
X288961D02*
D03*
X304677D02*
D03*
X320394D02*
D03*
X336110D02*
D03*
X351827D02*
D03*
X367543D02*
D03*
X383260D02*
D03*
X398976D02*
D03*
X414693D02*
D03*
X430409D02*
D03*
X446126D02*
D03*
X461842D02*
D03*
X477559D02*
D03*
X493276D02*
D03*
X508661Y44488D02*
D03*
X53150Y39370D02*
D03*
X64840Y494988D02*
D03*
D13*
X0Y0D02*
X550000D01*
X550000Y550000D02*
X550000Y0D01*
X0Y550000D02*
X550000D01*
X0Y0D02*
Y550000D01*
D14*
X14212Y21260D02*
G03*
X9441Y19284I0J-6747D01*
G01*
D02*
G03*
X5906Y10748I8535J-8535D01*
G01*
X539207Y5118D02*
G03*
X540158Y5512I0J1344D01*
G01*
X527165Y6693D02*
G03*
X530967Y5118I3802J3802D01*
G01*
X524409Y13346D02*
G03*
X527165Y6693I9409J0D01*
G01*
X61091Y439764D02*
G03*
X62992Y440551I0J2688D01*
G01*
D02*
G03*
X63386Y441502I-950J950D01*
G01*
X64840Y494988D02*
G03*
X63386Y491476I3511J-3511D01*
G01*
X62992Y329921D02*
G03*
X63386Y330872I-950J950D01*
G01*
X61091Y329134D02*
G03*
X62992Y329921I0J2688D01*
G01*
X66086Y386165D02*
G03*
X63386Y379646I6519J-6519D01*
G01*
X84872Y404951D02*
G03*
X88408Y413486I-8535J8535D01*
G01*
X62598Y218341D02*
G03*
X62205Y219291I-1344J0D01*
G01*
D02*
G03*
X60304Y220079I-1901J-1901D01*
G01*
X62598Y169567D02*
G03*
X64742Y164392I7319J0D01*
G01*
X84646Y139488D02*
G03*
X81110Y148024I-12071J0D01*
G01*
X64567Y106299D02*
G03*
X61024Y109843I-3543J0D01*
G01*
X62205Y64961D02*
G03*
X64567Y70663I-5703J5703D01*
G01*
X62205Y64961D02*
G03*
X60992Y62033I2927J-2927D01*
G01*
X9843Y543307D02*
X25551Y518858D01*
X528473Y526378D02*
X544252Y543386D01*
X14212Y21260D02*
X21654D01*
X5906Y7874D02*
Y10748D01*
X530967Y5118D02*
X539207D01*
X524409Y13346D02*
Y18504D01*
X532283Y10630D02*
X548032Y15354D01*
X508661Y44488D02*
X524409Y18504D01*
X21654Y21260D02*
X37402Y33465D01*
X53150Y39370D01*
X512756Y526378D02*
X528473D01*
X489187Y494795D02*
X536299Y494795D01*
X1959Y494901D02*
X64753D01*
X58661Y439764D02*
X60630D01*
X61091D01*
X63386Y441502D02*
Y486614D01*
Y491476D01*
Y330872D02*
Y379528D01*
X60630Y329134D02*
X61091D01*
X58661D02*
X60630D01*
X63386Y379528D02*
Y379646D01*
X66086Y386165D02*
X84872Y404951D01*
X88408Y413486D02*
Y526392D01*
X62598Y169685D02*
Y218341D01*
X59842Y220079D02*
X60304D01*
X62598Y169567D02*
Y169685D01*
X57874Y220079D02*
X59842D01*
X64742Y164392D02*
X81110Y148024D01*
X84646Y39370D02*
Y139488D01*
X58268Y109843D02*
X61024D01*
X64567Y70663D02*
Y106299D01*
X60992Y7874D02*
Y62033D01*
D15*
X39370Y440000D02*
D03*
Y330000D02*
D03*
Y220000D02*
D03*
Y110000D02*
D03*
M02*
