M48
;Layer_Color=9474304
;FILE_FORMAT=2:5
INCH,TZ
;TYPE=PLATED
T1F00S00C0.00787
T2F00S00C0.01575
%
T01
X548032Y15354
X1959Y494901
T02
X5906Y7874
X13780Y13386
X21654Y21260
X29528Y7874
X45276
X60992
X76709
X92425
X108142
X123858
X139575
X155291
X171008
X186724
X202441
X218158
X233874
X249590
X265307
X281024
X296740
X312457
X328173
X343890
X359606
X375323
X391039
X406756
X422472
X438189
X453905
X469622
X485339
X501055
X516772
X532283Y10630
X540158Y5512
X524409Y18504
X508661Y44488
X493276Y39370
X477559
X461842
X446126
X430409
X414693
X398976
X383260
X367543
X351827
X336110
X320394
X304677
X288961
X273244
X257528
X241811
X226095
X210378
X194661
X178945
X163228
X147512
X131795
X116079
X100362
X84646
X68898
X53150
X37402Y33465
X504903Y494988
X520620
X536299Y494803
X489187Y494988
X473470
X457754
X442037
X426321
X410604
X394888
X379171
X363455
X347738
X332021
X316305
X300588
X284872
X269155
X253439
X237722
X222006
X206289
X190573
X174856
X159140
X143423
X127707
X111990
X96273
X80557
X64840
X49131Y494854
X33392Y494945
X17681Y494878
X25551Y518858
X9843Y543307
X41258Y526392
X56975
X72691
X88408
X104124
X119841
X135557
X151274
X166990
X182707
X198423
X214140
X229856
X245573
X261290
X277006
X292723
X308439
X324156
X339872
X355589
X371305
X387022
X402738
X418455
X434171
X449888
X465604
X481321
X497038
X512756Y526378
X528473
X544252Y543386
M30
