G04*
G04 #@! TF.GenerationSoftware,Altium Limited,Altium Designer,21.3.1 (25)*
G04*
G04 Layer_Physical_Order=2*
G04 Layer_Color=16776960*
%FSLAX25Y25*%
%MOIN*%
G70*
G04*
G04 #@! TF.SameCoordinates,D0EAD6BF-6444-4E14-9138-9319D8FA21D0*
G04*
G04*
G04 #@! TF.FilePolarity,Positive*
G04*
G01*
G75*
%ADD11C,0.01575*%
%ADD12C,0.03150*%
%ADD13C,0.01000*%
%ADD14C,0.01575*%
D11*
X1959Y494901D02*
D03*
X548032Y15354D02*
D03*
D12*
X41258Y526392D02*
D03*
X25551Y518858D02*
D03*
X49131Y494854D02*
D03*
X33392Y494945D02*
D03*
X17681Y494878D02*
D03*
X544252Y543386D02*
D03*
X56975Y526392D02*
D03*
X72691D02*
D03*
X88408D02*
D03*
X104124D02*
D03*
X119841D02*
D03*
X135557D02*
D03*
X151274D02*
D03*
X166990D02*
D03*
X182707D02*
D03*
X198423D02*
D03*
X214140D02*
D03*
X229856D02*
D03*
X245573D02*
D03*
X261290D02*
D03*
X277006D02*
D03*
X292723D02*
D03*
X308439D02*
D03*
X324156D02*
D03*
X339872D02*
D03*
X355589D02*
D03*
X371305D02*
D03*
X387022D02*
D03*
X402738D02*
D03*
X418455D02*
D03*
X434171D02*
D03*
X449888D02*
D03*
X465604D02*
D03*
X481321D02*
D03*
X497038D02*
D03*
X9843Y543307D02*
D03*
X80557Y494988D02*
D03*
X96273D02*
D03*
X111990D02*
D03*
X127707D02*
D03*
X143423D02*
D03*
X159140D02*
D03*
X174856D02*
D03*
X190573D02*
D03*
X206289D02*
D03*
X222006D02*
D03*
X237722D02*
D03*
X253439D02*
D03*
X269155D02*
D03*
X284872D02*
D03*
X300588D02*
D03*
X316305D02*
D03*
X332021D02*
D03*
X347738D02*
D03*
X363455D02*
D03*
X379171D02*
D03*
X394888D02*
D03*
X410604D02*
D03*
X426321D02*
D03*
X442037D02*
D03*
X457754D02*
D03*
X473470D02*
D03*
X504903D02*
D03*
X520620D02*
D03*
X536299Y494803D02*
D03*
X489187Y494988D02*
D03*
X512756Y526378D02*
D03*
X528473D02*
D03*
X5906Y7874D02*
D03*
X13780Y13386D02*
D03*
X21654Y21260D02*
D03*
X29528Y7874D02*
D03*
X37402Y33465D02*
D03*
X45276Y7874D02*
D03*
X60992D02*
D03*
X76709D02*
D03*
X92425D02*
D03*
X108142D02*
D03*
X123858D02*
D03*
X139575D02*
D03*
X155291D02*
D03*
X171008D02*
D03*
X186724D02*
D03*
X202441D02*
D03*
X218158D02*
D03*
X233874D02*
D03*
X249590D02*
D03*
X265307D02*
D03*
X281024D02*
D03*
X296740D02*
D03*
X312457D02*
D03*
X328173D02*
D03*
X343890D02*
D03*
X359606D02*
D03*
X375323D02*
D03*
X391039D02*
D03*
X406756D02*
D03*
X422472D02*
D03*
X438189D02*
D03*
X453905D02*
D03*
X469622D02*
D03*
X485339D02*
D03*
X501055D02*
D03*
X516772D02*
D03*
X524409Y18504D02*
D03*
X532283Y10630D02*
D03*
X540158Y5512D02*
D03*
X68898Y39370D02*
D03*
X84646D02*
D03*
X100362D02*
D03*
X116079D02*
D03*
X131795D02*
D03*
X147512D02*
D03*
X163228D02*
D03*
X178945D02*
D03*
X194661D02*
D03*
X210378D02*
D03*
X226095D02*
D03*
X241811D02*
D03*
X257528D02*
D03*
X273244D02*
D03*
X288961D02*
D03*
X304677D02*
D03*
X320394D02*
D03*
X336110D02*
D03*
X351827D02*
D03*
X367543D02*
D03*
X383260D02*
D03*
X398976D02*
D03*
X414693D02*
D03*
X430409D02*
D03*
X446126D02*
D03*
X461842D02*
D03*
X477559D02*
D03*
X493276D02*
D03*
X508661Y44488D02*
D03*
X53150Y39370D02*
D03*
X64840Y494988D02*
D03*
D13*
X0Y0D02*
X550000D01*
X550000Y550000D02*
X550000Y0D01*
X0Y550000D02*
X550000D01*
X0Y0D02*
Y550000D01*
D14*
X526378Y510715D02*
G03*
X510822Y526378I-15609J53D01*
G01*
X494882Y487008D02*
G03*
X487008Y494882I-7874J0D01*
G01*
X487008Y55118D02*
G03*
X494882Y62992I0J7874D01*
G01*
X510715Y23622D02*
G03*
X526378Y39177I53J15609D01*
G01*
X55118Y62992D02*
G03*
X62992Y55118I7874J0D01*
G01*
X23622Y39285D02*
G03*
X39178Y23622I15609J-53D01*
G01*
X62992Y494882D02*
G03*
X55118Y487008I0J-7874D01*
G01*
X39285Y526378D02*
G03*
X23622Y510822I-53J-15609D01*
G01*
X39285Y526378D02*
X510824D01*
X526378Y39176D02*
Y510715D01*
X494882Y62992D02*
Y487008D01*
X62992Y494882D02*
X487008D01*
X39176Y23622D02*
X510715D01*
X62992Y55118D02*
X487008D01*
X55118Y62992D02*
Y487008D01*
X23622Y39285D02*
Y510824D01*
M02*
