G04*
G04 #@! TF.GenerationSoftware,Altium Limited,Altium Designer,21.3.1 (25)*
G04*
G04 Layer_Physical_Order=1*
G04 Layer_Color=255*
%FSLAX25Y25*%
%MOIN*%
G70*
G04*
G04 #@! TF.SameCoordinates,D0EAD6BF-6444-4E14-9138-9319D8FA21D0*
G04*
G04*
G04 #@! TF.FilePolarity,Positive*
G04*
G01*
G75*
%ADD10C,0.00984*%
%ADD11C,0.01575*%
%ADD12C,0.03150*%
%ADD13C,0.01000*%
G36*
X2461Y495980D02*
X2461Y495891D01*
X2481Y495567D01*
X2488Y495527D01*
X2497Y495496D01*
X2506Y495472D01*
X2517Y495457D01*
X1972Y494901D01*
X1415Y495470D01*
X1426Y495486D01*
X1437Y495510D01*
X1446Y495542D01*
X1454Y495583D01*
X1461Y495631D01*
X1471Y495753D01*
X1476Y495996D01*
X2461Y495980D01*
D02*
G37*
G36*
X2517Y494346D02*
X2506Y494330D01*
X2497Y494307D01*
X2488Y494275D01*
X2481Y494235D01*
X2461Y493911D01*
X2461Y493822D01*
X1476Y493806D01*
X1471Y494050D01*
X1461Y494171D01*
X1454Y494219D01*
X1446Y494260D01*
X1437Y494292D01*
X1426Y494316D01*
X1415Y494332D01*
X1972Y494901D01*
X2517Y494346D01*
D02*
G37*
D10*
X1969Y2461D02*
Y548032D01*
Y2461D02*
Y548032D01*
X5898Y2461D02*
Y548032D01*
X9827Y2461D02*
Y548032D01*
X21614Y2461D02*
Y548032D01*
X25543Y2461D02*
Y548032D01*
X29472Y2461D02*
Y548032D01*
X37331Y2461D02*
Y548032D01*
X41260Y2461D02*
Y548032D01*
X45189Y2461D02*
Y548032D01*
X53047Y2461D02*
Y548032D01*
X56976Y2461D02*
Y548032D01*
X60905Y2461D02*
Y548032D01*
X64835Y2461D02*
Y548032D01*
X68764Y2461D02*
Y548032D01*
X72693Y2461D02*
Y548032D01*
X76622Y2461D02*
Y548032D01*
X80551Y2461D02*
Y548032D01*
X84480Y2461D02*
Y548032D01*
X88409Y2461D02*
Y548032D01*
X92339Y2461D02*
Y548032D01*
X96268Y2461D02*
Y548032D01*
X100197Y2461D02*
Y548032D01*
X104126Y2461D02*
Y548032D01*
X108055Y2461D02*
Y548032D01*
X111984Y2461D02*
Y548032D01*
X115913Y2461D02*
Y548032D01*
X119843Y2461D02*
Y548032D01*
X123772Y2461D02*
Y548032D01*
X127701Y2461D02*
Y548032D01*
X131630Y2461D02*
Y548032D01*
X135559Y2461D02*
Y548032D01*
X139488Y2461D02*
Y548032D01*
X143417Y2461D02*
Y548032D01*
X147346Y2461D02*
Y548032D01*
X151276Y2461D02*
Y548032D01*
X155205Y2461D02*
Y548032D01*
X159134Y2461D02*
Y548032D01*
X163063Y2461D02*
Y548032D01*
X166992Y2461D02*
Y548032D01*
X170921Y2461D02*
Y548032D01*
X174850Y2461D02*
Y548032D01*
X178779Y2461D02*
Y548032D01*
X182709Y2461D02*
Y548032D01*
X186638Y2461D02*
Y548032D01*
X190567Y2461D02*
Y548032D01*
X194496Y2461D02*
Y548032D01*
X198425Y2461D02*
Y548032D01*
X202354Y2461D02*
Y548032D01*
X206283Y2461D02*
Y548032D01*
X210213Y2461D02*
Y548032D01*
X214142Y2461D02*
Y548032D01*
X218071Y2461D02*
Y548032D01*
X222000Y2461D02*
Y548032D01*
X225929Y2461D02*
Y548032D01*
X229858Y2461D02*
Y548032D01*
X233787Y2461D02*
Y548032D01*
X237717Y2461D02*
Y548032D01*
X241646Y2461D02*
Y548032D01*
X245575Y2461D02*
Y548032D01*
X249504Y2461D02*
Y548032D01*
X253433Y2461D02*
Y548032D01*
X257362Y2461D02*
Y548032D01*
X261291Y2461D02*
Y548032D01*
X265220Y2461D02*
Y548032D01*
X269150Y2461D02*
Y548032D01*
X273079Y2461D02*
Y548032D01*
X277008Y2461D02*
Y548032D01*
X280937Y2461D02*
Y548032D01*
X284866Y2461D02*
Y548032D01*
X288795Y2461D02*
Y548032D01*
X292724Y2461D02*
Y548032D01*
X296654Y2461D02*
Y548032D01*
X300583Y2461D02*
Y548032D01*
X304512Y2461D02*
Y548032D01*
X308441Y2461D02*
Y548032D01*
X312370Y2461D02*
Y548032D01*
X316299Y2461D02*
Y548032D01*
X320228Y2461D02*
Y548032D01*
X324158Y2461D02*
Y548032D01*
X328087Y2461D02*
Y548032D01*
X332016Y2461D02*
Y548032D01*
X335945Y2461D02*
Y548032D01*
X339874Y2461D02*
Y548032D01*
X343803Y2461D02*
Y548032D01*
X347732Y2461D02*
Y548032D01*
X351661Y2461D02*
Y548032D01*
X355591Y2461D02*
Y548032D01*
X359520Y2461D02*
Y548032D01*
X363449Y2461D02*
Y548032D01*
X367378Y2461D02*
Y548032D01*
X371307Y2461D02*
Y548032D01*
X375236Y2461D02*
Y548032D01*
X379165Y2461D02*
Y548032D01*
X383095Y2461D02*
Y548032D01*
X387024Y2461D02*
Y548032D01*
X390953Y2461D02*
Y548032D01*
X394882Y2461D02*
Y548032D01*
X398811Y2461D02*
Y548032D01*
X402740Y2461D02*
Y548032D01*
X406669Y2461D02*
Y548032D01*
X410598Y2461D02*
Y548032D01*
X414528Y2461D02*
Y548032D01*
X418457Y2461D02*
Y548032D01*
X422386Y2461D02*
Y548032D01*
X426315Y2461D02*
Y548032D01*
X430244Y2461D02*
Y548032D01*
X434173Y2461D02*
Y548032D01*
X438102Y2461D02*
Y548032D01*
X442031Y2461D02*
Y548032D01*
X445961Y2461D02*
Y548032D01*
X449890Y2461D02*
Y548032D01*
X453819Y2461D02*
Y548032D01*
X457748Y2461D02*
Y548032D01*
X461677Y2461D02*
Y548032D01*
X465606Y2461D02*
Y548032D01*
X469535Y2461D02*
Y548032D01*
X473465Y2461D02*
Y548032D01*
X477394Y2461D02*
Y548032D01*
X481323Y2461D02*
Y548032D01*
X540260Y2461D02*
Y548032D01*
X544189Y2461D02*
Y548032D01*
X13756Y2461D02*
Y548032D01*
X17685Y494126D02*
Y548032D01*
Y2461D02*
Y494063D01*
X33402Y494158D02*
Y548032D01*
Y2461D02*
Y494031D01*
X49118Y2461D02*
Y494000D01*
Y494189D02*
Y548032D01*
X548118Y39417D02*
Y548032D01*
X548110Y39409D02*
X548118Y39417D01*
Y2461D02*
Y39402D01*
X548110Y39409D02*
X548118Y39402D01*
X536331Y2461D02*
Y548032D01*
X512756Y2461D02*
Y548032D01*
X516685Y2461D02*
Y548032D01*
X520614Y2461D02*
Y548032D01*
X524543Y2461D02*
Y548032D01*
X528472Y2461D02*
Y548032D01*
X532402Y2461D02*
Y548032D01*
X504898Y2461D02*
Y548032D01*
X508827Y2461D02*
Y548032D01*
X489181Y2461D02*
Y548032D01*
X493110Y2461D02*
Y548032D01*
X500969Y2461D02*
Y548032D01*
X497039Y2461D02*
Y548032D01*
X485252Y2461D02*
Y548032D01*
D11*
X1959Y494901D02*
D03*
X548032Y15354D02*
D03*
D12*
X41258Y526392D02*
D03*
X25551Y518858D02*
D03*
X49131Y494854D02*
D03*
X33392Y494945D02*
D03*
X17681Y494878D02*
D03*
X544252Y543386D02*
D03*
X56975Y526392D02*
D03*
X72691D02*
D03*
X88408D02*
D03*
X104124D02*
D03*
X119841D02*
D03*
X135557D02*
D03*
X151274D02*
D03*
X166990D02*
D03*
X182707D02*
D03*
X198423D02*
D03*
X214140D02*
D03*
X229856D02*
D03*
X245573D02*
D03*
X261290D02*
D03*
X277006D02*
D03*
X292723D02*
D03*
X308439D02*
D03*
X324156D02*
D03*
X339872D02*
D03*
X355589D02*
D03*
X371305D02*
D03*
X387022D02*
D03*
X402738D02*
D03*
X418455D02*
D03*
X434171D02*
D03*
X449888D02*
D03*
X465604D02*
D03*
X481321D02*
D03*
X497038D02*
D03*
X9843Y543307D02*
D03*
X80557Y494988D02*
D03*
X96273D02*
D03*
X111990D02*
D03*
X127707D02*
D03*
X143423D02*
D03*
X159140D02*
D03*
X174856D02*
D03*
X190573D02*
D03*
X206289D02*
D03*
X222006D02*
D03*
X237722D02*
D03*
X253439D02*
D03*
X269155D02*
D03*
X284872D02*
D03*
X300588D02*
D03*
X316305D02*
D03*
X332021D02*
D03*
X347738D02*
D03*
X363455D02*
D03*
X379171D02*
D03*
X394888D02*
D03*
X410604D02*
D03*
X426321D02*
D03*
X442037D02*
D03*
X457754D02*
D03*
X473470D02*
D03*
X504903D02*
D03*
X520620D02*
D03*
X536299Y494803D02*
D03*
X489187Y494988D02*
D03*
X512756Y526378D02*
D03*
X528473D02*
D03*
X5906Y7874D02*
D03*
X13780Y13386D02*
D03*
X21654Y21260D02*
D03*
X29528Y7874D02*
D03*
X37402Y33465D02*
D03*
X45276Y7874D02*
D03*
X60992D02*
D03*
X76709D02*
D03*
X92425D02*
D03*
X108142D02*
D03*
X123858D02*
D03*
X139575D02*
D03*
X155291D02*
D03*
X171008D02*
D03*
X186724D02*
D03*
X202441D02*
D03*
X218158D02*
D03*
X233874D02*
D03*
X249590D02*
D03*
X265307D02*
D03*
X281024D02*
D03*
X296740D02*
D03*
X312457D02*
D03*
X328173D02*
D03*
X343890D02*
D03*
X359606D02*
D03*
X375323D02*
D03*
X391039D02*
D03*
X406756D02*
D03*
X422472D02*
D03*
X438189D02*
D03*
X453905D02*
D03*
X469622D02*
D03*
X485339D02*
D03*
X501055D02*
D03*
X516772D02*
D03*
X524409Y18504D02*
D03*
X532283Y10630D02*
D03*
X540158Y5512D02*
D03*
X68898Y39370D02*
D03*
X84646D02*
D03*
X100362D02*
D03*
X116079D02*
D03*
X131795D02*
D03*
X147512D02*
D03*
X163228D02*
D03*
X178945D02*
D03*
X194661D02*
D03*
X210378D02*
D03*
X226095D02*
D03*
X241811D02*
D03*
X257528D02*
D03*
X273244D02*
D03*
X288961D02*
D03*
X304677D02*
D03*
X320394D02*
D03*
X336110D02*
D03*
X351827D02*
D03*
X367543D02*
D03*
X383260D02*
D03*
X398976D02*
D03*
X414693D02*
D03*
X430409D02*
D03*
X446126D02*
D03*
X461842D02*
D03*
X477559D02*
D03*
X493276D02*
D03*
X508661Y44488D02*
D03*
X53150Y39370D02*
D03*
X64840Y494988D02*
D03*
D13*
X0Y0D02*
X550000D01*
X550000Y550000D02*
X550000Y0D01*
X0Y550000D02*
X550000D01*
X0Y0D02*
Y550000D01*
M02*
