G04 #@! TF.GenerationSoftware,KiCad,Pcbnew,(5.1.9)-1*
G04 #@! TF.CreationDate,2021-04-12T22:56:46-07:00*
G04 #@! TF.ProjectId,2 layer FINAL test board,32206c61-7965-4722-9046-494e414c2074,rev?*
G04 #@! TF.SameCoordinates,Original*
G04 #@! TF.FileFunction,Copper,L1,Top*
G04 #@! TF.FilePolarity,Positive*
%FSLAX46Y46*%
G04 Gerber Fmt 4.6, Leading zero omitted, Abs format (unit mm)*
G04 Created by KiCad (PCBNEW (5.1.9)-1) date 2021-04-12 22:56:46*
%MOMM*%
%LPD*%
G01*
G04 APERTURE LIST*
G04 #@! TA.AperFunction,ViaPad*
%ADD10C,0.800000*%
G04 #@! TD*
G04 #@! TA.AperFunction,ViaPad*
%ADD11C,1.600000*%
G04 #@! TD*
G04 #@! TA.AperFunction,Conductor*
%ADD12C,0.250000*%
G04 #@! TD*
G04 APERTURE END LIST*
D10*
X93000000Y-150900000D03*
X95000000Y-146800000D03*
X97000000Y-151000000D03*
X99000000Y-147000000D03*
X101000000Y-151000000D03*
X105000000Y-151000000D03*
X109000000Y-151000000D03*
X113000000Y-151000000D03*
X117000000Y-151000000D03*
X121000000Y-151000000D03*
X125000000Y-151000000D03*
X129000000Y-151000000D03*
X133000000Y-151000000D03*
X137000000Y-151000000D03*
X141000000Y-151000000D03*
X145000000Y-151000000D03*
X149000000Y-151000000D03*
X153000000Y-151000000D03*
X157000000Y-151000000D03*
X161000000Y-151000000D03*
X165000000Y-151000000D03*
X169000000Y-151000000D03*
X173000000Y-151000000D03*
X177000000Y-151000000D03*
X103000000Y-147000000D03*
X107000000Y-147000000D03*
X111000000Y-147000000D03*
X115000000Y-147000000D03*
X119000000Y-147000000D03*
X123000000Y-147000000D03*
X127000000Y-147000000D03*
X131000000Y-147000000D03*
X135000000Y-147000000D03*
X139000000Y-147000000D03*
X143000000Y-147000000D03*
X147000000Y-147000000D03*
X151000000Y-147000000D03*
X155000000Y-147000000D03*
X159000000Y-147000000D03*
X163000000Y-147000000D03*
X167000000Y-147000000D03*
X171000000Y-147000000D03*
X175000000Y-147000000D03*
X94000000Y-56200000D03*
X96000000Y-60300000D03*
X98000000Y-56000000D03*
X100000000Y-60000000D03*
X104000000Y-60000000D03*
X108000000Y-60000000D03*
X112000000Y-60000000D03*
X116000000Y-60000000D03*
X120000000Y-60000000D03*
X124000000Y-60000000D03*
X128000000Y-60000000D03*
X132000000Y-60000000D03*
X136000000Y-60000000D03*
X140000000Y-60000000D03*
X144000000Y-60000000D03*
X148000000Y-60000000D03*
X152000000Y-60000000D03*
X156000000Y-60000000D03*
X160000000Y-60000000D03*
X164000000Y-60000000D03*
X168000000Y-60000000D03*
X172000000Y-60000000D03*
X176000000Y-60000000D03*
X102000000Y-56000000D03*
X106000000Y-56000000D03*
X110000000Y-56000000D03*
X114000000Y-56000000D03*
X118000000Y-56000000D03*
X122000000Y-56000000D03*
X126000000Y-56000000D03*
X130000000Y-56000000D03*
X134000000Y-56000000D03*
X138000000Y-56000000D03*
X142000000Y-56000000D03*
X146000000Y-56000000D03*
X150000000Y-56000000D03*
X154000000Y-56000000D03*
X158000000Y-56000000D03*
X162000000Y-56000000D03*
X166000000Y-56000000D03*
X170000000Y-56000000D03*
X174000000Y-56000000D03*
X178000000Y-56000000D03*
D11*
X186000000Y-105000000D03*
X184000000Y-100000000D03*
X180000000Y-95000000D03*
X182000000Y-110000000D03*
D12*
X93000000Y-54000000D02*
X93000000Y-151000000D01*
X94000000Y-54000000D02*
X94000000Y-56000000D01*
X95000000Y-54000000D02*
X95000000Y-147000000D01*
X96000000Y-54000000D02*
X96000000Y-58000000D01*
X97000000Y-54000000D02*
X97000000Y-151000000D01*
X98000000Y-54000000D02*
X98000000Y-56000000D01*
X99000000Y-54000000D02*
X99000000Y-147000000D01*
X100000000Y-54000000D02*
X100000000Y-60000000D01*
X101000000Y-54000000D02*
X101000000Y-151000000D01*
X102000000Y-54000000D02*
X102000000Y-151000000D01*
X103000000Y-54000000D02*
X103000000Y-151000000D01*
X104000000Y-54000000D02*
X104000000Y-151000000D01*
X105000000Y-54000000D02*
X105000000Y-151000000D01*
X106000000Y-54000000D02*
X106000000Y-151000000D01*
X107000000Y-54000000D02*
X107000000Y-151000000D01*
X108000000Y-54000000D02*
X108000000Y-151000000D01*
X109000000Y-54000000D02*
X109000000Y-151000000D01*
X110000000Y-54000000D02*
X110000000Y-151000000D01*
X111000000Y-54000000D02*
X111000000Y-151000000D01*
X112000000Y-54000000D02*
X112000000Y-151000000D01*
X113000000Y-54000000D02*
X113000000Y-151000000D01*
X114000000Y-54000000D02*
X114000000Y-151000000D01*
X115000000Y-54000000D02*
X115000000Y-151000000D01*
X116000000Y-54000000D02*
X116000000Y-151000000D01*
X117000000Y-54000000D02*
X117000000Y-151000000D01*
X118000000Y-54000000D02*
X118000000Y-151000000D01*
X119000000Y-54000000D02*
X119000000Y-151000000D01*
X120000000Y-54000000D02*
X120000000Y-151000000D01*
X121000000Y-54000000D02*
X121000000Y-151000000D01*
X122000000Y-54000000D02*
X122000000Y-151000000D01*
X123000000Y-54000000D02*
X123000000Y-151000000D01*
X124000000Y-54000000D02*
X124000000Y-151000000D01*
X125000000Y-54000000D02*
X125000000Y-151000000D01*
X126000000Y-54000000D02*
X126000000Y-151000000D01*
X127000000Y-54000000D02*
X127000000Y-151000000D01*
X128000000Y-54000000D02*
X128000000Y-151000000D01*
X129000000Y-54000000D02*
X129000000Y-151000000D01*
X130000000Y-54000000D02*
X130000000Y-151000000D01*
X131000000Y-54000000D02*
X131000000Y-151000000D01*
X132000000Y-54000000D02*
X132000000Y-151000000D01*
X133000000Y-54000000D02*
X133000000Y-151000000D01*
X134000000Y-54000000D02*
X134000000Y-151000000D01*
X135000000Y-54000000D02*
X135000000Y-151000000D01*
X136000000Y-54000000D02*
X136000000Y-151000000D01*
X137000000Y-54000000D02*
X137000000Y-151000000D01*
X138000000Y-54000000D02*
X138000000Y-151000000D01*
X139000000Y-54000000D02*
X139000000Y-151000000D01*
X140000000Y-54000000D02*
X140000000Y-151000000D01*
X141000000Y-54000000D02*
X141000000Y-151000000D01*
X142000000Y-54000000D02*
X142000000Y-151000000D01*
X143000000Y-54000000D02*
X143000000Y-151000000D01*
X144000000Y-54000000D02*
X144000000Y-151000000D01*
X145000000Y-54000000D02*
X145000000Y-151000000D01*
X146000000Y-54000000D02*
X146000000Y-151000000D01*
X147000000Y-54000000D02*
X147000000Y-151000000D01*
X148000000Y-54000000D02*
X148000000Y-151000000D01*
X149000000Y-54000000D02*
X149000000Y-151000000D01*
X150000000Y-54000000D02*
X150000000Y-151000000D01*
X151000000Y-54000000D02*
X151000000Y-151000000D01*
X152000000Y-54000000D02*
X152000000Y-151000000D01*
X153000000Y-54000000D02*
X153000000Y-151000000D01*
X154000000Y-54000000D02*
X154000000Y-151000000D01*
X155000000Y-54000000D02*
X155000000Y-151000000D01*
X156000000Y-54000000D02*
X156000000Y-151000000D01*
X157000000Y-54000000D02*
X157000000Y-151000000D01*
X158000000Y-54000000D02*
X158000000Y-151000000D01*
X159000000Y-54000000D02*
X159000000Y-151000000D01*
X160000000Y-54000000D02*
X160000000Y-151000000D01*
X161000000Y-54000000D02*
X161000000Y-151000000D01*
X162000000Y-54000000D02*
X162000000Y-151000000D01*
X163000000Y-54000000D02*
X163000000Y-151000000D01*
X164000000Y-54000000D02*
X164000000Y-151000000D01*
X165000000Y-54000000D02*
X165000000Y-151000000D01*
X166000000Y-54000000D02*
X166000000Y-151000000D01*
X167000000Y-54000000D02*
X167000000Y-151000000D01*
X168000000Y-54000000D02*
X168000000Y-151000000D01*
X169000000Y-54000000D02*
X169000000Y-151000000D01*
X170000000Y-54000000D02*
X170000000Y-151000000D01*
X171000000Y-54000000D02*
X171000000Y-151000000D01*
X172000000Y-54000000D02*
X172000000Y-151000000D01*
X173000000Y-54000000D02*
X173000000Y-151000000D01*
X174000000Y-54000000D02*
X174000000Y-151000000D01*
X175000000Y-54000000D02*
X175000000Y-151000000D01*
X176000000Y-54000000D02*
X176000000Y-151000000D01*
X177000000Y-54000000D02*
X177000000Y-151000000D01*
X178000000Y-54000000D02*
X178000000Y-151000000D01*
X93000000Y-151000000D02*
X93000000Y-151000000D01*
X95000000Y-147000000D02*
X95000000Y-151000000D01*
X97000000Y-151000000D02*
X97000000Y-151000000D01*
X99000000Y-147000000D02*
X99000000Y-151000000D01*
X94000000Y-56000000D02*
X94000000Y-151000000D01*
X96000000Y-58000000D02*
X96000000Y-60000000D01*
X96000000Y-60000000D02*
X96000000Y-151000000D01*
X98000000Y-56000000D02*
X98000000Y-151000000D01*
X100000000Y-60000000D02*
X100000000Y-151000000D01*
M02*
