G04 #@! TF.GenerationSoftware,KiCad,Pcbnew,(5.1.9)-1*
G04 #@! TF.CreationDate,2021-04-12T22:56:46-07:00*
G04 #@! TF.ProjectId,2 layer FINAL test board,32206c61-7965-4722-9046-494e414c2074,rev?*
G04 #@! TF.SameCoordinates,Original*
G04 #@! TF.FileFunction,Soldermask,Bot*
G04 #@! TF.FilePolarity,Negative*
%FSLAX46Y46*%
G04 Gerber Fmt 4.6, Leading zero omitted, Abs format (unit mm)*
G04 Created by KiCad (PCBNEW (5.1.9)-1) date 2021-04-12 22:56:46*
%MOMM*%
%LPD*%
G01*
G04 APERTURE LIST*
%ADD10C,0.254000*%
%ADD11C,0.100000*%
G04 APERTURE END LIST*
D10*
X180873000Y-95873000D02*
X179127000Y-95873000D01*
X179127000Y-94127000D01*
X180873000Y-94127000D01*
X180873000Y-95873000D01*
D11*
G36*
X180873000Y-95873000D02*
G01*
X179127000Y-95873000D01*
X179127000Y-94127000D01*
X180873000Y-94127000D01*
X180873000Y-95873000D01*
G37*
D10*
X184873000Y-100873000D02*
X183127000Y-100873000D01*
X183127000Y-99127000D01*
X184873000Y-99127000D01*
X184873000Y-100873000D01*
D11*
G36*
X184873000Y-100873000D02*
G01*
X183127000Y-100873000D01*
X183127000Y-99127000D01*
X184873000Y-99127000D01*
X184873000Y-100873000D01*
G37*
D10*
X186873000Y-105873000D02*
X185127000Y-105873000D01*
X185127000Y-104127000D01*
X186873000Y-104127000D01*
X186873000Y-105873000D01*
D11*
G36*
X186873000Y-105873000D02*
G01*
X185127000Y-105873000D01*
X185127000Y-104127000D01*
X186873000Y-104127000D01*
X186873000Y-105873000D01*
G37*
D10*
X182873000Y-110873000D02*
X181127000Y-110873000D01*
X181127000Y-109127000D01*
X182873000Y-109127000D01*
X182873000Y-110873000D01*
D11*
G36*
X182873000Y-110873000D02*
G01*
X181127000Y-110873000D01*
X181127000Y-109127000D01*
X182873000Y-109127000D01*
X182873000Y-110873000D01*
G37*
M02*
