G04*
G04 #@! TF.GenerationSoftware,Altium Limited,Altium Designer,21.7.2 (23)*
G04*
G04 Layer_Color=8421504*
%FSLAX25Y25*%
%MOIN*%
G70*
G04*
G04 #@! TF.SameCoordinates,983130B8-92BF-46AA-B9C2-0BED91E800B6*
G04*
G04*
G04 #@! TF.FilePolarity,Positive*
G04*
G01*
G75*
%ADD16R,0.07165X0.04134*%
%ADD17R,0.03543X0.00984*%
%ADD18R,0.00984X0.05118*%
%ADD19R,0.00984X0.03543*%
G36*
X272153Y239531D02*
Y234413D01*
X271169D01*
Y236382D01*
X269004D01*
Y234413D01*
X268020D01*
Y236382D01*
X265854D01*
Y234413D01*
X264870D01*
Y239531D01*
X272153D01*
D02*
G37*
G36*
X265854Y248587D02*
Y246618D01*
X268020D01*
Y248587D01*
X269004D01*
Y246618D01*
X271169D01*
Y248587D01*
X272153D01*
Y243468D01*
X264870D01*
Y248587D01*
X265854D01*
D02*
G37*
D16*
X295500Y256972D02*
D03*
Y246028D02*
D03*
X246500Y247972D02*
D03*
Y237028D02*
D03*
X278000Y246028D02*
D03*
Y256972D02*
D03*
X173500Y290528D02*
D03*
Y301472D02*
D03*
X153000Y290528D02*
D03*
Y301472D02*
D03*
X286500Y246028D02*
D03*
Y256972D02*
D03*
X304500Y246028D02*
D03*
Y256972D02*
D03*
D17*
X253748Y240811D02*
D03*
D18*
X262213Y246028D02*
D03*
Y236972D02*
D03*
D19*
X260244Y246815D02*
D03*
X256307D02*
D03*
X254339D02*
D03*
X260244Y236185D02*
D03*
X258276D02*
D03*
X256307D02*
D03*
X254339D02*
D03*
M02*
