G04*
G04 #@! TF.GenerationSoftware,Altium Limited,Altium Designer,21.7.2 (23)*
G04*
G04 Layer_Color=32768*
%FSLAX25Y25*%
%MOIN*%
G70*
G04*
G04 #@! TF.SameCoordinates,983130B8-92BF-46AA-B9C2-0BED91E800B6*
G04*
G04*
G04 #@! TF.FilePolarity,Positive*
G04*
G01*
G75*
%ADD13C,0.00600*%
%ADD15C,0.00394*%
%ADD59C,0.00197*%
G36*
X281100Y230450D02*
X291450D01*
Y223550D01*
X281100D01*
Y222350D01*
X264900D01*
Y223550D01*
X254550D01*
Y230450D01*
X264900D01*
Y231650D01*
X281100D01*
Y230450D01*
D02*
G37*
G36*
X268300Y203100D02*
X301000D01*
Y195900D01*
X268300D01*
Y193850D01*
X241300D01*
Y195900D01*
X208500D01*
Y203100D01*
X241300D01*
Y205150D01*
X268300D01*
Y203100D01*
D02*
G37*
G36*
X63200Y112800D02*
X36200D01*
Y194200D01*
X63200D01*
Y112800D01*
D02*
G37*
D13*
X208000Y203100D02*
X241300D01*
Y205150D01*
X268300D01*
Y203100D02*
Y205150D01*
Y203100D02*
X302500D01*
X208000Y195900D02*
Y203100D01*
Y195900D02*
X241300D01*
Y193850D02*
Y195900D01*
Y193850D02*
X268300D01*
Y195900D01*
X302500D01*
Y203100D01*
X254550Y223550D02*
Y230450D01*
X264900D01*
X281100D02*
X291450D01*
Y223550D02*
Y230450D01*
X281100Y223550D02*
X291450D01*
X254550D02*
X264900D01*
Y222350D02*
Y223550D01*
Y230450D02*
Y231650D01*
X281100D01*
Y230450D02*
Y231650D01*
Y222350D02*
Y223550D01*
X264900Y222350D02*
X281100D01*
X63200Y112800D02*
Y194200D01*
X36200Y112800D02*
X63200D01*
X36200D02*
Y194200D01*
X63200D01*
D15*
X262500Y272031D02*
Y275969D01*
X260531Y274000D02*
X264469D01*
X322031Y191000D02*
X325969D01*
X324000Y189032D02*
Y192968D01*
X220602Y35976D02*
X349776D01*
Y-43551D02*
Y35976D01*
X220602Y-43551D02*
X349776D01*
X220602D02*
Y35976D01*
X122500Y267531D02*
Y271468D01*
X120531Y269500D02*
X124469D01*
X108031Y310500D02*
X111969D01*
X110000Y308531D02*
Y312469D01*
X66031Y277000D02*
X69968D01*
X68000Y275031D02*
Y278969D01*
X162000Y234032D02*
Y237968D01*
X160031Y236000D02*
X163969D01*
D59*
X267894Y274000D02*
G03*
X267894Y274000I-5394J0D01*
G01*
X329394Y191000D02*
G03*
X329394Y191000I-5394J0D01*
G01*
X127894Y269500D02*
G03*
X127894Y269500I-5394J0D01*
G01*
X115394Y310500D02*
G03*
X115394Y310500I-5394J0D01*
G01*
X73394Y277000D02*
G03*
X73394Y277000I-5394J0D01*
G01*
X167394Y236000D02*
G03*
X167394Y236000I-5394J0D01*
G01*
X299673Y243370D02*
Y259630D01*
X291327Y243370D02*
X299673D01*
X291327D02*
Y259630D01*
X299673D01*
X187016Y251724D02*
Y287158D01*
X139378D02*
X187016D01*
X139378Y251724D02*
Y287158D01*
Y251724D02*
X187016D01*
X250992Y233429D02*
Y249571D01*
X273827D01*
Y233429D02*
Y249571D01*
X250992Y233429D02*
X273827D01*
X26016Y226811D02*
X52984D01*
X26016D02*
Y258189D01*
X52984D01*
Y226811D02*
Y258189D01*
X25516Y286811D02*
X52484D01*
X25516D02*
Y318189D01*
X52484D01*
Y286811D02*
Y318189D01*
X242327Y234370D02*
X250673D01*
Y250630D01*
X242327D02*
X250673D01*
X242327Y234370D02*
Y250630D01*
X273827Y259630D02*
X282173D01*
X273827Y243370D02*
Y259630D01*
Y243370D02*
X282173D01*
Y259630D01*
X169327Y304130D02*
X177673D01*
X169327Y287870D02*
Y304130D01*
Y287870D02*
X177673D01*
Y304130D01*
X148827D02*
X157173D01*
X148827Y287870D02*
Y304130D01*
Y287870D02*
X157173D01*
Y304130D01*
X282327Y259630D02*
X290673D01*
X282327Y243370D02*
Y259630D01*
Y243370D02*
X290673D01*
Y259630D01*
X300327D02*
X308673D01*
X300327Y243370D02*
Y259630D01*
Y243370D02*
X308673D01*
Y259630D01*
M02*
