M48
;Layer_Color=9474304
;FILE_FORMAT=2:5
INCH,TZ
;TYPE=PLATED
T1F00S00C0.01400
T2F00S00C0.01800
T3F00S00C0.02900
T4F00S00C0.03200
T5F00S00C0.03417
T6F00S00C0.03800
T7F00S00C0.03937
T8F00S00C0.04134
T9F00S00C0.04606
T10F00S00C0.04700
T11F00S00C0.07700
T12F00S00C0.10500
T13F00S00C0.12520
%
T01
X153000Y307000
X173500Y307015
X304500Y273000
T02
X98500Y141000
Y197500
X106000Y235500
Y249500
X197000Y278000
X246000Y255500
T03
X258000Y227000
X288000
T04
X298000Y199500
X213000
T05
X234000Y211941
X56941Y296500
X112059
X136559Y226500
X81441
X234000Y267059
T06
X66500Y226752
Y242500
X90126Y277000
X105874
T07
X324000Y191000
X68000Y277000
X122500Y269500
X153000Y278299
X163000
X173000
X162000Y236000
X110000Y310500
X262500Y274000
T08
X39500Y232500
Y242500
Y252500
X39000Y292500
Y302500
Y312500
T09
X268831Y15819
X279736
X290642
X301547
X296094Y27000
X307000
X285189
X274284
X263378
T10
X50000Y118500
Y128500
Y138500
Y148500
Y158500
Y168500
Y178500
Y188500
T11
X121000Y72500
X141000
Y92500
X121000
X178000Y92000
Y72000
X198000
Y92000
T12
X12000Y12000
X368000
X12000Y313000
X368000
T13
X235976Y21409
X334402
M30
