G04*
G04 #@! TF.GenerationSoftware,Altium Limited,Altium Designer,21.7.2 (23)*
G04*
G04 Layer_Physical_Order=2*
G04 Layer_Color=16711680*
%FSLAX25Y25*%
%MOIN*%
G70*
G04*
G04 #@! TF.SameCoordinates,983130B8-92BF-46AA-B9C2-0BED91E800B6*
G04*
G04*
G04 #@! TF.FilePolarity,Positive*
G04*
G01*
G75*
%ADD11C,0.01000*%
%ADD12C,0.02000*%
%ADD26C,0.05200*%
%ADD27R,0.04900X0.04900*%
%ADD28C,0.04900*%
%ADD30C,0.06700*%
%ADD41C,0.03500*%
%ADD45C,0.05906*%
%ADD46C,0.06799*%
%ADD47C,0.06000*%
%ADD48R,0.05937X0.05937*%
%ADD49C,0.05937*%
%ADD50R,0.06201X0.06201*%
%ADD51C,0.06201*%
%ADD52C,0.11000*%
%ADD53C,0.06909*%
%ADD54C,0.18779*%
%ADD55C,0.03500*%
%ADD56C,0.10500*%
%ADD57C,0.02500*%
G36*
X204500Y296500D02*
X356000D01*
Y3500D01*
X75500D01*
Y86500D01*
X21000D01*
Y320000D01*
X204500D01*
Y296500D01*
D02*
G37*
%LPC*%
G36*
X39540Y316600D02*
X38460D01*
X37417Y316321D01*
X36482Y315781D01*
X35719Y315018D01*
X35179Y314083D01*
X34900Y313040D01*
Y311960D01*
X35179Y310917D01*
X35719Y309982D01*
X36482Y309219D01*
X37417Y308679D01*
X38460Y308400D01*
X39540D01*
X40583Y308679D01*
X41518Y309219D01*
X42281Y309982D01*
X42821Y310917D01*
X43100Y311960D01*
Y313040D01*
X42821Y314083D01*
X42281Y315018D01*
X41518Y315781D01*
X40583Y316321D01*
X39540Y316600D01*
D02*
G37*
G36*
X174000Y309243D02*
Y307515D01*
X175728D01*
X175408Y308290D01*
X174775Y308922D01*
X174000Y309243D01*
D02*
G37*
G36*
X173000D02*
X172225Y308922D01*
X171592Y308290D01*
X171272Y307515D01*
X173000D01*
Y309243D01*
D02*
G37*
G36*
X153500Y309228D02*
Y307500D01*
X155228D01*
X154908Y308275D01*
X154274Y308908D01*
X153500Y309228D01*
D02*
G37*
G36*
X152500D02*
X151725Y308908D01*
X151093Y308275D01*
X150772Y307500D01*
X152500D01*
Y309228D01*
D02*
G37*
G36*
X110520Y314453D02*
X109480D01*
X108474Y314183D01*
X107573Y313663D01*
X106837Y312927D01*
X106317Y312026D01*
X106047Y311020D01*
Y309980D01*
X106317Y308974D01*
X106837Y308073D01*
X107573Y307337D01*
X108474Y306817D01*
X109480Y306547D01*
X110520D01*
X111526Y306817D01*
X112427Y307337D01*
X113163Y308073D01*
X113683Y308974D01*
X113953Y309980D01*
Y311020D01*
X113683Y312026D01*
X113163Y312927D01*
X112427Y313663D01*
X111526Y314183D01*
X110520Y314453D01*
D02*
G37*
G36*
X175728Y306515D02*
X174000D01*
Y304787D01*
X174775Y305107D01*
X175408Y305740D01*
X175728Y306515D01*
D02*
G37*
G36*
X173000D02*
X171272D01*
X171592Y305740D01*
X172225Y305107D01*
X173000Y304787D01*
Y306515D01*
D02*
G37*
G36*
X155228Y306500D02*
X153500D01*
Y304772D01*
X154274Y305093D01*
X154908Y305726D01*
X155228Y306500D01*
D02*
G37*
G36*
X152500D02*
X150772D01*
X151093Y305726D01*
X151725Y305093D01*
X152500Y304772D01*
Y306500D01*
D02*
G37*
G36*
X39540Y306600D02*
X38460D01*
X37417Y306321D01*
X36482Y305781D01*
X35719Y305018D01*
X35179Y304083D01*
X34900Y303040D01*
Y301960D01*
X35179Y300917D01*
X35719Y299982D01*
X36482Y299219D01*
X37417Y298679D01*
X38460Y298400D01*
X39540D01*
X40583Y298679D01*
X41518Y299219D01*
X42281Y299982D01*
X42821Y300917D01*
X43100Y301960D01*
Y303040D01*
X42821Y304083D01*
X42281Y305018D01*
X41518Y305781D01*
X40583Y306321D01*
X39540Y306600D01*
D02*
G37*
G36*
X57468Y300500D02*
X57441D01*
Y297000D01*
X60941D01*
Y297027D01*
X60668Y298044D01*
X60142Y298956D01*
X59397Y299701D01*
X58485Y300227D01*
X57468Y300500D01*
D02*
G37*
G36*
X56441D02*
X56414D01*
X55397Y300227D01*
X54485Y299701D01*
X53740Y298956D01*
X53214Y298044D01*
X52941Y297027D01*
Y297000D01*
X56441D01*
Y300500D01*
D02*
G37*
G36*
X112586D02*
X111532D01*
X110515Y300227D01*
X109603Y299701D01*
X108858Y298956D01*
X108332Y298044D01*
X108059Y297027D01*
Y295973D01*
X108332Y294956D01*
X108858Y294044D01*
X109603Y293299D01*
X110515Y292773D01*
X111532Y292500D01*
X112586D01*
X113603Y292773D01*
X114515Y293299D01*
X115260Y294044D01*
X115786Y294956D01*
X116059Y295973D01*
Y297027D01*
X115786Y298044D01*
X115260Y298956D01*
X114515Y299701D01*
X113603Y300227D01*
X112586Y300500D01*
D02*
G37*
G36*
X60941Y296000D02*
X57441D01*
Y292500D01*
X57468D01*
X58485Y292773D01*
X59397Y293299D01*
X60142Y294044D01*
X60668Y294956D01*
X60941Y295973D01*
Y296000D01*
D02*
G37*
G36*
X56441D02*
X52941D01*
Y295973D01*
X53214Y294956D01*
X53740Y294044D01*
X54485Y293299D01*
X55397Y292773D01*
X56414Y292500D01*
X56441D01*
Y296000D01*
D02*
G37*
G36*
X43100Y296600D02*
X34900D01*
Y288400D01*
X43100D01*
Y296600D01*
D02*
G37*
G36*
X163523Y282268D02*
X163500D01*
Y278799D01*
X166969D01*
Y278822D01*
X166698Y279831D01*
X166176Y280736D01*
X165437Y281475D01*
X164532Y281997D01*
X163523Y282268D01*
D02*
G37*
G36*
X162500D02*
X162478D01*
X161468Y281997D01*
X160563Y281475D01*
X159824Y280736D01*
X159302Y279831D01*
X159031Y278822D01*
Y278799D01*
X162500D01*
Y282268D01*
D02*
G37*
G36*
X263020Y277953D02*
X263000D01*
Y274500D01*
X266453D01*
Y274520D01*
X266183Y275526D01*
X265663Y276427D01*
X264927Y277163D01*
X264026Y277683D01*
X263020Y277953D01*
D02*
G37*
G36*
X262000D02*
X261980D01*
X260974Y277683D01*
X260073Y277163D01*
X259337Y276427D01*
X258817Y275526D01*
X258547Y274520D01*
Y274500D01*
X262000D01*
Y277953D01*
D02*
G37*
G36*
X166969Y277799D02*
X163500D01*
Y274331D01*
X163523D01*
X164532Y274601D01*
X165437Y275124D01*
X166176Y275863D01*
X166698Y276767D01*
X166969Y277777D01*
Y277799D01*
D02*
G37*
G36*
X162500D02*
X159031D01*
Y277777D01*
X159302Y276767D01*
X159824Y275863D01*
X160563Y275124D01*
X161468Y274601D01*
X162478Y274331D01*
X162500D01*
Y277799D01*
D02*
G37*
G36*
X153523Y282268D02*
X152478D01*
X151468Y281997D01*
X150563Y281475D01*
X149824Y280736D01*
X149302Y279831D01*
X149031Y278822D01*
Y277777D01*
X149302Y276767D01*
X149824Y275863D01*
X150563Y275124D01*
X151468Y274601D01*
X152478Y274331D01*
X153523D01*
X154532Y274601D01*
X155437Y275124D01*
X156176Y275863D01*
X156698Y276767D01*
X156968Y277777D01*
Y278822D01*
X156698Y279831D01*
X156176Y280736D01*
X155437Y281475D01*
X154532Y281997D01*
X153523Y282268D01*
D02*
G37*
G36*
X176969D02*
X169032D01*
Y274331D01*
X172440D01*
X173299Y274218D01*
X197000D01*
X197979Y274346D01*
X198891Y274724D01*
X199674Y275325D01*
X200276Y276109D01*
X200654Y277021D01*
X200782Y278000D01*
X200654Y278979D01*
X200276Y279891D01*
X199674Y280675D01*
X198891Y281276D01*
X197979Y281653D01*
X197000Y281782D01*
X176969D01*
Y282268D01*
D02*
G37*
G36*
X305000Y275713D02*
Y273500D01*
X307213D01*
X307063Y274061D01*
X306701Y274689D01*
X306189Y275201D01*
X305561Y275563D01*
X305000Y275713D01*
D02*
G37*
G36*
X304000D02*
X303438Y275563D01*
X302812Y275201D01*
X302299Y274689D01*
X301937Y274061D01*
X301787Y273500D01*
X304000D01*
Y275713D01*
D02*
G37*
G36*
X68520Y280953D02*
X67480D01*
X66474Y280683D01*
X65573Y280163D01*
X64837Y279427D01*
X64317Y278526D01*
X64047Y277520D01*
Y276480D01*
X64317Y275474D01*
X64837Y274573D01*
X65573Y273837D01*
X66474Y273317D01*
X67480Y273047D01*
X68520D01*
X69526Y273317D01*
X70427Y273837D01*
X71163Y274573D01*
X71683Y275474D01*
X71953Y276480D01*
Y277520D01*
X71683Y278526D01*
X71163Y279427D01*
X70427Y280163D01*
X69526Y280683D01*
X68520Y280953D01*
D02*
G37*
G36*
X106453Y281400D02*
X105295D01*
X104176Y281100D01*
X103173Y280521D01*
X102354Y279701D01*
X101774Y278698D01*
X101474Y277579D01*
Y276421D01*
X101774Y275302D01*
X102354Y274299D01*
X103173Y273479D01*
X104176Y272900D01*
X105295Y272600D01*
X106453D01*
X107572Y272900D01*
X108575Y273479D01*
X109395Y274299D01*
X109974Y275302D01*
X110274Y276421D01*
Y277579D01*
X109974Y278698D01*
X109395Y279701D01*
X108575Y280521D01*
X107572Y281100D01*
X106453Y281400D01*
D02*
G37*
G36*
X90705D02*
X89547D01*
X88428Y281100D01*
X87425Y280521D01*
X86605Y279701D01*
X86026Y278698D01*
X85726Y277579D01*
Y276421D01*
X86026Y275302D01*
X86605Y274299D01*
X87425Y273479D01*
X88428Y272900D01*
X89547Y272600D01*
X90705D01*
X91824Y272900D01*
X92827Y273479D01*
X93647Y274299D01*
X94226Y275302D01*
X94526Y276421D01*
Y277579D01*
X94226Y278698D01*
X93647Y279701D01*
X92827Y280521D01*
X91824Y281100D01*
X90705Y281400D01*
D02*
G37*
G36*
X307213Y272500D02*
X305000D01*
Y270287D01*
X305561Y270437D01*
X306189Y270799D01*
X306701Y271311D01*
X307063Y271938D01*
X307213Y272500D01*
D02*
G37*
G36*
X304000D02*
X301787D01*
X301937Y271938D01*
X302299Y271311D01*
X302812Y270799D01*
X303438Y270437D01*
X304000Y270287D01*
Y272500D01*
D02*
G37*
G36*
X266453Y273500D02*
X263000D01*
Y270047D01*
X263020D01*
X264026Y270317D01*
X264927Y270837D01*
X265663Y271573D01*
X266183Y272474D01*
X266453Y273480D01*
Y273500D01*
D02*
G37*
G36*
X262000D02*
X258547D01*
Y273480D01*
X258817Y272474D01*
X259337Y271573D01*
X260073Y270837D01*
X260974Y270317D01*
X261980Y270047D01*
X262000D01*
Y273500D01*
D02*
G37*
G36*
X123020Y273453D02*
X123000D01*
Y270000D01*
X126453D01*
Y270020D01*
X126183Y271026D01*
X125663Y271927D01*
X124927Y272663D01*
X124026Y273183D01*
X123020Y273453D01*
D02*
G37*
G36*
X122000D02*
X121980D01*
X120974Y273183D01*
X120073Y272663D01*
X119337Y271927D01*
X118817Y271026D01*
X118547Y270020D01*
Y270000D01*
X122000D01*
Y273453D01*
D02*
G37*
G36*
X126453Y269000D02*
X123000D01*
Y265547D01*
X123020D01*
X124026Y265817D01*
X124927Y266337D01*
X125663Y267073D01*
X126183Y267974D01*
X126453Y268980D01*
Y269000D01*
D02*
G37*
G36*
X122000D02*
X118547D01*
Y268980D01*
X118817Y267974D01*
X119337Y267073D01*
X120073Y266337D01*
X120974Y265817D01*
X121980Y265547D01*
X122000D01*
Y269000D01*
D02*
G37*
G36*
X234527Y271059D02*
X233473D01*
X232456Y270786D01*
X231544Y270260D01*
X230799Y269515D01*
X230273Y268603D01*
X230000Y267586D01*
Y266532D01*
X230273Y265515D01*
X230799Y264603D01*
X231544Y263858D01*
X232456Y263332D01*
X233473Y263059D01*
X234527D01*
X235544Y263332D01*
X236456Y263858D01*
X237201Y264603D01*
X237727Y265515D01*
X238000Y266532D01*
Y267586D01*
X237727Y268603D01*
X237201Y269515D01*
X236456Y270260D01*
X235544Y270786D01*
X234527Y271059D01*
D02*
G37*
G36*
X246500Y258213D02*
Y256000D01*
X248713D01*
X248563Y256561D01*
X248201Y257189D01*
X247689Y257701D01*
X247061Y258063D01*
X246500Y258213D01*
D02*
G37*
G36*
X245500D02*
X244938Y258063D01*
X244311Y257701D01*
X243799Y257189D01*
X243437Y256561D01*
X243287Y256000D01*
X245500D01*
Y258213D01*
D02*
G37*
G36*
X248713Y255000D02*
X246500D01*
Y252787D01*
X247061Y252937D01*
X247689Y253299D01*
X248201Y253812D01*
X248563Y254438D01*
X248713Y255000D01*
D02*
G37*
G36*
X245500D02*
X243287D01*
X243437Y254438D01*
X243799Y253812D01*
X244311Y253299D01*
X244938Y252937D01*
X245500Y252787D01*
Y255000D01*
D02*
G37*
G36*
X40040Y256600D02*
X38960D01*
X37917Y256321D01*
X36982Y255781D01*
X36219Y255018D01*
X35679Y254083D01*
X35400Y253040D01*
Y251960D01*
X35679Y250917D01*
X36219Y249982D01*
X36982Y249219D01*
X37917Y248679D01*
X38960Y248400D01*
X40040D01*
X41083Y248679D01*
X42018Y249219D01*
X42781Y249982D01*
X43321Y250917D01*
X43600Y251960D01*
Y253040D01*
X43321Y254083D01*
X42781Y255018D01*
X42018Y255781D01*
X41083Y256321D01*
X40040Y256600D01*
D02*
G37*
G36*
Y246600D02*
X38960D01*
X37917Y246321D01*
X36982Y245781D01*
X36219Y245018D01*
X35679Y244083D01*
X35400Y243040D01*
Y241960D01*
X35679Y240917D01*
X36219Y239982D01*
X36982Y239219D01*
X37917Y238679D01*
X38960Y238400D01*
X40040D01*
X41083Y238679D01*
X42018Y239219D01*
X42781Y239982D01*
X43321Y240917D01*
X43600Y241960D01*
Y243040D01*
X43321Y244083D01*
X42781Y245018D01*
X42018Y245781D01*
X41083Y246321D01*
X40040Y246600D01*
D02*
G37*
G36*
X67079Y246900D02*
X65921D01*
X64802Y246600D01*
X63799Y246021D01*
X62979Y245201D01*
X62400Y244198D01*
X62100Y243079D01*
Y241921D01*
X62400Y240802D01*
X62979Y239799D01*
X63799Y238979D01*
X64802Y238400D01*
X65921Y238100D01*
X67079D01*
X68198Y238400D01*
X69201Y238979D01*
X70021Y239799D01*
X70600Y240802D01*
X70900Y241921D01*
Y243079D01*
X70600Y244198D01*
X70021Y245201D01*
X69201Y246021D01*
X68198Y246600D01*
X67079Y246900D01*
D02*
G37*
G36*
X260835Y244130D02*
X257685D01*
X256905Y243974D01*
X256243Y243532D01*
X255801Y242871D01*
X255646Y242091D01*
Y239531D01*
X255801Y238751D01*
X256243Y238090D01*
X256905Y237648D01*
X257685Y237492D01*
X260835D01*
X261615Y237648D01*
X262277Y238090D01*
X262719Y238751D01*
X262874Y239531D01*
Y242091D01*
X262719Y242871D01*
X262277Y243532D01*
X261615Y243974D01*
X260835Y244130D01*
D02*
G37*
G36*
X162520Y239953D02*
X161480D01*
X160474Y239683D01*
X159573Y239163D01*
X158837Y238427D01*
X158317Y237526D01*
X158047Y236520D01*
Y235480D01*
X158317Y234474D01*
X158837Y233573D01*
X159573Y232837D01*
X160474Y232317D01*
X161480Y232047D01*
X162520D01*
X163526Y232317D01*
X164427Y232837D01*
X165163Y233573D01*
X165683Y234474D01*
X165953Y235480D01*
Y236520D01*
X165683Y237526D01*
X165163Y238427D01*
X164427Y239163D01*
X163526Y239683D01*
X162520Y239953D01*
D02*
G37*
G36*
X106000Y253282D02*
X105021Y253153D01*
X104109Y252776D01*
X103325Y252174D01*
X102724Y251391D01*
X102347Y250479D01*
X102218Y249500D01*
Y235500D01*
X102347Y234521D01*
X102724Y233609D01*
X103325Y232825D01*
X104109Y232224D01*
X105021Y231846D01*
X106000Y231718D01*
X106979Y231846D01*
X107891Y232224D01*
X108675Y232825D01*
X109276Y233609D01*
X109653Y234521D01*
X109782Y235500D01*
Y249500D01*
X109653Y250479D01*
X109276Y251391D01*
X108675Y252174D01*
X107891Y252776D01*
X106979Y253153D01*
X106000Y253282D01*
D02*
G37*
G36*
X43600Y236600D02*
X35400D01*
Y228400D01*
X43600D01*
Y236600D01*
D02*
G37*
G36*
X137086Y230500D02*
X137059D01*
Y227000D01*
X140559D01*
Y227027D01*
X140286Y228044D01*
X139760Y228956D01*
X139015Y229701D01*
X138103Y230227D01*
X137086Y230500D01*
D02*
G37*
G36*
X136059D02*
X136032D01*
X135015Y230227D01*
X134103Y229701D01*
X133358Y228956D01*
X132832Y228044D01*
X132559Y227027D01*
Y227000D01*
X136059D01*
Y230500D01*
D02*
G37*
G36*
X288454Y230450D02*
X287546D01*
X286668Y230215D01*
X285882Y229761D01*
X285239Y229118D01*
X284785Y228332D01*
X284550Y227454D01*
Y226546D01*
X284785Y225668D01*
X285239Y224882D01*
X285882Y224239D01*
X286668Y223785D01*
X287546Y223550D01*
X288454D01*
X289332Y223785D01*
X290118Y224239D01*
X290761Y224882D01*
X291215Y225668D01*
X291450Y226546D01*
Y227454D01*
X291215Y228332D01*
X290761Y229118D01*
X290118Y229761D01*
X289332Y230215D01*
X288454Y230450D01*
D02*
G37*
G36*
X261450D02*
X254550D01*
Y223550D01*
X261450D01*
Y230450D01*
D02*
G37*
G36*
X140559Y226000D02*
X137059D01*
Y222500D01*
X137086D01*
X138103Y222773D01*
X139015Y223299D01*
X139760Y224044D01*
X140286Y224956D01*
X140559Y225973D01*
Y226000D01*
D02*
G37*
G36*
X136059D02*
X132559D01*
Y225973D01*
X132832Y224956D01*
X133358Y224044D01*
X134103Y223299D01*
X135015Y222773D01*
X136032Y222500D01*
X136059D01*
Y226000D01*
D02*
G37*
G36*
X81968Y230500D02*
X80914D01*
X79897Y230227D01*
X78985Y229701D01*
X78240Y228956D01*
X77714Y228044D01*
X77441Y227027D01*
Y225973D01*
X77714Y224956D01*
X78240Y224044D01*
X78985Y223299D01*
X79897Y222773D01*
X80914Y222500D01*
X81968D01*
X82985Y222773D01*
X83897Y223299D01*
X84642Y224044D01*
X85168Y224956D01*
X85441Y225973D01*
Y227027D01*
X85168Y228044D01*
X84642Y228956D01*
X83897Y229701D01*
X82985Y230227D01*
X81968Y230500D01*
D02*
G37*
G36*
X67079Y231152D02*
X65921D01*
X64802Y230852D01*
X63799Y230273D01*
X62979Y229453D01*
X62400Y228450D01*
X62100Y227331D01*
Y226173D01*
X62400Y225054D01*
X62979Y224050D01*
X63799Y223231D01*
X64802Y222652D01*
X65921Y222352D01*
X67079D01*
X68198Y222652D01*
X69201Y223231D01*
X70021Y224050D01*
X70600Y225054D01*
X70900Y226173D01*
Y227331D01*
X70600Y228450D01*
X70021Y229453D01*
X69201Y230273D01*
X68198Y230852D01*
X67079Y231152D01*
D02*
G37*
G36*
X234527Y215941D02*
X233473D01*
X232456Y215668D01*
X231544Y215142D01*
X230799Y214397D01*
X230273Y213485D01*
X230000Y212468D01*
Y211414D01*
X230273Y210397D01*
X230799Y209485D01*
X231544Y208740D01*
X232456Y208214D01*
X233473Y207941D01*
X234527D01*
X235544Y208214D01*
X236456Y208740D01*
X237201Y209485D01*
X237727Y210397D01*
X238000Y211414D01*
Y212468D01*
X237727Y213485D01*
X237201Y214397D01*
X236456Y215142D01*
X235544Y215668D01*
X234527Y215941D01*
D02*
G37*
G36*
X213500Y203093D02*
Y200000D01*
X216593D01*
X216355Y200890D01*
X215881Y201710D01*
X215210Y202381D01*
X214390Y202855D01*
X213500Y203093D01*
D02*
G37*
G36*
X212500D02*
X211610Y202855D01*
X210790Y202381D01*
X210119Y201710D01*
X209645Y200890D01*
X209407Y200000D01*
X212500D01*
Y203093D01*
D02*
G37*
G36*
X216593Y199000D02*
X213500D01*
Y195907D01*
X214390Y196145D01*
X215210Y196619D01*
X215881Y197290D01*
X216355Y198110D01*
X216593Y199000D01*
D02*
G37*
G36*
X212500D02*
X209407D01*
X209645Y198110D01*
X210119Y197290D01*
X210790Y196619D01*
X211610Y196145D01*
X212500Y195907D01*
Y199000D01*
D02*
G37*
G36*
X298474Y203100D02*
X297526D01*
X296610Y202855D01*
X295790Y202381D01*
X295119Y201710D01*
X294645Y200890D01*
X294400Y199974D01*
Y199026D01*
X294645Y198110D01*
X295119Y197290D01*
X295790Y196619D01*
X296610Y196145D01*
X297526Y195900D01*
X298474D01*
X299390Y196145D01*
X300210Y196619D01*
X300881Y197290D01*
X301355Y198110D01*
X301600Y199026D01*
Y199974D01*
X301355Y200890D01*
X300881Y201710D01*
X300210Y202381D01*
X299390Y202855D01*
X298474Y203100D01*
D02*
G37*
G36*
X50573Y192850D02*
X50500D01*
Y189000D01*
X54350D01*
Y189073D01*
X54054Y190179D01*
X53481Y191171D01*
X52671Y191981D01*
X51679Y192554D01*
X50573Y192850D01*
D02*
G37*
G36*
X49500D02*
X49427D01*
X48321Y192554D01*
X47329Y191981D01*
X46519Y191171D01*
X45946Y190179D01*
X45650Y189073D01*
Y189000D01*
X49500D01*
Y192850D01*
D02*
G37*
G36*
X324520Y194953D02*
X323480D01*
X322474Y194683D01*
X321573Y194163D01*
X320837Y193427D01*
X320317Y192526D01*
X320047Y191520D01*
Y190480D01*
X320317Y189474D01*
X320837Y188573D01*
X321573Y187837D01*
X322474Y187317D01*
X323480Y187047D01*
X324520D01*
X325526Y187317D01*
X326427Y187837D01*
X327163Y188573D01*
X327683Y189474D01*
X327953Y190480D01*
Y191520D01*
X327683Y192526D01*
X327163Y193427D01*
X326427Y194163D01*
X325526Y194683D01*
X324520Y194953D01*
D02*
G37*
G36*
X54350Y188000D02*
X50500D01*
Y184150D01*
X50573D01*
X51679Y184446D01*
X52671Y185019D01*
X53481Y185829D01*
X54054Y186821D01*
X54350Y187927D01*
Y188000D01*
D02*
G37*
G36*
X49500D02*
X45650D01*
Y187927D01*
X45946Y186821D01*
X46519Y185829D01*
X47329Y185019D01*
X48321Y184446D01*
X49427Y184150D01*
X49500D01*
Y188000D01*
D02*
G37*
G36*
X50573Y182850D02*
X49427D01*
X48321Y182554D01*
X47329Y181981D01*
X46519Y181171D01*
X45946Y180179D01*
X45650Y179073D01*
Y177927D01*
X45946Y176821D01*
X46519Y175829D01*
X47329Y175019D01*
X48321Y174446D01*
X49427Y174150D01*
X50573D01*
X51679Y174446D01*
X52671Y175019D01*
X53481Y175829D01*
X54054Y176821D01*
X54350Y177927D01*
Y179073D01*
X54054Y180179D01*
X53481Y181171D01*
X52671Y181981D01*
X51679Y182554D01*
X50573Y182850D01*
D02*
G37*
G36*
Y172850D02*
X49427D01*
X48321Y172554D01*
X47329Y171981D01*
X46519Y171171D01*
X45946Y170179D01*
X45650Y169073D01*
Y167927D01*
X45946Y166821D01*
X46519Y165829D01*
X47329Y165019D01*
X48321Y164446D01*
X49427Y164150D01*
X50573D01*
X51679Y164446D01*
X52671Y165019D01*
X53481Y165829D01*
X54054Y166821D01*
X54350Y167927D01*
Y169073D01*
X54054Y170179D01*
X53481Y171171D01*
X52671Y171981D01*
X51679Y172554D01*
X50573Y172850D01*
D02*
G37*
G36*
Y162850D02*
X49427D01*
X48321Y162554D01*
X47329Y161981D01*
X46519Y161171D01*
X45946Y160179D01*
X45650Y159073D01*
Y157927D01*
X45946Y156821D01*
X46519Y155829D01*
X47329Y155019D01*
X48321Y154446D01*
X49427Y154150D01*
X50573D01*
X51679Y154446D01*
X52671Y155019D01*
X53481Y155829D01*
X54054Y156821D01*
X54350Y157927D01*
Y159073D01*
X54054Y160179D01*
X53481Y161171D01*
X52671Y161981D01*
X51679Y162554D01*
X50573Y162850D01*
D02*
G37*
G36*
Y152850D02*
X49427D01*
X48321Y152554D01*
X47329Y151981D01*
X46519Y151171D01*
X45946Y150179D01*
X45650Y149073D01*
Y147927D01*
X45946Y146821D01*
X46519Y145829D01*
X47329Y145019D01*
X48321Y144446D01*
X49427Y144150D01*
X50573D01*
X51679Y144446D01*
X52671Y145019D01*
X53481Y145829D01*
X54054Y146821D01*
X54350Y147927D01*
Y149073D01*
X54054Y150179D01*
X53481Y151171D01*
X52671Y151981D01*
X51679Y152554D01*
X50573Y152850D01*
D02*
G37*
G36*
X98500Y201282D02*
X97521Y201153D01*
X96609Y200776D01*
X95825Y200174D01*
X95224Y199391D01*
X94846Y198479D01*
X94718Y197500D01*
Y141000D01*
X94846Y140021D01*
X95224Y139109D01*
X95825Y138326D01*
X96609Y137724D01*
X97521Y137346D01*
X98500Y137218D01*
X99479Y137346D01*
X100391Y137724D01*
X101174Y138326D01*
X101776Y139109D01*
X102154Y140021D01*
X102282Y141000D01*
Y197500D01*
X102154Y198479D01*
X101776Y199391D01*
X101174Y200174D01*
X100391Y200776D01*
X99479Y201153D01*
X98500Y201282D01*
D02*
G37*
G36*
X50573Y142850D02*
X49427D01*
X48321Y142554D01*
X47329Y141981D01*
X46519Y141171D01*
X45946Y140179D01*
X45650Y139073D01*
Y137927D01*
X45946Y136821D01*
X46519Y135829D01*
X47329Y135019D01*
X48321Y134446D01*
X49427Y134150D01*
X50573D01*
X51679Y134446D01*
X52671Y135019D01*
X53481Y135829D01*
X54054Y136821D01*
X54350Y137927D01*
Y139073D01*
X54054Y140179D01*
X53481Y141171D01*
X52671Y141981D01*
X51679Y142554D01*
X50573Y142850D01*
D02*
G37*
G36*
Y132850D02*
X50500D01*
Y129000D01*
X54350D01*
Y129073D01*
X54054Y130179D01*
X53481Y131171D01*
X52671Y131981D01*
X51679Y132554D01*
X50573Y132850D01*
D02*
G37*
G36*
X49500D02*
X49427D01*
X48321Y132554D01*
X47329Y131981D01*
X46519Y131171D01*
X45946Y130179D01*
X45650Y129073D01*
Y129000D01*
X49500D01*
Y132850D01*
D02*
G37*
G36*
X54350Y128000D02*
X50500D01*
Y124150D01*
X50573D01*
X51679Y124446D01*
X52671Y125019D01*
X53481Y125829D01*
X54054Y126821D01*
X54350Y127927D01*
Y128000D01*
D02*
G37*
G36*
X49500D02*
X45650D01*
Y127927D01*
X45946Y126821D01*
X46519Y125829D01*
X47329Y125019D01*
X48321Y124446D01*
X49427Y124150D01*
X49500D01*
Y128000D01*
D02*
G37*
G36*
X50573Y122850D02*
X50500D01*
Y119000D01*
X54350D01*
Y119073D01*
X54054Y120179D01*
X53481Y121171D01*
X52671Y121981D01*
X51679Y122554D01*
X50573Y122850D01*
D02*
G37*
G36*
X49500D02*
X49427D01*
X48321Y122554D01*
X47329Y121981D01*
X46519Y121171D01*
X45946Y120179D01*
X45650Y119073D01*
Y119000D01*
X49500D01*
Y122850D01*
D02*
G37*
G36*
X54350Y118000D02*
X50500D01*
Y114150D01*
X50573D01*
X51679Y114446D01*
X52671Y115019D01*
X53481Y115829D01*
X54054Y116821D01*
X54350Y117927D01*
Y118000D01*
D02*
G37*
G36*
X49500D02*
X45650D01*
Y117927D01*
X45946Y116821D01*
X46519Y115829D01*
X47329Y115019D01*
X48321Y114446D01*
X49427Y114150D01*
X49500D01*
Y118000D01*
D02*
G37*
G36*
X199750Y98279D02*
Y93750D01*
X204279D01*
X204250Y93896D01*
X203760Y95079D01*
X203049Y96144D01*
X202144Y97049D01*
X201079Y97760D01*
X199896Y98250D01*
X199750Y98279D01*
D02*
G37*
G36*
X179750D02*
Y93750D01*
X184279D01*
X184250Y93896D01*
X183760Y95079D01*
X183049Y96144D01*
X182143Y97049D01*
X181079Y97760D01*
X179896Y98250D01*
X179750Y98279D01*
D02*
G37*
G36*
X176250D02*
X176104Y98250D01*
X174921Y97760D01*
X173856Y97049D01*
X172951Y96144D01*
X172240Y95079D01*
X171750Y93896D01*
X171721Y93750D01*
X176250D01*
Y98279D01*
D02*
G37*
G36*
X196250D02*
X196104Y98250D01*
X194921Y97760D01*
X193857Y97049D01*
X192951Y96144D01*
X192240Y95079D01*
X191750Y93896D01*
X191721Y93750D01*
X196250D01*
Y98279D01*
D02*
G37*
G36*
X141640Y99000D02*
X140360D01*
X139104Y98750D01*
X137921Y98260D01*
X136856Y97549D01*
X135951Y96644D01*
X135240Y95579D01*
X134750Y94396D01*
X134500Y93140D01*
Y91860D01*
X134750Y90604D01*
X135240Y89421D01*
X135951Y88357D01*
X136856Y87451D01*
X137921Y86740D01*
X139104Y86250D01*
X140360Y86000D01*
X141640D01*
X142896Y86250D01*
X144079Y86740D01*
X145143Y87451D01*
X146049Y88357D01*
X146760Y89421D01*
X147250Y90604D01*
X147500Y91860D01*
Y93140D01*
X147250Y94396D01*
X146760Y95579D01*
X146049Y96644D01*
X145143Y97549D01*
X144079Y98260D01*
X142896Y98750D01*
X141640Y99000D01*
D02*
G37*
G36*
X121640D02*
X120360D01*
X119104Y98750D01*
X117921Y98260D01*
X116857Y97549D01*
X115951Y96644D01*
X115240Y95579D01*
X114750Y94396D01*
X114500Y93140D01*
Y91860D01*
X114750Y90604D01*
X115240Y89421D01*
X115951Y88357D01*
X116857Y87451D01*
X117921Y86740D01*
X119104Y86250D01*
X120360Y86000D01*
X121640D01*
X122896Y86250D01*
X124079Y86740D01*
X125144Y87451D01*
X126049Y88357D01*
X126760Y89421D01*
X127250Y90604D01*
X127500Y91860D01*
Y93140D01*
X127250Y94396D01*
X126760Y95579D01*
X126049Y96644D01*
X125144Y97549D01*
X124079Y98260D01*
X122896Y98750D01*
X121640Y99000D01*
D02*
G37*
G36*
X204279Y90250D02*
X199750D01*
Y85721D01*
X199896Y85750D01*
X201079Y86240D01*
X202144Y86951D01*
X203049Y87857D01*
X203760Y88921D01*
X204250Y90104D01*
X204279Y90250D01*
D02*
G37*
G36*
X184279D02*
X179750D01*
Y85721D01*
X179896Y85750D01*
X181079Y86240D01*
X182143Y86951D01*
X183049Y87857D01*
X183760Y88921D01*
X184250Y90104D01*
X184279Y90250D01*
D02*
G37*
G36*
X176250D02*
X171721D01*
X171750Y90104D01*
X172240Y88921D01*
X172951Y87857D01*
X173856Y86951D01*
X174921Y86240D01*
X176104Y85750D01*
X176250Y85721D01*
Y90250D01*
D02*
G37*
G36*
X196250D02*
X191721D01*
X191750Y90104D01*
X192240Y88921D01*
X192951Y87857D01*
X193857Y86951D01*
X194921Y86240D01*
X196104Y85750D01*
X196250Y85721D01*
Y90250D01*
D02*
G37*
G36*
X199750Y78279D02*
Y73750D01*
X204279D01*
X204250Y73896D01*
X203760Y75079D01*
X203049Y76143D01*
X202144Y77049D01*
X201079Y77760D01*
X199896Y78250D01*
X199750Y78279D01*
D02*
G37*
G36*
X179750D02*
Y73750D01*
X184279D01*
X184250Y73896D01*
X183760Y75079D01*
X183049Y76143D01*
X182143Y77049D01*
X181079Y77760D01*
X179896Y78250D01*
X179750Y78279D01*
D02*
G37*
G36*
X176250D02*
X176104Y78250D01*
X174921Y77760D01*
X173856Y77049D01*
X172951Y76143D01*
X172240Y75079D01*
X171750Y73896D01*
X171721Y73750D01*
X176250D01*
Y78279D01*
D02*
G37*
G36*
X196250D02*
X196104Y78250D01*
X194921Y77760D01*
X193857Y77049D01*
X192951Y76143D01*
X192240Y75079D01*
X191750Y73896D01*
X191721Y73750D01*
X196250D01*
Y78279D01*
D02*
G37*
G36*
X141640Y79000D02*
X140360D01*
X139104Y78750D01*
X137921Y78260D01*
X136856Y77549D01*
X135951Y76644D01*
X135240Y75579D01*
X134750Y74396D01*
X134500Y73140D01*
Y71860D01*
X134750Y70604D01*
X135240Y69421D01*
X135951Y68357D01*
X136856Y67451D01*
X137921Y66740D01*
X139104Y66250D01*
X140360Y66000D01*
X141640D01*
X142896Y66250D01*
X144079Y66740D01*
X145143Y67451D01*
X146049Y68357D01*
X146760Y69421D01*
X147250Y70604D01*
X147500Y71860D01*
Y73140D01*
X147250Y74396D01*
X146760Y75579D01*
X146049Y76644D01*
X145143Y77549D01*
X144079Y78260D01*
X142896Y78750D01*
X141640Y79000D01*
D02*
G37*
G36*
X121640D02*
X120360D01*
X119104Y78750D01*
X117921Y78260D01*
X116857Y77549D01*
X115951Y76644D01*
X115240Y75579D01*
X114750Y74396D01*
X114500Y73140D01*
Y71860D01*
X114750Y70604D01*
X115240Y69421D01*
X115951Y68357D01*
X116857Y67451D01*
X117921Y66740D01*
X119104Y66250D01*
X120360Y66000D01*
X121640D01*
X122896Y66250D01*
X124079Y66740D01*
X125144Y67451D01*
X126049Y68357D01*
X126760Y69421D01*
X127250Y70604D01*
X127500Y71860D01*
Y73140D01*
X127250Y74396D01*
X126760Y75579D01*
X126049Y76644D01*
X125144Y77549D01*
X124079Y78260D01*
X122896Y78750D01*
X121640Y79000D01*
D02*
G37*
G36*
X204279Y70250D02*
X199750D01*
Y65721D01*
X199896Y65750D01*
X201079Y66240D01*
X202144Y66951D01*
X203049Y67857D01*
X203760Y68921D01*
X204250Y70104D01*
X204279Y70250D01*
D02*
G37*
G36*
X184279D02*
X179750D01*
Y65721D01*
X179896Y65750D01*
X181079Y66240D01*
X182143Y66951D01*
X183049Y67857D01*
X183760Y68921D01*
X184250Y70104D01*
X184279Y70250D01*
D02*
G37*
G36*
X176250D02*
X171721D01*
X171750Y70104D01*
X172240Y68921D01*
X172951Y67857D01*
X173856Y66951D01*
X174921Y66240D01*
X176104Y65750D01*
X176250Y65721D01*
Y70250D01*
D02*
G37*
G36*
X196250D02*
X191721D01*
X191750Y70104D01*
X192240Y68921D01*
X192951Y67857D01*
X193857Y66951D01*
X194921Y66240D01*
X196104Y65750D01*
X196250Y65721D01*
Y70250D01*
D02*
G37*
G36*
X336152Y31651D02*
Y23159D01*
X344644D01*
X344535Y23842D01*
X344030Y25398D01*
X343288Y26855D01*
X342326Y28178D01*
X341170Y29334D01*
X339847Y30296D01*
X338390Y31038D01*
X336835Y31543D01*
X336152Y31651D01*
D02*
G37*
G36*
X332652D02*
X331969Y31543D01*
X330413Y31038D01*
X328956Y30296D01*
X327633Y29334D01*
X326477Y28178D01*
X325516Y26855D01*
X324773Y25398D01*
X324268Y23842D01*
X324160Y23159D01*
X332652D01*
Y31651D01*
D02*
G37*
G36*
X237726D02*
Y23159D01*
X246218D01*
X246110Y23842D01*
X245605Y25398D01*
X244863Y26855D01*
X243901Y28178D01*
X242745Y29334D01*
X241422Y30296D01*
X239965Y31038D01*
X238409Y31543D01*
X237726Y31651D01*
D02*
G37*
G36*
X234226D02*
X233543Y31543D01*
X231988Y31038D01*
X230531Y30296D01*
X229208Y29334D01*
X228051Y28178D01*
X227090Y26855D01*
X226348Y25398D01*
X225842Y23842D01*
X225734Y23159D01*
X234226D01*
Y31651D01*
D02*
G37*
G36*
X307587Y31455D02*
X306414D01*
X305280Y31151D01*
X304265Y30565D01*
X303435Y29735D01*
X302849Y28719D01*
X302545Y27586D01*
Y26414D01*
X302849Y25280D01*
X303435Y24265D01*
X304265Y23435D01*
X305280Y22849D01*
X306414Y22545D01*
X307587D01*
X308719Y22849D01*
X309735Y23435D01*
X310565Y24265D01*
X311151Y25280D01*
X311455Y26414D01*
Y27586D01*
X311151Y28719D01*
X310565Y29735D01*
X309735Y30565D01*
X308719Y31151D01*
X307587Y31455D01*
D02*
G37*
G36*
X296681D02*
X295508D01*
X294375Y31151D01*
X293359Y30565D01*
X292530Y29735D01*
X291943Y28719D01*
X291640Y27586D01*
Y26414D01*
X291943Y25280D01*
X292530Y24265D01*
X293359Y23435D01*
X294375Y22849D01*
X295508Y22545D01*
X296681D01*
X297814Y22849D01*
X298830Y23435D01*
X299659Y24265D01*
X300246Y25280D01*
X300549Y26414D01*
Y27586D01*
X300246Y28719D01*
X299659Y29735D01*
X298830Y30565D01*
X297814Y31151D01*
X296681Y31455D01*
D02*
G37*
G36*
X285775D02*
X284602D01*
X283470Y31151D01*
X282454Y30565D01*
X281624Y29735D01*
X281038Y28719D01*
X280734Y27586D01*
Y26414D01*
X281038Y25280D01*
X281624Y24265D01*
X282454Y23435D01*
X283470Y22849D01*
X284602Y22545D01*
X285775D01*
X286908Y22849D01*
X287924Y23435D01*
X288754Y24265D01*
X289340Y25280D01*
X289644Y26414D01*
Y27586D01*
X289340Y28719D01*
X288754Y29735D01*
X287924Y30565D01*
X286908Y31151D01*
X285775Y31455D01*
D02*
G37*
G36*
X274870D02*
X273697D01*
X272564Y31151D01*
X271548Y30565D01*
X270719Y29735D01*
X270132Y28719D01*
X269829Y27586D01*
Y26414D01*
X270132Y25280D01*
X270719Y24265D01*
X271548Y23435D01*
X272564Y22849D01*
X273697Y22545D01*
X274870D01*
X276003Y22849D01*
X277019Y23435D01*
X277848Y24265D01*
X278435Y25280D01*
X278738Y26414D01*
Y27586D01*
X278435Y28719D01*
X277848Y29735D01*
X277019Y30565D01*
X276003Y31151D01*
X274870Y31455D01*
D02*
G37*
G36*
X263964D02*
X262791D01*
X261659Y31151D01*
X260643Y30565D01*
X259813Y29735D01*
X259227Y28719D01*
X258923Y27586D01*
Y26414D01*
X259227Y25280D01*
X259813Y24265D01*
X260643Y23435D01*
X261659Y22849D01*
X262791Y22545D01*
X263964D01*
X265097Y22849D01*
X266113Y23435D01*
X266943Y24265D01*
X267529Y25280D01*
X267833Y26414D01*
Y27586D01*
X267529Y28719D01*
X266943Y29735D01*
X266113Y30565D01*
X265097Y31151D01*
X263964Y31455D01*
D02*
G37*
G36*
X280736Y20163D02*
Y16819D01*
X284080D01*
X283887Y17538D01*
X283301Y18554D01*
X282471Y19384D01*
X281456Y19970D01*
X280736Y20163D01*
D02*
G37*
G36*
X278736D02*
X278017Y19970D01*
X277001Y19384D01*
X276172Y18554D01*
X275585Y17538D01*
X275392Y16819D01*
X278736D01*
Y20163D01*
D02*
G37*
G36*
X269831D02*
Y16819D01*
X273175D01*
X272982Y17538D01*
X272395Y18554D01*
X271566Y19384D01*
X270550Y19970D01*
X269831Y20163D01*
D02*
G37*
G36*
X267831D02*
X267111Y19970D01*
X266095Y19384D01*
X265266Y18554D01*
X264680Y17538D01*
X264487Y16819D01*
X267831D01*
Y20163D01*
D02*
G37*
G36*
X284080Y14819D02*
X280736D01*
Y11475D01*
X281456Y11668D01*
X282471Y12254D01*
X283301Y13084D01*
X283887Y14099D01*
X284080Y14819D01*
D02*
G37*
G36*
X278736D02*
X275392D01*
X275585Y14099D01*
X276172Y13084D01*
X277001Y12254D01*
X278017Y11668D01*
X278736Y11475D01*
Y14819D01*
D02*
G37*
G36*
X273175D02*
X269831D01*
Y11475D01*
X270550Y11668D01*
X271566Y12254D01*
X272395Y13084D01*
X272982Y14099D01*
X273175Y14819D01*
D02*
G37*
G36*
X267831D02*
X264487D01*
X264680Y14099D01*
X265266Y13084D01*
X266095Y12254D01*
X267111Y11668D01*
X267831Y11475D01*
Y14819D01*
D02*
G37*
G36*
X302134Y20274D02*
X300961D01*
X299828Y19970D01*
X298812Y19384D01*
X297983Y18554D01*
X297396Y17538D01*
X297093Y16405D01*
Y15232D01*
X297396Y14099D01*
X297983Y13084D01*
X298812Y12254D01*
X299828Y11668D01*
X300961Y11364D01*
X302134D01*
X303267Y11668D01*
X304282Y12254D01*
X305112Y13084D01*
X305698Y14099D01*
X306002Y15232D01*
Y16405D01*
X305698Y17538D01*
X305112Y18554D01*
X304282Y19384D01*
X303267Y19970D01*
X302134Y20274D01*
D02*
G37*
G36*
X291228D02*
X290055D01*
X288922Y19970D01*
X287907Y19384D01*
X287077Y18554D01*
X286491Y17538D01*
X286187Y16405D01*
Y15232D01*
X286491Y14099D01*
X287077Y13084D01*
X287907Y12254D01*
X288922Y11668D01*
X290055Y11364D01*
X291228D01*
X292361Y11668D01*
X293377Y12254D01*
X294206Y13084D01*
X294793Y14099D01*
X295096Y15232D01*
Y16405D01*
X294793Y17538D01*
X294206Y18554D01*
X293377Y19384D01*
X292361Y19970D01*
X291228Y20274D01*
D02*
G37*
G36*
X344644Y19659D02*
X336152D01*
Y11167D01*
X336835Y11276D01*
X338390Y11781D01*
X339847Y12523D01*
X341170Y13485D01*
X342326Y14641D01*
X343288Y15964D01*
X344030Y17421D01*
X344535Y18977D01*
X344644Y19659D01*
D02*
G37*
G36*
X332652D02*
X324160D01*
X324268Y18977D01*
X324773Y17421D01*
X325516Y15964D01*
X326477Y14641D01*
X327633Y13485D01*
X328956Y12523D01*
X330413Y11781D01*
X331969Y11276D01*
X332652Y11167D01*
Y19659D01*
D02*
G37*
G36*
X246218D02*
X237726D01*
Y11167D01*
X238409Y11276D01*
X239965Y11781D01*
X241422Y12523D01*
X242745Y13485D01*
X243901Y14641D01*
X244863Y15964D01*
X245605Y17421D01*
X246110Y18977D01*
X246218Y19659D01*
D02*
G37*
G36*
X234226D02*
X225734D01*
X225842Y18977D01*
X226348Y17421D01*
X227090Y15964D01*
X228051Y14641D01*
X229208Y13485D01*
X230531Y12523D01*
X231988Y11781D01*
X233543Y11276D01*
X234226Y11167D01*
Y19659D01*
D02*
G37*
%LPD*%
D11*
X173000Y278299D02*
X173299Y278000D01*
D12*
X380000Y61750D02*
Y224250D01*
Y325000D01*
Y0D02*
Y61750D01*
X-0Y325000D02*
X0Y0D01*
X-0Y325000D02*
X380000D01*
X0Y0D02*
X380000D01*
D26*
X213000Y199500D02*
D03*
X298000D02*
D03*
D27*
X258000Y227000D02*
D03*
D28*
X288000D02*
D03*
D30*
X50000Y118500D02*
D03*
Y128500D02*
D03*
Y138500D02*
D03*
Y148500D02*
D03*
Y158500D02*
D03*
Y168500D02*
D03*
Y178500D02*
D03*
Y188500D02*
D03*
D41*
X173299Y278000D02*
X197000D01*
X106000Y235500D02*
Y249500D01*
X98500Y141000D02*
Y197500D01*
D45*
X262500Y274000D02*
D03*
X324000Y191000D02*
D03*
X122500Y269500D02*
D03*
X110000Y310500D02*
D03*
X68000Y277000D02*
D03*
X162000Y236000D02*
D03*
D46*
X105874Y277000D02*
D03*
X90126D02*
D03*
X66500Y242500D02*
D03*
Y226752D02*
D03*
D47*
X81441Y226500D02*
D03*
X136559D02*
D03*
X56941Y296500D02*
D03*
X112059D02*
D03*
X234000Y267059D02*
D03*
Y211941D02*
D03*
D48*
X173000Y278299D02*
D03*
D49*
X163000D02*
D03*
X153000D02*
D03*
D50*
X39500Y232500D02*
D03*
X39000Y292500D02*
D03*
D51*
X39500Y242500D02*
D03*
Y252500D02*
D03*
X39000Y302500D02*
D03*
Y312500D02*
D03*
D52*
X141000Y72500D02*
D03*
X121000D02*
D03*
X141000Y92500D02*
D03*
X121000D02*
D03*
X198000Y72000D02*
D03*
X178000D02*
D03*
X198000Y92000D02*
D03*
X178000D02*
D03*
D53*
X307000Y27000D02*
D03*
X296094D02*
D03*
X285189D02*
D03*
X274284D02*
D03*
X263378D02*
D03*
X301547Y15819D02*
D03*
X290642D02*
D03*
X279736D02*
D03*
X268831D02*
D03*
D54*
X235976Y21409D02*
D03*
X334402D02*
D03*
D55*
X197000Y278000D02*
D03*
X106000Y235500D02*
D03*
Y249500D02*
D03*
X304500Y273000D02*
D03*
X246000Y255500D02*
D03*
X98500Y141000D02*
D03*
Y197500D02*
D03*
D56*
X12000Y313000D02*
D03*
X368000Y12000D02*
D03*
Y313000D02*
D03*
X12000Y12000D02*
D03*
D57*
X173500Y307015D02*
D03*
X153000Y307000D02*
D03*
M02*
