G04*
G04 #@! TF.GenerationSoftware,Altium Limited,Altium Designer,21.7.2 (23)*
G04*
G04 Layer_Physical_Order=1*
G04 Layer_Color=255*
%FSLAX25Y25*%
%MOIN*%
G70*
G04*
G04 #@! TF.SameCoordinates,983130B8-92BF-46AA-B9C2-0BED91E800B6*
G04*
G04*
G04 #@! TF.FilePolarity,Positive*
G04*
G01*
G75*
%ADD11C,0.01000*%
%ADD12C,0.02000*%
%ADD16R,0.07165X0.04134*%
%ADD17R,0.03543X0.00984*%
%ADD18R,0.00984X0.05118*%
%ADD19R,0.00984X0.03543*%
%ADD26C,0.05200*%
%ADD27R,0.04900X0.04900*%
%ADD28C,0.04900*%
%ADD30C,0.06700*%
%ADD40R,0.01968X0.01968*%
%ADD41C,0.03500*%
%ADD42C,0.03000*%
%ADD43C,0.00300*%
%ADD44C,0.02500*%
%ADD45C,0.05906*%
%ADD46C,0.06799*%
%ADD47C,0.06000*%
%ADD48R,0.05937X0.05937*%
%ADD49C,0.05937*%
%ADD50R,0.06201X0.06201*%
%ADD51C,0.06201*%
%ADD52C,0.11000*%
%ADD53C,0.06909*%
%ADD54C,0.18779*%
%ADD55C,0.03500*%
%ADD56C,0.10500*%
%ADD57C,0.02500*%
G36*
X272153Y239531D02*
Y234413D01*
X271169D01*
Y236382D01*
X269004D01*
Y234413D01*
X268020D01*
Y236382D01*
X265854D01*
Y234413D01*
X264870D01*
Y239531D01*
X272153D01*
D02*
G37*
G36*
X265854Y248587D02*
Y246618D01*
X268020D01*
Y248587D01*
X269004D01*
Y246618D01*
X271169D01*
Y248587D01*
X272153D01*
Y243468D01*
X264870D01*
Y248587D01*
X265854D01*
D02*
G37*
D11*
X256307Y246107D02*
G03*
X256598Y245402I1000J0D01*
G01*
X262205Y239381D02*
G03*
X261913Y240087I-1000J0D01*
G01*
X258283Y227000D02*
Y236177D01*
X234000Y211941D02*
X256117Y234058D01*
Y235452D01*
X248016Y237028D02*
X249583Y238595D01*
X246500Y237028D02*
X248016D01*
X250476Y240811D02*
X253748D01*
X249583Y239917D02*
X250476Y240811D01*
X249583Y238595D02*
Y239917D01*
X256598Y245402D02*
X261913Y240087D01*
X262205Y236980D02*
Y239381D01*
X256307Y246107D02*
Y246815D01*
X262205Y236980D02*
X262213Y236972D01*
X258276Y236185D02*
X258283Y236177D01*
X66500Y226752D02*
X66626Y226626D01*
X81315D02*
X81441Y226500D01*
X233941Y212000D02*
X234000Y211941D01*
X256307Y236185D02*
Y237449D01*
X254339Y246815D02*
X256307D01*
X246500Y247972D02*
X247657Y246815D01*
X254339D01*
D12*
X200500Y150500D02*
X281000D01*
X172500Y178500D02*
X200500Y150500D01*
X281000D02*
X296094Y135406D01*
X157000Y158500D02*
X186500Y129000D01*
X50000Y158500D02*
X157000D01*
X186500Y129000D02*
X267500D01*
X165000Y168500D02*
X193500Y140000D01*
X277500D01*
X50000Y168500D02*
X165000D01*
X277500Y140000D02*
X284713Y132787D01*
X267500Y129000D02*
X273807Y122693D01*
X296094Y27000D02*
Y135406D01*
X284713Y27476D02*
Y132787D01*
X257000Y117500D02*
X263500Y111000D01*
X181000Y117500D02*
X257000D01*
X150000Y148500D02*
X181000Y117500D01*
X50000Y148500D02*
X150000D01*
X273807Y27476D02*
Y122693D01*
X263500Y27122D02*
Y111000D01*
X263378Y27000D02*
X263500Y27122D01*
X273807Y27476D02*
X274284Y27000D01*
X284713Y27476D02*
X285189Y27000D01*
X154201Y269500D02*
X163000Y278299D01*
X122500Y269500D02*
X154201D01*
X50000Y178500D02*
X172500D01*
X108673Y310500D02*
X110000D01*
X380000Y61750D02*
Y224250D01*
Y325000D01*
Y0D02*
Y61750D01*
X-0Y325000D02*
X0Y0D01*
X-0Y325000D02*
X380000D01*
X0Y0D02*
X380000D01*
D16*
X295500Y256972D02*
D03*
Y246028D02*
D03*
X246500Y247972D02*
D03*
Y237028D02*
D03*
X278000Y246028D02*
D03*
Y256972D02*
D03*
X173500Y290528D02*
D03*
Y301472D02*
D03*
X153000Y290528D02*
D03*
Y301472D02*
D03*
X286500Y246028D02*
D03*
Y256972D02*
D03*
X304500Y246028D02*
D03*
Y256972D02*
D03*
D17*
X253748Y240811D02*
D03*
D18*
X262213Y246028D02*
D03*
Y236972D02*
D03*
D19*
X260244Y246815D02*
D03*
X256307D02*
D03*
X254339D02*
D03*
X260244Y236185D02*
D03*
X258276D02*
D03*
X256307D02*
D03*
X254339D02*
D03*
D26*
X213000Y199500D02*
D03*
X298000D02*
D03*
D27*
X258000Y227000D02*
D03*
D28*
X288000D02*
D03*
D30*
X50000Y118500D02*
D03*
Y128500D02*
D03*
Y138500D02*
D03*
Y148500D02*
D03*
Y158500D02*
D03*
Y168500D02*
D03*
Y178500D02*
D03*
Y188500D02*
D03*
D40*
X268512Y237957D02*
D03*
Y245043D02*
D03*
D41*
X315500Y22000D02*
Y154000D01*
X297000Y172500D02*
X315500Y154000D01*
X217000Y172500D02*
X297000D01*
X50081Y138419D02*
X55081D01*
X70500Y98000D02*
Y123000D01*
X50000Y138500D02*
X50081Y138419D01*
X55081D02*
X70500Y123000D01*
X304486Y246014D02*
X304500Y246000D01*
X162000Y236000D02*
Y267299D01*
X173000Y278299D01*
X197000Y278000D02*
X207941Y267059D01*
X234000D01*
X66500Y242500D02*
X149500D01*
X51000D02*
X66500D01*
X239000Y241837D02*
X243493Y237345D01*
X236720Y265809D02*
X239000Y263529D01*
Y241837D02*
Y263529D01*
X246183Y237345D02*
X246500Y237028D01*
X243493Y237345D02*
X246183D01*
X235927Y265809D02*
X236720D01*
X234677Y267059D02*
X235927Y265809D01*
X234000Y267059D02*
X234677D01*
X274117Y245043D02*
X274784Y245711D01*
X268512Y245043D02*
X274117D01*
X274784Y245711D02*
X277683D01*
X278000Y246028D01*
X65797Y278203D02*
X66146D01*
X67349Y277000D01*
X90126D01*
X39517Y301983D02*
X42017D01*
X65797Y278203D01*
X39000Y302500D02*
X39517Y301983D01*
X334500Y49500D02*
Y154500D01*
Y49500D02*
X350500Y33500D01*
X324000Y165000D02*
X334500Y154500D01*
X350500Y10500D02*
Y33500D01*
X347000Y7000D02*
X350500Y10500D01*
X299000Y7000D02*
X347000D01*
X307000Y27000D02*
Y138500D01*
X283500Y162000D02*
X307000Y138500D01*
X179000Y189000D02*
X206000Y162000D01*
X283500D01*
X152500Y189000D02*
X179000D01*
X106000Y235500D02*
X152500Y189000D01*
X90126Y265374D02*
Y277000D01*
Y265374D02*
X106000Y249500D01*
X190500Y199000D02*
X217000Y172500D01*
X190500Y199000D02*
Y293450D01*
X278000Y246028D02*
X286500D01*
X324000Y165000D02*
Y191000D01*
X288000Y227000D02*
Y245711D01*
X286500Y246028D02*
X287683D01*
X288000Y245711D01*
Y227000D02*
X324000Y191000D01*
X153066Y290051D02*
X154465Y291450D01*
X158500Y295500D02*
X188450D01*
X190500Y293450D01*
X112059Y283185D02*
Y296500D01*
X105874Y277000D02*
X112059Y283185D01*
X28500Y285500D02*
X51000Y263000D01*
X28500Y310000D02*
X30650Y312150D01*
X28500Y285500D02*
Y310000D01*
X39500Y242500D02*
X51000D01*
X38650Y312150D02*
X39000Y312500D01*
X30650Y312150D02*
X38650D01*
X51000Y242500D02*
Y263000D01*
X66626Y226626D02*
X81315D01*
X156000Y236000D02*
X162000D01*
X149500Y242500D02*
X156000Y236000D01*
X70500Y98000D02*
X161500Y7000D01*
X304500Y256972D02*
Y273000D01*
X287683Y246028D02*
X295500D01*
X246000Y248289D02*
X246317Y247972D01*
X246000Y248289D02*
Y255500D01*
X246317Y247972D02*
X246500D01*
X295500Y256972D02*
X304500D01*
X286500D02*
X295500D01*
X278000D02*
X286500D01*
X295514Y246014D02*
X304486D01*
X295500Y246028D02*
X295514Y246014D01*
X98500Y141000D02*
X121000Y118500D01*
Y92500D02*
Y118500D01*
X161500Y7000D02*
X299000D01*
X290642Y15358D02*
Y15819D01*
Y15358D02*
X299000Y7000D01*
X122000Y71500D02*
X141000D01*
X301547Y15819D02*
X309319D01*
X315500Y22000D01*
X154465Y291465D02*
X158500Y295500D01*
X153000Y278299D02*
Y289985D01*
X154465Y291450D02*
Y291465D01*
X110000Y310500D02*
X133045D01*
X152446Y291099D01*
X173000Y278299D02*
X173500Y278799D01*
Y289985D01*
X121000Y72500D02*
Y92500D01*
X141000Y72500D02*
Y92500D01*
X78500Y217500D02*
X98500Y197500D01*
X35500Y217500D02*
X78500D01*
X28500Y224500D02*
X35500Y217500D01*
X28500Y224500D02*
Y247500D01*
X33500Y252500D02*
X39500D01*
X28500Y247500D02*
X33500Y252500D01*
D42*
X285500Y199500D02*
X298000D01*
X258000Y227000D02*
X285500Y199500D01*
D43*
X256307Y237449D02*
X256500Y237642D01*
D44*
X173500Y302015D02*
Y307015D01*
X153000Y302015D02*
Y307000D01*
D45*
X262500Y274000D02*
D03*
X324000Y191000D02*
D03*
X122500Y269500D02*
D03*
X110000Y310500D02*
D03*
X68000Y277000D02*
D03*
X162000Y236000D02*
D03*
D46*
X105874Y277000D02*
D03*
X90126D02*
D03*
X66500Y242500D02*
D03*
Y226752D02*
D03*
D47*
X81441Y226500D02*
D03*
X136559D02*
D03*
X56941Y296500D02*
D03*
X112059D02*
D03*
X234000Y267059D02*
D03*
Y211941D02*
D03*
D48*
X173000Y278299D02*
D03*
D49*
X163000D02*
D03*
X153000D02*
D03*
D50*
X39500Y232500D02*
D03*
X39000Y292500D02*
D03*
D51*
X39500Y242500D02*
D03*
Y252500D02*
D03*
X39000Y302500D02*
D03*
Y312500D02*
D03*
D52*
X141000Y72500D02*
D03*
X121000D02*
D03*
X141000Y92500D02*
D03*
X121000D02*
D03*
X198000Y72000D02*
D03*
X178000D02*
D03*
X198000Y92000D02*
D03*
X178000D02*
D03*
D53*
X307000Y27000D02*
D03*
X296094D02*
D03*
X285189D02*
D03*
X274284D02*
D03*
X263378D02*
D03*
X301547Y15819D02*
D03*
X290642D02*
D03*
X279736D02*
D03*
X268831D02*
D03*
D54*
X235976Y21409D02*
D03*
X334402D02*
D03*
D55*
X197000Y278000D02*
D03*
X106000Y235500D02*
D03*
Y249500D02*
D03*
X304500Y273000D02*
D03*
X246000Y255500D02*
D03*
X98500Y141000D02*
D03*
Y197500D02*
D03*
D56*
X12000Y313000D02*
D03*
X368000Y12000D02*
D03*
Y313000D02*
D03*
X12000Y12000D02*
D03*
D57*
X173500Y307015D02*
D03*
X153000Y307000D02*
D03*
M02*
