G04*
G04 #@! TF.GenerationSoftware,Altium Limited,Altium Designer,21.7.2 (23)*
G04*
G04 Layer_Color=8388736*
%FSLAX25Y25*%
%MOIN*%
G70*
G04*
G04 #@! TF.SameCoordinates,983130B8-92BF-46AA-B9C2-0BED91E800B6*
G04*
G04*
G04 #@! TF.FilePolarity,Negative*
G04*
G01*
G75*
%ADD20R,0.07965X0.04934*%
%ADD21R,0.04343X0.01784*%
%ADD22R,0.01784X0.05918*%
%ADD23R,0.01784X0.04343*%
%ADD24C,0.06706*%
%ADD25C,0.07599*%
%ADD26C,0.05200*%
%ADD27R,0.04900X0.04900*%
%ADD28C,0.04900*%
%ADD29C,0.06800*%
%ADD30C,0.06700*%
%ADD31R,0.06737X0.06737*%
%ADD32C,0.06737*%
%ADD33R,0.07001X0.07001*%
%ADD34C,0.07001*%
%ADD35C,0.11800*%
%ADD36C,0.07709*%
%ADD37C,0.19580*%
%ADD38C,0.11300*%
%ADD39C,0.04300*%
G36*
X272547Y239925D02*
Y234020D01*
X270776D01*
Y235988D01*
X269398D01*
Y234020D01*
X267626D01*
Y235988D01*
X266248D01*
Y234020D01*
X264476D01*
Y239925D01*
X272547D01*
D02*
G37*
G36*
X266248Y248980D02*
Y247012D01*
X267626D01*
Y248980D01*
X269398D01*
Y247012D01*
X270776D01*
Y248980D01*
X272547D01*
Y243075D01*
X264476D01*
Y248980D01*
X266248D01*
D02*
G37*
D20*
X295500Y256972D02*
D03*
Y246028D02*
D03*
X246500Y247972D02*
D03*
Y237028D02*
D03*
X278000Y246028D02*
D03*
Y256972D02*
D03*
X173500Y290528D02*
D03*
Y301472D02*
D03*
X153000Y290528D02*
D03*
Y301472D02*
D03*
X286500Y246028D02*
D03*
Y256972D02*
D03*
X304500Y246028D02*
D03*
Y256972D02*
D03*
D21*
X253748Y240811D02*
D03*
D22*
X262213Y246028D02*
D03*
Y236972D02*
D03*
D23*
X260244Y246815D02*
D03*
X256307D02*
D03*
X254339D02*
D03*
X260244Y236185D02*
D03*
X258276D02*
D03*
X256307D02*
D03*
X254339D02*
D03*
D24*
X262500Y274000D02*
D03*
X324000Y191000D02*
D03*
X122500Y269500D02*
D03*
X110000Y310500D02*
D03*
X68000Y277000D02*
D03*
X162000Y236000D02*
D03*
D25*
X105874Y277000D02*
D03*
X90126D02*
D03*
X66500Y242500D02*
D03*
Y226752D02*
D03*
D26*
X213000Y199500D02*
D03*
X298000D02*
D03*
D27*
X258000Y227000D02*
D03*
D28*
X288000D02*
D03*
D29*
X81441Y226500D02*
D03*
X136559D02*
D03*
X56941Y296500D02*
D03*
X112059D02*
D03*
X234000Y267059D02*
D03*
Y211941D02*
D03*
D30*
X50000Y118500D02*
D03*
Y128500D02*
D03*
Y138500D02*
D03*
Y148500D02*
D03*
Y158500D02*
D03*
Y168500D02*
D03*
Y178500D02*
D03*
Y188500D02*
D03*
D31*
X173000Y278299D02*
D03*
D32*
X163000D02*
D03*
X153000D02*
D03*
D33*
X39500Y232500D02*
D03*
X39000Y292500D02*
D03*
D34*
X39500Y242500D02*
D03*
Y252500D02*
D03*
X39000Y302500D02*
D03*
Y312500D02*
D03*
D35*
X141000Y72500D02*
D03*
X121000D02*
D03*
X141000Y92500D02*
D03*
X121000D02*
D03*
X198000Y72000D02*
D03*
X178000D02*
D03*
X198000Y92000D02*
D03*
X178000D02*
D03*
D36*
X307000Y27000D02*
D03*
X296094D02*
D03*
X285189D02*
D03*
X274284D02*
D03*
X263378D02*
D03*
X301547Y15819D02*
D03*
X290642D02*
D03*
X279736D02*
D03*
X268831D02*
D03*
D37*
X235976Y21409D02*
D03*
X334402D02*
D03*
D38*
X12000Y313000D02*
D03*
X368000Y12000D02*
D03*
Y313000D02*
D03*
X12000Y12000D02*
D03*
D39*
X304500Y273000D02*
D03*
X246000Y255500D02*
D03*
M02*
