M48
;Layer_Color=9474304
;FILE_FORMAT=2:5
INCH,TZ
;TYPE=PLATED
T1F00S00C0.01400
T2F00S00C0.01800
T3F00S00C0.02756
T4F00S00C0.02953
T5F00S00C0.02968
T6F00S00C0.03417
T7F00S00C0.03500
T8F00S00C0.03543
T9F00S00C0.03800
T10F00S00C0.03937
T11F00S00C0.04134
T12F00S00C0.04400
T13F00S00C0.04606
T14F00S00C0.04700
T15F00S00C0.05197
T16F00S00C0.06200
T17F00S00C0.07700
T18F00S00C0.12520
%
T01
X327500Y209500
X159000Y307015
X138500Y307000
X338500Y242500
T02
X301000Y126500
X300750Y155250
X84000Y141000
Y197500
T03
X264315Y206000
X284000
X297000Y249500
Y257374
T04
X305000Y173815
Y193500
T05
X48594Y12500
X60405
T06
X48500Y26441
X352000Y29441
Y84559
X48500Y81559
X42441Y296500
X97559
X91941Y242000
X147059
X222441Y249000
X277559
T07
X275776Y189500
X185224
T08
X395500Y38300
X405500
T09
X352126Y15000
X367874
X52126Y242000
X67874
T10
X384500Y125000
X23500Y81000
X53500Y277000
X95500Y310500
X138500Y278299
X148500
X158500
X158000Y213000
T11
X25000Y232500
Y242500
Y252500
X24500Y292500
Y302500
Y312500
T12
X369500Y211453
Y255547
T13
X252594Y68000
X263500
X274406
X285311
X279858Y79181
X290764
X268953
X258047
X247142
T14
X35500Y118500
Y128500
Y138500
Y148500
Y158500
Y168500
Y178500
Y188500
T15
X298000Y209461
Y219500
Y229539
T16
X393949Y189500
X325051
X204602Y228000
X273500
T17
X106500Y92500
Y112500
X126500
Y92500
X163500Y92000
X183500
Y112000
X163500
T18
X219740Y73590
X318165
M30
