G04*
G04 #@! TF.GenerationSoftware,Altium Limited,Altium Designer,21.6.4 (81)*
G04*
G04 Layer_Physical_Order=1*
G04 Layer_Color=255*
%FSLAX25Y25*%
%MOIN*%
G70*
G04*
G04 #@! TF.SameCoordinates,4CA0FBB6-7D73-4BA8-9560-2460E3BCD6C6*
G04*
G04*
G04 #@! TF.FilePolarity,Positive*
G04*
G01*
G75*
%ADD10C,0.02000*%
%ADD17R,0.06299X0.03369*%
%ADD18R,0.04567X0.05787*%
%ADD19R,0.09724X0.24882*%
%ADD20R,0.07087X0.04724*%
%ADD21R,0.06693X0.04528*%
%ADD26C,0.06700*%
%ADD48C,0.03500*%
%ADD49C,0.02500*%
%ADD50C,0.03000*%
%ADD51C,0.05000*%
%ADD52R,0.05000X0.05000*%
%ADD53R,0.05937X0.05937*%
%ADD54C,0.05937*%
%ADD55C,0.06799*%
%ADD56R,0.04331X0.04331*%
%ADD57C,0.04331*%
%ADD58C,0.09000*%
%ADD59C,0.06000*%
%ADD60C,0.04724*%
%ADD61R,0.06201X0.06201*%
%ADD62C,0.06201*%
%ADD63C,0.11000*%
%ADD64C,0.06909*%
%ADD65C,0.18779*%
%ADD66C,0.07795*%
%ADD67R,0.07795X0.07795*%
%ADD68C,0.07000*%
%ADD69R,0.04921X0.04921*%
%ADD70C,0.04921*%
%ADD71C,0.05906*%
%ADD72C,0.02500*%
%ADD73C,0.03500*%
D10*
X290764Y79181D02*
Y144736D01*
X278500Y157000D02*
X290764Y144736D01*
X280473Y79796D02*
Y139527D01*
X268000Y152000D02*
X280473Y139527D01*
X184500Y152000D02*
X268000D01*
X171000Y138500D02*
X251500D01*
X151000Y158500D02*
X171000Y138500D01*
X35500Y158500D02*
X151000D01*
X157500Y133500D02*
X238500D01*
X35500Y148500D02*
X142500D01*
X157500Y133500D01*
X178000Y144500D02*
X262000D01*
X35500Y168500D02*
X154000D01*
X178000Y144500D01*
X35500Y178500D02*
X158000D01*
X184500Y152000D01*
X296539Y231000D02*
X298000Y229539D01*
X284500Y231000D02*
X296539D01*
X298000Y229539D02*
Y248500D01*
X195000Y157000D02*
X278500D01*
X247142Y79181D02*
Y124858D01*
X238500Y133500D02*
X247142Y124858D01*
X257773Y79456D02*
Y132227D01*
Y79456D02*
X258047Y79181D01*
X251500Y138500D02*
X257773Y132227D01*
X268953Y79181D02*
Y137547D01*
X262000Y144500D02*
X268953Y137547D01*
X279858Y79181D02*
X280473Y79796D01*
X53500Y277000D02*
Y285441D01*
X42441Y296500D02*
X53500Y285441D01*
X24500Y302500D02*
X36441D01*
X42441Y296500D01*
X352000Y29441D02*
X352063Y29378D01*
Y15063D02*
Y29378D01*
Y15063D02*
X352126Y15000D01*
X395000Y51000D02*
X395500Y50500D01*
Y38300D02*
Y50500D01*
X217102Y240500D02*
X269059D01*
X204602Y228000D02*
X217102Y240500D01*
X269059D02*
X277559Y249000D01*
X295335D01*
X297000Y249500D01*
X305000Y193500D02*
X325051Y189500D01*
X275776D02*
X284000Y206000D01*
X298000Y209461D02*
X315500Y209500D01*
X298000Y209461D02*
X305000Y193500D01*
X284000Y206000D02*
X298000Y209461D01*
X297000Y249500D02*
X298000Y248500D01*
X94173Y310500D02*
X95500D01*
X15000Y302500D02*
X24500D01*
X7500Y295000D02*
X15000Y302500D01*
X7500Y149000D02*
Y295000D01*
X18000Y138500D02*
X35500D01*
X7500Y149000D02*
X18000Y138500D01*
X29500Y128500D02*
X35500D01*
X24000Y81500D02*
Y123000D01*
X29500Y128500D01*
X23779Y81279D02*
X24000Y81500D01*
X23779Y81279D02*
X48221D01*
X48500Y81559D01*
X23500Y81000D02*
X23779Y81279D01*
X163500Y188500D02*
X195000Y157000D01*
X35500Y188500D02*
X163500D01*
X48547Y12547D02*
X48594Y12500D01*
X48500Y26441D02*
X48547Y26394D01*
Y12547D02*
Y26394D01*
X351923Y29518D02*
X352000Y29441D01*
X425000Y0D02*
Y325000D01*
X0D02*
X425000D01*
X0Y0D02*
Y325000D01*
Y0D02*
X425000D01*
D17*
X138500Y289985D02*
D03*
Y302015D02*
D03*
X159000Y289985D02*
D03*
Y302015D02*
D03*
D18*
X315000Y209500D02*
D03*
X321929D02*
D03*
D19*
X338811Y227500D02*
D03*
X317000D02*
D03*
D20*
X395000Y62811D02*
D03*
Y51000D02*
D03*
D21*
X284500Y219500D02*
D03*
Y231311D02*
D03*
D26*
X35500Y118500D02*
D03*
Y128500D02*
D03*
Y188500D02*
D03*
Y178500D02*
D03*
Y168500D02*
D03*
Y158500D02*
D03*
Y148500D02*
D03*
Y138500D02*
D03*
D48*
X179000Y295500D02*
X184000Y290500D01*
X144000Y295500D02*
X179000D01*
X139965Y291465D02*
X144000Y295500D01*
X138500Y278299D02*
Y289985D01*
X138566Y290051D02*
X139965Y291450D01*
Y291465D01*
X95500Y310500D02*
X118545D01*
X137946Y291099D01*
X158500Y278299D02*
X159000Y278799D01*
Y289985D01*
X147059Y266858D02*
X158981Y278780D01*
X316925Y224047D02*
X317000Y226500D01*
X294500Y68000D02*
X301000Y74500D01*
Y126500D01*
X304732Y219528D02*
X312153Y219559D01*
X298000Y219500D02*
X304732Y219528D01*
X312153Y219559D02*
X316925Y224047D01*
X106500Y92500D02*
Y112500D01*
X105429Y113571D02*
Y119571D01*
X84000Y141000D02*
X105429Y119571D01*
X106500Y92500D02*
X126500D01*
Y112500D01*
X64000Y217500D02*
X84000Y197500D01*
X21000Y217500D02*
X64000D01*
X14000Y224500D02*
X21000Y217500D01*
X14000Y224500D02*
Y247500D01*
X19000Y252500D02*
X25000D01*
X14000Y247500D02*
X19000Y252500D01*
X285311Y68000D02*
X294500D01*
X213500Y172500D02*
X283500D01*
X201500Y184500D02*
X213500Y172500D01*
X283500D02*
X300750Y155250D01*
X352000Y84559D02*
Y91500D01*
X280000Y163500D02*
X352000Y91500D01*
X202000Y163500D02*
X280000D01*
X201500Y184500D02*
Y208500D01*
X184000Y226000D02*
X201500Y208500D01*
X184000Y226000D02*
Y290500D01*
X185224Y180276D02*
X202000Y163500D01*
X185224Y180276D02*
Y189500D01*
X162453Y212272D02*
X185224Y189500D01*
X158728Y212272D02*
X162453D01*
X158000Y213000D02*
X158728Y212272D01*
X370130Y72130D02*
X384500D01*
X343500Y45500D02*
X370130Y72130D01*
X244000Y45500D02*
X343500D01*
X238500Y51000D02*
X244000Y45500D01*
X238500Y51000D02*
Y70539D01*
X247142Y79181D01*
X322941Y55500D02*
X352000Y84559D01*
X276000Y55500D02*
X322941D01*
X263500Y68000D02*
X276000Y55500D01*
X25250Y242250D02*
X51876D01*
X25000Y242500D02*
X25250Y242250D01*
X51876D02*
X52126Y242000D01*
X384500Y72130D02*
X393748Y62882D01*
X384500Y72130D02*
Y125000D01*
X393748Y62882D02*
X394929D01*
X393949Y134449D02*
Y189500D01*
X384500Y125000D02*
X393949Y134449D01*
X369500Y255547D02*
X393949Y231098D01*
Y189500D02*
Y231098D01*
X316595Y231500D02*
Y249095D01*
X323047Y255547D02*
X369500D01*
X316595Y249095D02*
X323047Y255547D01*
X281653Y221264D02*
X284500Y219500D01*
X273500Y228000D02*
X281653Y221264D01*
X284500Y219500D02*
X298000D01*
X147059Y223941D02*
Y242000D01*
Y223941D02*
X158000Y213000D01*
X147059Y242000D02*
Y266858D01*
X24500Y312500D02*
X92173D01*
X94173Y310500D01*
X67874Y242000D02*
X91941D01*
D49*
X338500Y231689D02*
Y242500D01*
X159000Y302015D02*
Y307015D01*
X138500Y302015D02*
Y307000D01*
X321929Y209500D02*
X327500D01*
D50*
X105429Y113571D02*
X106500Y112500D01*
D51*
X60405Y12500D02*
D03*
D52*
X48594D02*
D03*
D53*
X158500Y278299D02*
D03*
D54*
X148500D02*
D03*
X138500D02*
D03*
D55*
X367874Y15000D02*
D03*
X352126D02*
D03*
X67874Y242000D02*
D03*
X52126D02*
D03*
D56*
X297000Y249500D02*
D03*
D57*
Y257374D02*
D03*
D58*
X325051Y189500D02*
D03*
X393949D02*
D03*
X273500Y228000D02*
D03*
X204602D02*
D03*
D59*
X405500Y38300D02*
D03*
X395500D02*
D03*
X48500Y26441D02*
D03*
Y81559D02*
D03*
X97559Y296500D02*
D03*
X42441D02*
D03*
X352000Y84559D02*
D03*
Y29441D02*
D03*
X277559Y249000D02*
D03*
X222441D02*
D03*
X147059Y242000D02*
D03*
X91941D02*
D03*
D60*
X305000Y193500D02*
D03*
Y173815D02*
D03*
D61*
X25000Y232500D02*
D03*
X24500Y292500D02*
D03*
D62*
X25000Y242500D02*
D03*
Y252500D02*
D03*
X24500Y302500D02*
D03*
Y312500D02*
D03*
D63*
X106500Y112500D02*
D03*
X126500D02*
D03*
X106500Y92500D02*
D03*
X126500D02*
D03*
X183500Y92000D02*
D03*
X163500D02*
D03*
X183500Y112000D02*
D03*
X163500D02*
D03*
D64*
X290764Y79181D02*
D03*
X279858D02*
D03*
X268953D02*
D03*
X258047D02*
D03*
X247142D02*
D03*
X285311Y68000D02*
D03*
X274406D02*
D03*
X263500D02*
D03*
X252594D02*
D03*
D65*
X219740Y73590D02*
D03*
X318165D02*
D03*
D66*
X298000Y209461D02*
D03*
Y219500D02*
D03*
D67*
Y229539D02*
D03*
D68*
X369500Y255547D02*
D03*
Y211453D02*
D03*
X275776Y189500D02*
D03*
X185224D02*
D03*
D69*
X264315Y206000D02*
D03*
D70*
X284000D02*
D03*
D71*
X95500Y310500D02*
D03*
X23500Y81000D02*
D03*
X53500Y277000D02*
D03*
X158000Y213000D02*
D03*
X384500Y125000D02*
D03*
D72*
X338500Y242500D02*
D03*
X159000Y307015D02*
D03*
X138500Y307000D02*
D03*
X327500Y209500D02*
D03*
D73*
X301000Y126500D02*
D03*
X84000Y141000D02*
D03*
Y197500D02*
D03*
X300750Y155250D02*
D03*
M02*
