G04*
G04 #@! TF.GenerationSoftware,Altium Limited,Altium Designer,21.6.4 (81)*
G04*
G04 Layer_Color=16711935*
%FSLAX25Y25*%
%MOIN*%
G70*
G04*
G04 #@! TF.SameCoordinates,4CA0FBB6-7D73-4BA8-9560-2460E3BCD6C6*
G04*
G04*
G04 #@! TF.FilePolarity,Positive*
G04*
G01*
G75*
%ADD10C,0.02000*%
%ADD12C,0.00787*%
%ADD14C,0.00500*%
%ADD15C,0.00394*%
%ADD74C,0.00100*%
D10*
X44500Y188500D02*
G03*
X44500Y188500I-1500J0D01*
G01*
D12*
X174091Y278299D02*
G03*
X174091Y278299I-394J0D01*
G01*
X277110Y201079D02*
G03*
X277110Y210921I0J4921D01*
G01*
X271205D02*
G03*
X271205Y201079I0J-4921D01*
G01*
X316811Y171846D02*
Y195468D01*
X293189Y171846D02*
X316811D01*
X293189D02*
Y195468D01*
X316811D01*
X208303Y84220D02*
X329602D01*
Y36189D02*
Y84220D01*
X208303Y36189D02*
X329602D01*
X208303D02*
Y84220D01*
X236866Y12567D02*
Y36189D01*
Y12567D02*
X301039D01*
Y36189D01*
X271205Y210921D02*
X277110D01*
X271205Y201079D02*
X277110D01*
D14*
X322795Y206665D02*
Y212335D01*
X314134Y206665D02*
Y212335D01*
Y206665D02*
X322795D01*
X314134Y212335D02*
X322795D01*
X171531Y252709D02*
Y286173D01*
X125862D02*
X171531D01*
X125862Y252709D02*
Y286173D01*
Y252709D02*
X171531D01*
D15*
X306842Y253437D02*
G03*
X306842Y253437I-9843J0D01*
G01*
X100500Y310500D02*
G03*
X100500Y310500I-5000J0D01*
G01*
X28500Y81000D02*
G03*
X28500Y81000I-5000J0D01*
G01*
X58500Y277000D02*
G03*
X58500Y277000I-5000J0D01*
G01*
X163000Y213000D02*
G03*
X163000Y213000I-5000J0D01*
G01*
X389500Y125000D02*
G03*
X389500Y125000I-5000J0D01*
G01*
X313535Y215689D02*
Y239311D01*
Y215689D02*
X342276D01*
Y239311D01*
X313535D02*
X342276D01*
X12500Y227795D02*
X37500D01*
X12500D02*
Y257205D01*
X37500D01*
Y227795D02*
Y257205D01*
X12000Y287795D02*
X37000D01*
X12000D02*
Y317205D01*
X37000D01*
Y287795D02*
Y317205D01*
X305067Y239972D02*
X310087Y234953D01*
X291976Y239972D02*
X310087D01*
X291976Y199028D02*
Y239972D01*
Y199028D02*
X310087D01*
Y239972D01*
X398150Y50606D02*
Y63205D01*
X391850Y50606D02*
X398150D01*
X391850D02*
Y63205D01*
X398150D01*
X281449Y219106D02*
Y231705D01*
X287551D01*
Y219106D02*
Y231705D01*
X281449Y219106D02*
X287551D01*
D74*
X135350Y302299D02*
X141650D01*
Y289701D02*
Y302299D01*
X135350Y289701D02*
X141650D01*
X135350D02*
Y302299D01*
X141650Y289701D02*
Y291669D01*
X135350Y289701D02*
X141650D01*
X135350D02*
Y291669D01*
X141650D01*
X135350Y300331D02*
Y302299D01*
X141650D01*
Y300331D02*
Y302299D01*
X135350Y300331D02*
X141650D01*
X155850Y302299D02*
X162150D01*
Y289701D02*
Y302299D01*
X155850Y289701D02*
X162150D01*
X155850D02*
Y302299D01*
X162150Y289701D02*
Y291669D01*
X155850Y289701D02*
X162150D01*
X155850D02*
Y291669D01*
X162150D01*
X155850Y300331D02*
Y302299D01*
X162150D01*
Y300331D02*
Y302299D01*
X155850Y300331D02*
X162150D01*
X22700Y113800D02*
Y193200D01*
Y113800D02*
X47700D01*
Y193200D01*
X22700D02*
X47700D01*
M02*
