G04*
G04 #@! TF.GenerationSoftware,Altium Limited,Altium Designer,21.6.4 (81)*
G04*
G04 Layer_Color=32768*
%FSLAX25Y25*%
%MOIN*%
G70*
G04*
G04 #@! TF.SameCoordinates,4CA0FBB6-7D73-4BA8-9560-2460E3BCD6C6*
G04*
G04*
G04 #@! TF.FilePolarity,Positive*
G04*
G01*
G75*
%ADD11C,0.01000*%
%ADD14C,0.00500*%
D11*
X378201Y180051D02*
Y198949D01*
X340799Y180051D02*
Y198949D01*
Y180051D02*
X378201D01*
X340799Y198949D02*
X378201D01*
X220350Y218551D02*
Y237449D01*
X257752Y218551D02*
Y237449D01*
X220350D02*
X257752D01*
X220350Y218551D02*
X257752D01*
X392000Y9583D02*
X409000D01*
X392000Y46000D02*
X409000D01*
X392000Y9583D02*
Y46000D01*
X409000Y9583D02*
Y46000D01*
X44563Y42189D02*
X52437D01*
X44563Y65811D02*
X52437D01*
X44563Y42189D02*
Y65811D01*
X52437Y42189D02*
Y65811D01*
X81811Y292563D02*
Y300437D01*
X58189Y292563D02*
Y300437D01*
Y292563D02*
X81811D01*
X58189Y300437D02*
X81811D01*
X348063Y68811D02*
X355937D01*
X348063Y45189D02*
X355937D01*
Y68811D01*
X348063Y45189D02*
Y68811D01*
X261811Y245063D02*
Y252937D01*
X238189Y245063D02*
Y252937D01*
Y245063D02*
X261811D01*
X238189Y252937D02*
X261811D01*
X131311Y238063D02*
Y245937D01*
X107689Y238063D02*
Y245937D01*
Y238063D02*
X131311D01*
X107689Y245937D02*
X131311D01*
X88500Y9764D02*
X139681D01*
X88500Y120000D02*
X139681D01*
X88500Y9764D02*
Y120000D01*
X139681Y9764D02*
Y120000D01*
X145500Y9264D02*
X196681D01*
X145500Y119500D02*
X196681D01*
X145500Y9264D02*
Y119500D01*
X196681Y9264D02*
Y119500D01*
D14*
X213768Y194421D02*
X247232D01*
X213768Y184579D02*
X247232D01*
Y194421D01*
X213768Y184579D02*
Y194421D01*
M02*
