G04*
G04 #@! TF.GenerationSoftware,Altium Limited,Altium Designer,21.6.4 (81)*
G04*
G04 Layer_Color=16711935*
%FSLAX25Y25*%
%MOIN*%
G70*
G04*
G04 #@! TF.SameCoordinates,4CA0FBB6-7D73-4BA8-9560-2460E3BCD6C6*
G04*
G04*
G04 #@! TF.FilePolarity,Negative*
G04*
G01*
G75*
%ADD26C,0.06700*%
%ADD27C,0.05800*%
%ADD28R,0.05800X0.05800*%
%ADD29R,0.06737X0.06737*%
%ADD30C,0.06737*%
%ADD31C,0.07599*%
%ADD32R,0.05131X0.05131*%
%ADD33C,0.05131*%
%ADD34C,0.09800*%
%ADD35C,0.06800*%
%ADD36C,0.05524*%
%ADD37R,0.07001X0.07001*%
%ADD38C,0.07001*%
%ADD39C,0.11800*%
%ADD40C,0.07709*%
%ADD41C,0.19580*%
%ADD42C,0.08595*%
%ADD43R,0.08595X0.08595*%
%ADD44C,0.07800*%
%ADD45R,0.05721X0.05721*%
%ADD46C,0.05721*%
%ADD47C,0.06706*%
D26*
X35500Y118500D02*
D03*
Y128500D02*
D03*
Y188500D02*
D03*
Y178500D02*
D03*
Y168500D02*
D03*
Y158500D02*
D03*
Y148500D02*
D03*
Y138500D02*
D03*
D27*
X60405Y12500D02*
D03*
D28*
X48594D02*
D03*
D29*
X158500Y278299D02*
D03*
D30*
X148500D02*
D03*
X138500D02*
D03*
D31*
X367874Y15000D02*
D03*
X352126D02*
D03*
X67874Y242000D02*
D03*
X52126D02*
D03*
D32*
X297000Y249500D02*
D03*
D33*
Y257374D02*
D03*
D34*
X325051Y189500D02*
D03*
X393949D02*
D03*
X273500Y228000D02*
D03*
X204602D02*
D03*
D35*
X405500Y38300D02*
D03*
X395500D02*
D03*
X48500Y26441D02*
D03*
Y81559D02*
D03*
X97559Y296500D02*
D03*
X42441D02*
D03*
X352000Y84559D02*
D03*
Y29441D02*
D03*
X277559Y249000D02*
D03*
X222441D02*
D03*
X147059Y242000D02*
D03*
X91941D02*
D03*
D36*
X305000Y193500D02*
D03*
Y173815D02*
D03*
D37*
X25000Y232500D02*
D03*
X24500Y292500D02*
D03*
D38*
X25000Y242500D02*
D03*
Y252500D02*
D03*
X24500Y302500D02*
D03*
Y312500D02*
D03*
D39*
X106500Y112500D02*
D03*
X126500D02*
D03*
X106500Y92500D02*
D03*
X126500D02*
D03*
X183500Y92000D02*
D03*
X163500D02*
D03*
X183500Y112000D02*
D03*
X163500D02*
D03*
D40*
X290764Y79181D02*
D03*
X279858D02*
D03*
X268953D02*
D03*
X258047D02*
D03*
X247142D02*
D03*
X285311Y68000D02*
D03*
X274406D02*
D03*
X263500D02*
D03*
X252594D02*
D03*
D41*
X219740Y73590D02*
D03*
X318165D02*
D03*
D42*
X298000Y209461D02*
D03*
Y219500D02*
D03*
D43*
Y229539D02*
D03*
D44*
X369500Y255547D02*
D03*
Y211453D02*
D03*
X275776Y189500D02*
D03*
X185224D02*
D03*
D45*
X264315Y206000D02*
D03*
D46*
X284000D02*
D03*
D47*
X95500Y310500D02*
D03*
X23500Y81000D02*
D03*
X53500Y277000D02*
D03*
X158000Y213000D02*
D03*
X384500Y125000D02*
D03*
M02*
