G04*
G04 #@! TF.GenerationSoftware,Altium Limited,Altium Designer,21.5.1 (32)*
G04*
G04 Layer_Color=8388736*
%FSLAX25Y25*%
%MOIN*%
G70*
G04*
G04 #@! TF.SameCoordinates,40DED969-F63B-4BA1-A5F3-3E20095EF234*
G04*
G04*
G04 #@! TF.FilePolarity,Positive*
G04*
G01*
G75*
%ADD10C,0.00787*%
G36*
X98228Y348859D02*
X97080D01*
X97058Y348861D01*
X97029D01*
X96996Y348863D01*
X96962Y348865D01*
X96922Y348868D01*
X96882Y348872D01*
X96840Y348875D01*
X96754Y348888D01*
X96714Y348896D01*
X96674Y348905D01*
X96636Y348916D01*
X96601Y348928D01*
X96600D01*
X96594Y348932D01*
X96585Y348936D01*
X96572Y348941D01*
X96558Y348948D01*
X96541Y348959D01*
X96521Y348970D01*
X96501Y348983D01*
X96479Y348999D01*
X96456Y349016D01*
X96432Y349036D01*
X96408Y349058D01*
X96387Y349083D01*
X96363Y349109D01*
X96341Y349138D01*
X96321Y349168D01*
X96319Y349170D01*
X96316Y349176D01*
X96312Y349185D01*
X96305Y349198D01*
X96297Y349214D01*
X96288Y349234D01*
X96277Y349256D01*
X96268Y349279D01*
X96259Y349307D01*
X96248Y349336D01*
X96239Y349367D01*
X96232Y349400D01*
X96225Y349434D01*
X96219Y349471D01*
X96217Y349509D01*
X96215Y349547D01*
Y349551D01*
Y349558D01*
X96217Y349573D01*
Y349593D01*
X96221Y349614D01*
X96225Y349642D01*
X96230Y349671D01*
X96237Y349704D01*
X96246Y349738D01*
X96257Y349775D01*
X96272Y349813D01*
X96288Y349851D01*
X96308Y349889D01*
X96332Y349926D01*
X96359Y349964D01*
X96390Y349998D01*
X96392Y350000D01*
X96398Y350006D01*
X96408Y350015D01*
X96423Y350028D01*
X96441Y350042D01*
X96465Y350059D01*
X96490Y350077D01*
X96521Y350097D01*
X96558Y350117D01*
X96596Y350137D01*
X96641Y350155D01*
X96689Y350175D01*
X96741Y350191D01*
X96798Y350208D01*
X96860Y350220D01*
X96925Y350231D01*
X96924D01*
X96920Y350235D01*
X96912Y350237D01*
X96903Y350242D01*
X96892Y350248D01*
X96880Y350255D01*
X96851Y350271D01*
X96818Y350290D01*
X96785Y350311D01*
X96754Y350333D01*
X96725Y350357D01*
X96723Y350359D01*
X96718Y350362D01*
X96710Y350372D01*
X96700Y350381D01*
X96687Y350395D01*
X96672Y350410D01*
X96654Y350428D01*
X96636Y350450D01*
X96616Y350473D01*
X96594Y350499D01*
X96570Y350526D01*
X96547Y350555D01*
X96523Y350588D01*
X96498Y350621D01*
X96448Y350694D01*
X96013Y351378D01*
X96430D01*
X96763Y350854D01*
X96765Y350852D01*
X96771Y350845D01*
X96778Y350832D01*
X96787Y350817D01*
X96800Y350797D01*
X96814Y350776D01*
X96831Y350752D01*
X96847Y350726D01*
X96885Y350670D01*
X96925Y350612D01*
X96965Y350557D01*
X96985Y350532D01*
X97004Y350508D01*
X97005Y350506D01*
X97007Y350503D01*
X97013Y350497D01*
X97020Y350488D01*
X97038Y350466D01*
X97060Y350441D01*
X97087Y350413D01*
X97115Y350384D01*
X97144Y350359D01*
X97173Y350339D01*
X97176Y350337D01*
X97185Y350331D01*
X97200Y350322D01*
X97220Y350313D01*
X97242Y350302D01*
X97267Y350290D01*
X97295Y350280D01*
X97324Y350271D01*
X97326D01*
X97335Y350270D01*
X97349Y350268D01*
X97368Y350264D01*
X97393Y350262D01*
X97426Y350260D01*
X97464Y350259D01*
X97895D01*
Y351378D01*
X98228D01*
Y348859D01*
D02*
G37*
G36*
X94963Y349409D02*
X94965Y349411D01*
X94969Y349414D01*
X94974Y349420D01*
X94983Y349427D01*
X94994Y349436D01*
X95009Y349449D01*
X95025Y349462D01*
X95042Y349476D01*
X95063Y349491D01*
X95085Y349509D01*
X95109Y349525D01*
X95134Y349545D01*
X95164Y349564D01*
X95193Y349584D01*
X95258Y349623D01*
X95260Y349625D01*
X95265Y349629D01*
X95276Y349634D01*
X95289Y349640D01*
X95304Y349649D01*
X95322Y349660D01*
X95344Y349671D01*
X95366Y349684D01*
X95416Y349709D01*
X95471Y349734D01*
X95527Y349760D01*
X95582Y349782D01*
Y349483D01*
X95578Y349482D01*
X95571Y349478D01*
X95557Y349471D01*
X95538Y349462D01*
X95517Y349451D01*
X95489Y349436D01*
X95460Y349420D01*
X95429Y349401D01*
X95395Y349380D01*
X95358Y349358D01*
X95282Y349307D01*
X95204Y349250D01*
X95129Y349188D01*
X95127Y349187D01*
X95120Y349181D01*
X95111Y349172D01*
X95098Y349159D01*
X95082Y349143D01*
X95063Y349125D01*
X95043Y349103D01*
X95022Y349081D01*
X95000Y349056D01*
X94976Y349028D01*
X94931Y348972D01*
X94889Y348912D01*
X94871Y348881D01*
X94854Y348850D01*
X94654D01*
Y351378D01*
X94963D01*
Y349409D01*
D02*
G37*
G36*
X35259Y47878D02*
X35283Y47876D01*
X35314Y47874D01*
X35349Y47869D01*
X35387Y47863D01*
X35429Y47854D01*
X35474Y47843D01*
X35522Y47831D01*
X35571Y47814D01*
X35620Y47796D01*
X35671Y47772D01*
X35720Y47745D01*
X35769Y47714D01*
X35816Y47679D01*
X35820Y47676D01*
X35829Y47668D01*
X35844Y47654D01*
X35864Y47636D01*
X35887Y47610D01*
X35913Y47581D01*
X35940Y47546D01*
X35969Y47506D01*
X35998Y47461D01*
X36026Y47412D01*
X36051Y47357D01*
X36075Y47297D01*
X36093Y47234D01*
X36109Y47166D01*
X36119Y47093D01*
X36122Y47017D01*
Y47002D01*
X36120Y46984D01*
X36119Y46960D01*
X36117Y46931D01*
X36111Y46897D01*
X36106Y46859D01*
X36098Y46819D01*
X36088Y46775D01*
X36075Y46729D01*
X36060Y46682D01*
X36042Y46635D01*
X36020Y46589D01*
X35995Y46542D01*
X35964Y46498D01*
X35931Y46456D01*
X35929Y46455D01*
X35922Y46447D01*
X35911Y46436D01*
X35896Y46422D01*
X35876Y46405D01*
X35853Y46385D01*
X35825Y46365D01*
X35794Y46343D01*
X35760Y46322D01*
X35722Y46302D01*
X35680Y46280D01*
X35634Y46260D01*
X35585Y46243D01*
X35532Y46229D01*
X35478Y46216D01*
X35420Y46209D01*
X35392Y46533D01*
X35394D01*
X35403Y46535D01*
X35414Y46536D01*
X35430Y46540D01*
X35451Y46545D01*
X35474Y46551D01*
X35500Y46558D01*
X35527Y46567D01*
X35583Y46589D01*
X35614Y46602D01*
X35643Y46617D01*
X35673Y46635D01*
X35700Y46653D01*
X35725Y46675D01*
X35749Y46698D01*
X35751Y46700D01*
X35754Y46704D01*
X35760Y46711D01*
X35767Y46722D01*
X35776Y46735D01*
X35787Y46751D01*
X35796Y46768D01*
X35807Y46788D01*
X35820Y46809D01*
X35829Y46835D01*
X35840Y46860D01*
X35849Y46889D01*
X35856Y46919D01*
X35862Y46950D01*
X35866Y46982D01*
X35867Y47017D01*
Y47028D01*
X35866Y47039D01*
Y47055D01*
X35862Y47073D01*
X35858Y47097D01*
X35853Y47122D01*
X35846Y47150D01*
X35838Y47179D01*
X35827Y47210D01*
X35813Y47241D01*
X35796Y47273D01*
X35778Y47304D01*
X35754Y47337D01*
X35729Y47368D01*
X35700Y47397D01*
X35698Y47399D01*
X35693Y47405D01*
X35682Y47412D01*
X35669Y47421D01*
X35653Y47434D01*
X35633Y47446D01*
X35609Y47461D01*
X35582Y47476D01*
X35551Y47488D01*
X35518Y47503D01*
X35482Y47516D01*
X35441Y47528D01*
X35398Y47537D01*
X35352Y47545D01*
X35305Y47550D01*
X35254Y47552D01*
X35250D01*
X35243D01*
X35228Y47550D01*
X35210D01*
X35188Y47548D01*
X35161Y47545D01*
X35134Y47539D01*
X35101Y47534D01*
X35068Y47525D01*
X35036Y47516D01*
X35001Y47503D01*
X34965Y47488D01*
X34930Y47472D01*
X34897Y47452D01*
X34865Y47428D01*
X34835Y47403D01*
X34833Y47401D01*
X34828Y47396D01*
X34821Y47388D01*
X34812Y47376D01*
X34799Y47361D01*
X34786Y47343D01*
X34773Y47323D01*
X34759Y47299D01*
X34744Y47272D01*
X34732Y47243D01*
X34717Y47212D01*
X34706Y47177D01*
X34697Y47139D01*
X34690Y47099D01*
X34684Y47057D01*
X34683Y47013D01*
Y46999D01*
X34684Y46988D01*
Y46975D01*
X34686Y46959D01*
X34688Y46942D01*
X34692Y46922D01*
X34699Y46880D01*
X34712Y46835D01*
X34728Y46788D01*
X34752Y46742D01*
Y46740D01*
X34755Y46737D01*
X34759Y46731D01*
X34764Y46722D01*
X34779Y46700D01*
X34799Y46673D01*
X34824Y46644D01*
X34854Y46613D01*
X34888Y46582D01*
X34926Y46555D01*
X34888Y46263D01*
X33594Y46507D01*
Y47761D01*
X33889D01*
Y46753D01*
X34568Y46618D01*
X34566Y46620D01*
X34560Y46629D01*
X34553Y46640D01*
X34542Y46658D01*
X34531Y46678D01*
X34517Y46702D01*
X34504Y46731D01*
X34488Y46762D01*
X34473Y46797D01*
X34459Y46833D01*
X34446Y46873D01*
X34435Y46913D01*
X34424Y46957D01*
X34417Y47001D01*
X34411Y47048D01*
X34409Y47093D01*
Y47108D01*
X34411Y47126D01*
X34413Y47148D01*
X34417Y47177D01*
X34422Y47210D01*
X34429Y47248D01*
X34439Y47288D01*
X34449Y47330D01*
X34466Y47376D01*
X34484Y47421D01*
X34506Y47468D01*
X34533Y47516D01*
X34562Y47563D01*
X34599Y47608D01*
X34639Y47652D01*
X34641Y47654D01*
X34650Y47661D01*
X34663Y47674D01*
X34681Y47688D01*
X34703Y47705D01*
X34730Y47725D01*
X34763Y47745D01*
X34799Y47767D01*
X34839Y47787D01*
X34883Y47807D01*
X34932Y47827D01*
X34983Y47845D01*
X35039Y47858D01*
X35099Y47870D01*
X35161Y47878D01*
X35227Y47880D01*
X35228D01*
X35230D01*
X35236D01*
X35241D01*
X35259Y47878D01*
D02*
G37*
G36*
X36080Y45597D02*
X35556Y45264D01*
X35554Y45262D01*
X35547Y45257D01*
X35534Y45250D01*
X35520Y45241D01*
X35500Y45228D01*
X35478Y45213D01*
X35454Y45197D01*
X35429Y45180D01*
X35372Y45142D01*
X35314Y45102D01*
X35259Y45062D01*
X35234Y45042D01*
X35210Y45024D01*
X35208Y45022D01*
X35205Y45020D01*
X35199Y45015D01*
X35190Y45008D01*
X35168Y44989D01*
X35143Y44968D01*
X35116Y44940D01*
X35087Y44913D01*
X35061Y44884D01*
X35041Y44855D01*
X35039Y44851D01*
X35034Y44842D01*
X35025Y44827D01*
X35015Y44807D01*
X35005Y44786D01*
X34992Y44760D01*
X34983Y44733D01*
X34974Y44704D01*
Y44702D01*
X34972Y44693D01*
X34970Y44678D01*
X34966Y44660D01*
X34965Y44635D01*
X34963Y44602D01*
X34961Y44564D01*
Y44132D01*
X36080D01*
Y43799D01*
X33561D01*
Y44948D01*
X33563Y44969D01*
Y44998D01*
X33565Y45031D01*
X33567Y45066D01*
X33571Y45106D01*
X33574Y45146D01*
X33578Y45188D01*
X33590Y45273D01*
X33598Y45313D01*
X33607Y45353D01*
X33618Y45392D01*
X33630Y45426D01*
Y45428D01*
X33634Y45434D01*
X33638Y45443D01*
X33643Y45455D01*
X33650Y45470D01*
X33661Y45486D01*
X33672Y45506D01*
X33685Y45526D01*
X33702Y45548D01*
X33718Y45572D01*
X33738Y45595D01*
X33760Y45619D01*
X33785Y45641D01*
X33811Y45665D01*
X33840Y45687D01*
X33871Y45706D01*
X33873Y45708D01*
X33878Y45712D01*
X33887Y45716D01*
X33900Y45723D01*
X33916Y45730D01*
X33936Y45739D01*
X33958Y45750D01*
X33982Y45759D01*
X34009Y45768D01*
X34038Y45779D01*
X34069Y45788D01*
X34102Y45796D01*
X34137Y45803D01*
X34173Y45808D01*
X34211Y45810D01*
X34249Y45812D01*
X34253D01*
X34260D01*
X34275Y45810D01*
X34295D01*
X34317Y45807D01*
X34344Y45803D01*
X34373Y45798D01*
X34406Y45790D01*
X34440Y45781D01*
X34477Y45770D01*
X34515Y45756D01*
X34553Y45739D01*
X34591Y45719D01*
X34628Y45696D01*
X34666Y45668D01*
X34701Y45637D01*
X34703Y45636D01*
X34708Y45630D01*
X34717Y45619D01*
X34730Y45605D01*
X34744Y45586D01*
X34761Y45563D01*
X34779Y45537D01*
X34799Y45506D01*
X34819Y45470D01*
X34839Y45432D01*
X34857Y45386D01*
X34877Y45339D01*
X34894Y45286D01*
X34910Y45230D01*
X34923Y45168D01*
X34934Y45102D01*
Y45104D01*
X34937Y45108D01*
X34939Y45115D01*
X34945Y45124D01*
X34950Y45135D01*
X34957Y45148D01*
X34974Y45177D01*
X34992Y45210D01*
X35014Y45242D01*
X35036Y45273D01*
X35059Y45303D01*
X35061Y45304D01*
X35065Y45310D01*
X35074Y45317D01*
X35083Y45328D01*
X35097Y45341D01*
X35112Y45355D01*
X35130Y45373D01*
X35152Y45392D01*
X35176Y45412D01*
X35201Y45434D01*
X35228Y45457D01*
X35258Y45481D01*
X35290Y45505D01*
X35323Y45530D01*
X35396Y45579D01*
X36080Y46014D01*
Y45597D01*
D02*
G37*
G36*
X357289Y345308D02*
X357287Y345286D01*
Y345257D01*
X357285Y345225D01*
X357283Y345190D01*
X357280Y345150D01*
X357276Y345110D01*
X357272Y345068D01*
X357260Y344983D01*
X357252Y344942D01*
X357243Y344902D01*
X357232Y344864D01*
X357220Y344830D01*
Y344828D01*
X357216Y344822D01*
X357212Y344813D01*
X357207Y344800D01*
X357200Y344786D01*
X357189Y344770D01*
X357178Y344750D01*
X357165Y344730D01*
X357149Y344708D01*
X357132Y344684D01*
X357112Y344660D01*
X357090Y344637D01*
X357065Y344615D01*
X357039Y344591D01*
X357010Y344569D01*
X356979Y344549D01*
X356978Y344548D01*
X356972Y344544D01*
X356963Y344540D01*
X356950Y344533D01*
X356934Y344526D01*
X356914Y344517D01*
X356892Y344506D01*
X356868Y344497D01*
X356841Y344488D01*
X356812Y344477D01*
X356781Y344467D01*
X356748Y344460D01*
X356714Y344453D01*
X356677Y344447D01*
X356639Y344446D01*
X356601Y344444D01*
X356597D01*
X356590D01*
X356575Y344446D01*
X356555D01*
X356533Y344449D01*
X356506Y344453D01*
X356477Y344458D01*
X356444Y344466D01*
X356410Y344475D01*
X356373Y344486D01*
X356335Y344500D01*
X356297Y344517D01*
X356259Y344537D01*
X356222Y344560D01*
X356184Y344588D01*
X356149Y344619D01*
X356148Y344620D01*
X356142Y344626D01*
X356133Y344637D01*
X356120Y344651D01*
X356106Y344670D01*
X356089Y344693D01*
X356071Y344719D01*
X356051Y344750D01*
X356031Y344786D01*
X356011Y344824D01*
X355993Y344870D01*
X355973Y344917D01*
X355957Y344970D01*
X355940Y345026D01*
X355927Y345088D01*
X355917Y345154D01*
Y345152D01*
X355913Y345148D01*
X355911Y345141D01*
X355906Y345132D01*
X355900Y345121D01*
X355893Y345108D01*
X355876Y345079D01*
X355858Y345046D01*
X355836Y345013D01*
X355815Y344983D01*
X355791Y344953D01*
X355789Y344952D01*
X355785Y344946D01*
X355776Y344939D01*
X355767Y344928D01*
X355753Y344915D01*
X355738Y344901D01*
X355720Y344882D01*
X355698Y344864D01*
X355674Y344844D01*
X355649Y344822D01*
X355622Y344799D01*
X355592Y344775D01*
X355560Y344751D01*
X355527Y344726D01*
X355454Y344677D01*
X354770Y344242D01*
Y344659D01*
X355294Y344992D01*
X355296Y344993D01*
X355303Y344999D01*
X355316Y345006D01*
X355330Y345015D01*
X355350Y345028D01*
X355372Y345043D01*
X355396Y345059D01*
X355421Y345075D01*
X355478Y345114D01*
X355536Y345154D01*
X355591Y345194D01*
X355616Y345214D01*
X355640Y345232D01*
X355642Y345234D01*
X355645Y345235D01*
X355651Y345241D01*
X355660Y345248D01*
X355682Y345267D01*
X355707Y345288D01*
X355734Y345316D01*
X355764Y345343D01*
X355789Y345372D01*
X355809Y345401D01*
X355811Y345405D01*
X355816Y345414D01*
X355825Y345428D01*
X355835Y345448D01*
X355845Y345470D01*
X355858Y345496D01*
X355867Y345523D01*
X355876Y345552D01*
Y345554D01*
X355878Y345563D01*
X355880Y345578D01*
X355884Y345596D01*
X355886Y345621D01*
X355887Y345654D01*
X355889Y345692D01*
Y346124D01*
X354770D01*
Y346457D01*
X357289D01*
Y345308D01*
D02*
G37*
G36*
X356666Y343807D02*
X356670Y343799D01*
X356677Y343785D01*
X356686Y343767D01*
X356697Y343745D01*
X356712Y343718D01*
X356728Y343689D01*
X356746Y343658D01*
X356768Y343623D01*
X356790Y343587D01*
X356841Y343510D01*
X356897Y343432D01*
X356959Y343357D01*
X356961Y343355D01*
X356967Y343348D01*
X356976Y343339D01*
X356988Y343326D01*
X357005Y343310D01*
X357023Y343292D01*
X357045Y343272D01*
X357067Y343250D01*
X357092Y343228D01*
X357119Y343204D01*
X357176Y343159D01*
X357236Y343117D01*
X357267Y343099D01*
X357298Y343082D01*
Y342882D01*
X354770D01*
Y343192D01*
X356739D01*
X356737Y343194D01*
X356734Y343197D01*
X356728Y343203D01*
X356721Y343212D01*
X356712Y343223D01*
X356699Y343237D01*
X356686Y343253D01*
X356672Y343270D01*
X356657Y343292D01*
X356639Y343314D01*
X356623Y343337D01*
X356603Y343363D01*
X356584Y343392D01*
X356564Y343421D01*
X356524Y343486D01*
X356522Y343488D01*
X356519Y343494D01*
X356513Y343505D01*
X356508Y343517D01*
X356499Y343532D01*
X356488Y343550D01*
X356477Y343572D01*
X356464Y343594D01*
X356439Y343645D01*
X356413Y343699D01*
X356388Y343756D01*
X356366Y343811D01*
X356664D01*
X356666Y343807D01*
D02*
G37*
G36*
X355476Y341779D02*
X355472D01*
X355465Y341777D01*
X355451Y341774D01*
X355432Y341768D01*
X355411Y341763D01*
X355387Y341756D01*
X355360Y341747D01*
X355330Y341738D01*
X355267Y341712D01*
X355205Y341681D01*
X355174Y341663D01*
X355145Y341643D01*
X355119Y341623D01*
X355096Y341599D01*
X355094Y341597D01*
X355090Y341594D01*
X355085Y341586D01*
X355077Y341576D01*
X355068Y341565D01*
X355059Y341548D01*
X355048Y341532D01*
X355039Y341512D01*
X355028Y341490D01*
X355017Y341466D01*
X355008Y341441D01*
X354999Y341413D01*
X354992Y341384D01*
X354986Y341354D01*
X354983Y341322D01*
X354981Y341288D01*
Y341279D01*
X354983Y341266D01*
Y341251D01*
X354986Y341231D01*
X354988Y341210D01*
X354994Y341186D01*
X354999Y341159D01*
X355008Y341131D01*
X355017Y341101D01*
X355030Y341070D01*
X355045Y341039D01*
X355063Y341008D01*
X355083Y340977D01*
X355105Y340948D01*
X355132Y340918D01*
X355134Y340917D01*
X355139Y340911D01*
X355147Y340904D01*
X355159Y340895D01*
X355174Y340884D01*
X355192Y340871D01*
X355212Y340857D01*
X355236Y340842D01*
X355261Y340829D01*
X355290Y340815D01*
X355319Y340802D01*
X355354Y340791D01*
X355389Y340782D01*
X355425Y340775D01*
X355465Y340769D01*
X355505Y340767D01*
X355507D01*
X355514D01*
X355525D01*
X355541Y340769D01*
X355558Y340771D01*
X355580Y340775D01*
X355603Y340778D01*
X355629Y340786D01*
X355656Y340793D01*
X355685Y340802D01*
X355714Y340813D01*
X355744Y340826D01*
X355773Y340842D01*
X355802Y340862D01*
X355829Y340882D01*
X355856Y340908D01*
X355858Y340909D01*
X355862Y340913D01*
X355869Y340922D01*
X355878Y340933D01*
X355889Y340946D01*
X355900Y340962D01*
X355913Y340982D01*
X355926Y341004D01*
X355938Y341028D01*
X355951Y341055D01*
X355962Y341084D01*
X355973Y341115D01*
X355982Y341148D01*
X355989Y341184D01*
X355993Y341221D01*
X355995Y341261D01*
Y341277D01*
X355993Y341295D01*
X355991Y341321D01*
X355987Y341354D01*
X355980Y341390D01*
X355973Y341432D01*
X355962Y341479D01*
X356233Y341444D01*
Y341439D01*
X356231Y341434D01*
Y341426D01*
X356229Y341410D01*
Y341375D01*
X356231Y341363D01*
X356233Y341344D01*
X356235Y341324D01*
X356239Y341302D01*
X356242Y341277D01*
X356248Y341250D01*
X356255Y341222D01*
X356273Y341162D01*
X356284Y341131D01*
X356299Y341101D01*
X356313Y341070D01*
X356331Y341040D01*
X356333Y341039D01*
X356337Y341033D01*
X356342Y341026D01*
X356351Y341015D01*
X356362Y341004D01*
X356375Y340989D01*
X356392Y340977D01*
X356410Y340960D01*
X356432Y340946D01*
X356455Y340931D01*
X356481Y340918D01*
X356510Y340908D01*
X356541Y340897D01*
X356575Y340889D01*
X356612Y340884D01*
X356650Y340882D01*
X356652D01*
X356657D01*
X356666D01*
X356679Y340884D01*
X356692Y340886D01*
X356710Y340887D01*
X356728Y340891D01*
X356748Y340897D01*
X356792Y340911D01*
X356816Y340920D01*
X356839Y340931D01*
X356863Y340944D01*
X356887Y340960D01*
X356908Y340979D01*
X356930Y340999D01*
X356932Y341000D01*
X356936Y341004D01*
X356941Y341009D01*
X356948Y341019D01*
X356956Y341031D01*
X356967Y341044D01*
X356976Y341060D01*
X356987Y341079D01*
X356997Y341099D01*
X357007Y341121D01*
X357018Y341146D01*
X357025Y341172D01*
X357032Y341201D01*
X357038Y341230D01*
X357041Y341263D01*
X357043Y341295D01*
Y341313D01*
X357041Y341324D01*
X357039Y341341D01*
X357038Y341359D01*
X357034Y341379D01*
X357029Y341401D01*
X357016Y341448D01*
X357007Y341472D01*
X356994Y341497D01*
X356981Y341523D01*
X356967Y341548D01*
X356948Y341572D01*
X356928Y341596D01*
X356927Y341597D01*
X356923Y341601D01*
X356916Y341606D01*
X356907Y341616D01*
X356896Y341625D01*
X356881Y341636D01*
X356863Y341647D01*
X356845Y341659D01*
X356821Y341672D01*
X356796Y341685D01*
X356768Y341699D01*
X356737Y341710D01*
X356704Y341723D01*
X356670Y341732D01*
X356632Y341741D01*
X356590Y341748D01*
X356645Y342058D01*
X356646D01*
X356648D01*
X356659Y342054D01*
X356674Y342051D01*
X356695Y342045D01*
X356723Y342038D01*
X356752Y342029D01*
X356785Y342018D01*
X356821Y342005D01*
X356859Y341989D01*
X356899Y341970D01*
X356939Y341949D01*
X356979Y341925D01*
X357019Y341899D01*
X357058Y341870D01*
X357094Y341838D01*
X357127Y341801D01*
X357129Y341799D01*
X357134Y341792D01*
X357143Y341781D01*
X357154Y341765D01*
X357167Y341745D01*
X357181Y341721D01*
X357196Y341694D01*
X357212Y341663D01*
X357229Y341628D01*
X357243Y341590D01*
X357258Y341550D01*
X357271Y341506D01*
X357281Y341459D01*
X357291Y341408D01*
X357296Y341355D01*
X357298Y341301D01*
Y341281D01*
X357296Y341266D01*
Y341248D01*
X357292Y341226D01*
X357291Y341202D01*
X357287Y341177D01*
X357281Y341148D01*
X357276Y341119D01*
X357260Y341055D01*
X357250Y341020D01*
X357238Y340988D01*
X357225Y340955D01*
X357209Y340922D01*
X357207Y340920D01*
X357205Y340915D01*
X357200Y340906D01*
X357192Y340893D01*
X357183Y340878D01*
X357172Y340862D01*
X357159Y340844D01*
X357145Y340824D01*
X357110Y340780D01*
X357068Y340737D01*
X357021Y340695D01*
X356994Y340675D01*
X356967Y340656D01*
X356965Y340655D01*
X356959Y340653D01*
X356952Y340647D01*
X356939Y340642D01*
X356927Y340635D01*
X356908Y340627D01*
X356890Y340618D01*
X356868Y340609D01*
X356845Y340602D01*
X356821Y340593D01*
X356766Y340578D01*
X356706Y340567D01*
X356675Y340565D01*
X356643Y340564D01*
X356641D01*
X356635D01*
X356626D01*
X356615Y340565D01*
X356601D01*
X356584Y340569D01*
X356564Y340571D01*
X356544Y340575D01*
X356497Y340585D01*
X356448Y340602D01*
X356422Y340611D01*
X356395Y340624D01*
X356370Y340636D01*
X356344Y340653D01*
X356342Y340655D01*
X356339Y340656D01*
X356331Y340662D01*
X356322Y340669D01*
X356311Y340678D01*
X356299Y340689D01*
X356284Y340702D01*
X356268Y340718D01*
X356251Y340735D01*
X356235Y340755D01*
X356217Y340775D01*
X356199Y340798D01*
X356182Y340824D01*
X356164Y340851D01*
X356148Y340880D01*
X356133Y340911D01*
Y340909D01*
X356131Y340902D01*
X356128Y340889D01*
X356122Y340875D01*
X356117Y340855D01*
X356108Y340833D01*
X356099Y340809D01*
X356086Y340784D01*
X356073Y340757D01*
X356057Y340727D01*
X356040Y340698D01*
X356020Y340669D01*
X355998Y340642D01*
X355975Y340615D01*
X355947Y340587D01*
X355918Y340564D01*
X355917Y340562D01*
X355911Y340558D01*
X355902Y340553D01*
X355889Y340544D01*
X355873Y340534D01*
X355855Y340524D01*
X355833Y340513D01*
X355807Y340502D01*
X355778Y340491D01*
X355747Y340478D01*
X355714Y340469D01*
X355678Y340460D01*
X355640Y340451D01*
X355600Y340445D01*
X355558Y340442D01*
X355512Y340440D01*
X355509D01*
X355498D01*
X355480Y340442D01*
X355458Y340443D01*
X355429Y340447D01*
X355396Y340453D01*
X355360Y340460D01*
X355319Y340471D01*
X355276Y340483D01*
X355232Y340498D01*
X355185Y340518D01*
X355137Y340542D01*
X355090Y340569D01*
X355043Y340602D01*
X354997Y340640D01*
X354954Y340682D01*
X354952Y340686D01*
X354945Y340693D01*
X354932Y340705D01*
X354917Y340726D01*
X354901Y340749D01*
X354881Y340776D01*
X354861Y340811D01*
X354839Y340847D01*
X354817Y340889D01*
X354797Y340937D01*
X354777Y340986D01*
X354761Y341040D01*
X354746Y341097D01*
X354733Y341159D01*
X354726Y341222D01*
X354724Y341290D01*
Y341304D01*
X354726Y341322D01*
X354728Y341344D01*
X354730Y341373D01*
X354735Y341406D01*
X354741Y341443D01*
X354750Y341483D01*
X354759Y341525D01*
X354772Y341570D01*
X354788Y341616D01*
X354808Y341663D01*
X354830Y341708D01*
X354855Y341754D01*
X354886Y341799D01*
X354921Y341841D01*
X354923Y341843D01*
X354930Y341850D01*
X354941Y341861D01*
X354957Y341876D01*
X354977Y341892D01*
X355001Y341912D01*
X355028Y341932D01*
X355059Y341954D01*
X355094Y341976D01*
X355134Y341998D01*
X355176Y342018D01*
X355221Y342038D01*
X355270Y342054D01*
X355321Y342071D01*
X355376Y342081D01*
X355434Y342089D01*
X355476Y341779D01*
D02*
G37*
G36*
X329291Y47080D02*
X329289Y47058D01*
Y47029D01*
X329287Y46996D01*
X329285Y46962D01*
X329281Y46922D01*
X329278Y46882D01*
X329274Y46840D01*
X329261Y46754D01*
X329254Y46714D01*
X329245Y46674D01*
X329234Y46636D01*
X329221Y46601D01*
Y46600D01*
X329218Y46594D01*
X329214Y46585D01*
X329209Y46572D01*
X329201Y46558D01*
X329190Y46541D01*
X329180Y46521D01*
X329167Y46501D01*
X329150Y46479D01*
X329134Y46456D01*
X329114Y46432D01*
X329092Y46408D01*
X329067Y46387D01*
X329041Y46363D01*
X329012Y46341D01*
X328981Y46321D01*
X328979Y46319D01*
X328974Y46316D01*
X328965Y46312D01*
X328952Y46305D01*
X328936Y46297D01*
X328916Y46288D01*
X328894Y46277D01*
X328870Y46268D01*
X328843Y46259D01*
X328814Y46248D01*
X328783Y46239D01*
X328750Y46232D01*
X328715Y46225D01*
X328679Y46219D01*
X328641Y46217D01*
X328603Y46216D01*
X328599D01*
X328592D01*
X328577Y46217D01*
X328557D01*
X328535Y46221D01*
X328508Y46225D01*
X328479Y46230D01*
X328446Y46237D01*
X328411Y46246D01*
X328375Y46257D01*
X328337Y46272D01*
X328299Y46288D01*
X328260Y46308D01*
X328224Y46332D01*
X328186Y46359D01*
X328151Y46390D01*
X328149Y46392D01*
X328144Y46398D01*
X328135Y46408D01*
X328122Y46423D01*
X328108Y46441D01*
X328091Y46465D01*
X328073Y46490D01*
X328053Y46521D01*
X328033Y46558D01*
X328013Y46596D01*
X327995Y46641D01*
X327975Y46689D01*
X327958Y46742D01*
X327942Y46798D01*
X327929Y46860D01*
X327918Y46925D01*
Y46924D01*
X327915Y46920D01*
X327913Y46913D01*
X327907Y46903D01*
X327902Y46892D01*
X327894Y46880D01*
X327878Y46851D01*
X327860Y46818D01*
X327838Y46785D01*
X327816Y46754D01*
X327793Y46725D01*
X327791Y46723D01*
X327787Y46718D01*
X327778Y46711D01*
X327769Y46700D01*
X327754Y46687D01*
X327740Y46672D01*
X327722Y46654D01*
X327700Y46636D01*
X327676Y46616D01*
X327651Y46594D01*
X327623Y46570D01*
X327594Y46547D01*
X327561Y46523D01*
X327529Y46498D01*
X327456Y46448D01*
X326772Y46014D01*
Y46430D01*
X327296Y46763D01*
X327298Y46765D01*
X327305Y46771D01*
X327318Y46778D01*
X327332Y46787D01*
X327352Y46800D01*
X327374Y46814D01*
X327398Y46831D01*
X327423Y46847D01*
X327480Y46885D01*
X327538Y46925D01*
X327592Y46965D01*
X327618Y46985D01*
X327642Y47003D01*
X327643Y47005D01*
X327647Y47007D01*
X327653Y47013D01*
X327662Y47020D01*
X327683Y47038D01*
X327709Y47060D01*
X327736Y47087D01*
X327765Y47115D01*
X327791Y47144D01*
X327811Y47173D01*
X327813Y47176D01*
X327818Y47186D01*
X327827Y47200D01*
X327836Y47220D01*
X327847Y47242D01*
X327860Y47267D01*
X327869Y47295D01*
X327878Y47324D01*
Y47326D01*
X327880Y47335D01*
X327882Y47349D01*
X327885Y47368D01*
X327887Y47393D01*
X327889Y47426D01*
X327891Y47464D01*
Y47895D01*
X326772D01*
Y48228D01*
X329291D01*
Y47080D01*
D02*
G37*
G36*
X328668Y45579D02*
X328672Y45571D01*
X328679Y45557D01*
X328688Y45538D01*
X328699Y45517D01*
X328713Y45489D01*
X328730Y45460D01*
X328748Y45429D01*
X328770Y45395D01*
X328792Y45358D01*
X328843Y45282D01*
X328899Y45204D01*
X328961Y45129D01*
X328963Y45127D01*
X328968Y45120D01*
X328977Y45111D01*
X328990Y45098D01*
X329007Y45082D01*
X329025Y45063D01*
X329047Y45043D01*
X329068Y45022D01*
X329094Y45000D01*
X329121Y44976D01*
X329178Y44931D01*
X329238Y44889D01*
X329269Y44870D01*
X329300Y44854D01*
Y44654D01*
X326772D01*
Y44963D01*
X328741D01*
X328739Y44965D01*
X328735Y44969D01*
X328730Y44974D01*
X328723Y44983D01*
X328713Y44994D01*
X328701Y45009D01*
X328688Y45025D01*
X328674Y45042D01*
X328659Y45063D01*
X328641Y45085D01*
X328624Y45109D01*
X328604Y45134D01*
X328586Y45164D01*
X328566Y45193D01*
X328526Y45258D01*
X328524Y45260D01*
X328521Y45265D01*
X328515Y45276D01*
X328510Y45289D01*
X328501Y45304D01*
X328490Y45322D01*
X328479Y45344D01*
X328466Y45366D01*
X328440Y45417D01*
X328415Y45471D01*
X328390Y45527D01*
X328368Y45582D01*
X328666D01*
X328668Y45579D01*
D02*
G37*
G36*
X329291Y42814D02*
Y42561D01*
X327658D01*
Y42221D01*
X327374D01*
Y42561D01*
X326772D01*
Y42870D01*
X327374D01*
Y43962D01*
X327658D01*
X329291Y42814D01*
D02*
G37*
%LPC*%
G36*
X97895Y349969D02*
X97142D01*
X97124Y349968D01*
X97100D01*
X97076Y349966D01*
X97049Y349964D01*
X96993Y349958D01*
X96933Y349949D01*
X96874Y349938D01*
X96849Y349931D01*
X96823Y349924D01*
X96821D01*
X96818Y349922D01*
X96811Y349918D01*
X96802Y349915D01*
X96791Y349909D01*
X96780Y349904D01*
X96751Y349887D01*
X96718Y349866D01*
X96685Y349840D01*
X96654Y349809D01*
X96627Y349773D01*
Y349771D01*
X96623Y349767D01*
X96621Y349762D01*
X96616Y349755D01*
X96610Y349745D01*
X96605Y349733D01*
X96592Y349705D01*
X96581Y349673D01*
X96570Y349634D01*
X96563Y349593D01*
X96560Y349547D01*
Y349545D01*
Y349540D01*
Y349531D01*
X96561Y349518D01*
X96563Y349502D01*
X96567Y349485D01*
X96570Y349465D01*
X96576Y349443D01*
X96583Y349422D01*
X96592Y349398D01*
X96601Y349372D01*
X96614Y349349D01*
X96630Y349323D01*
X96647Y349300D01*
X96667Y349276D01*
X96690Y349254D01*
X96692Y349252D01*
X96696Y349249D01*
X96705Y349243D01*
X96714Y349236D01*
X96729Y349227D01*
X96747Y349218D01*
X96767Y349207D01*
X96791Y349196D01*
X96816Y349185D01*
X96847Y349174D01*
X96882Y349165D01*
X96918Y349156D01*
X96958Y349149D01*
X97002Y349143D01*
X97049Y349139D01*
X97100Y349138D01*
X97895D01*
Y349969D01*
D02*
G37*
G36*
X34249Y45468D02*
X34247D01*
X34242D01*
X34233D01*
X34220Y45466D01*
X34204Y45465D01*
X34187Y45461D01*
X34167Y45457D01*
X34146Y45452D01*
X34124Y45444D01*
X34100Y45435D01*
X34075Y45426D01*
X34051Y45414D01*
X34025Y45397D01*
X34002Y45381D01*
X33978Y45361D01*
X33956Y45337D01*
X33955Y45335D01*
X33951Y45332D01*
X33945Y45322D01*
X33938Y45313D01*
X33929Y45299D01*
X33920Y45281D01*
X33909Y45261D01*
X33898Y45237D01*
X33887Y45211D01*
X33876Y45180D01*
X33867Y45146D01*
X33858Y45110D01*
X33851Y45070D01*
X33845Y45026D01*
X33842Y44978D01*
X33840Y44928D01*
Y44132D01*
X34672D01*
Y44886D01*
X34670Y44904D01*
Y44928D01*
X34668Y44951D01*
X34666Y44978D01*
X34661Y45035D01*
X34651Y45095D01*
X34641Y45153D01*
X34633Y45179D01*
X34626Y45204D01*
Y45206D01*
X34624Y45210D01*
X34621Y45217D01*
X34617Y45226D01*
X34611Y45237D01*
X34606Y45248D01*
X34590Y45277D01*
X34568Y45310D01*
X34542Y45342D01*
X34511Y45373D01*
X34475Y45401D01*
X34473D01*
X34470Y45404D01*
X34464Y45406D01*
X34457Y45412D01*
X34448Y45417D01*
X34435Y45423D01*
X34408Y45435D01*
X34375Y45446D01*
X34337Y45457D01*
X34295Y45465D01*
X34249Y45468D01*
D02*
G37*
G36*
X357010Y346124D02*
X356178D01*
Y345370D01*
X356180Y345352D01*
Y345328D01*
X356182Y345305D01*
X356184Y345277D01*
X356189Y345221D01*
X356199Y345161D01*
X356209Y345103D01*
X356217Y345077D01*
X356224Y345052D01*
Y345050D01*
X356226Y345046D01*
X356229Y345039D01*
X356233Y345030D01*
X356239Y345019D01*
X356244Y345008D01*
X356260Y344979D01*
X356282Y344946D01*
X356308Y344913D01*
X356339Y344882D01*
X356375Y344855D01*
X356377D01*
X356381Y344851D01*
X356386Y344850D01*
X356393Y344844D01*
X356402Y344839D01*
X356415Y344833D01*
X356442Y344821D01*
X356475Y344810D01*
X356513Y344799D01*
X356555Y344791D01*
X356601Y344788D01*
X356603D01*
X356608D01*
X356617D01*
X356630Y344790D01*
X356646Y344791D01*
X356663Y344795D01*
X356683Y344799D01*
X356704Y344804D01*
X356726Y344812D01*
X356750Y344821D01*
X356775Y344830D01*
X356799Y344842D01*
X356825Y344859D01*
X356848Y344875D01*
X356872Y344895D01*
X356894Y344919D01*
X356896Y344921D01*
X356899Y344924D01*
X356905Y344933D01*
X356912Y344942D01*
X356921Y344957D01*
X356930Y344975D01*
X356941Y344995D01*
X356952Y345019D01*
X356963Y345044D01*
X356974Y345075D01*
X356983Y345110D01*
X356992Y345146D01*
X356999Y345186D01*
X357005Y345230D01*
X357009Y345277D01*
X357010Y345328D01*
Y346124D01*
D02*
G37*
G36*
X329012Y47895D02*
X328180D01*
Y47142D01*
X328182Y47124D01*
Y47100D01*
X328184Y47076D01*
X328186Y47049D01*
X328191Y46993D01*
X328200Y46933D01*
X328211Y46874D01*
X328219Y46849D01*
X328226Y46823D01*
Y46821D01*
X328228Y46818D01*
X328231Y46811D01*
X328235Y46801D01*
X328240Y46791D01*
X328246Y46780D01*
X328262Y46751D01*
X328284Y46718D01*
X328309Y46685D01*
X328340Y46654D01*
X328377Y46627D01*
X328379D01*
X328382Y46623D01*
X328388Y46621D01*
X328395Y46616D01*
X328404Y46610D01*
X328417Y46605D01*
X328444Y46592D01*
X328477Y46581D01*
X328515Y46570D01*
X328557Y46563D01*
X328603Y46560D01*
X328604D01*
X328610D01*
X328619D01*
X328632Y46561D01*
X328648Y46563D01*
X328664Y46567D01*
X328684Y46570D01*
X328706Y46576D01*
X328728Y46583D01*
X328752Y46592D01*
X328777Y46601D01*
X328801Y46614D01*
X328826Y46630D01*
X328850Y46647D01*
X328874Y46667D01*
X328895Y46690D01*
X328897Y46692D01*
X328901Y46696D01*
X328906Y46705D01*
X328914Y46714D01*
X328923Y46729D01*
X328932Y46747D01*
X328943Y46767D01*
X328954Y46791D01*
X328965Y46816D01*
X328976Y46847D01*
X328985Y46882D01*
X328994Y46918D01*
X329001Y46958D01*
X329007Y47002D01*
X329010Y47049D01*
X329012Y47100D01*
Y47895D01*
D02*
G37*
G36*
X327658Y43660D02*
Y42870D01*
X328794D01*
X327658Y43660D01*
D02*
G37*
%LPD*%
D10*
X102583Y349213D02*
Y353543D01*
X93874D02*
X102583D01*
X93874Y349213D02*
Y353543D01*
Y349213D02*
X102583D01*
X33957Y39445D02*
X38287D01*
Y48154D01*
X33957D02*
X38287D01*
X33957Y39445D02*
Y48154D01*
X352559Y350811D02*
X356890D01*
X352559Y342102D02*
Y350811D01*
Y342102D02*
X356890D01*
Y350811D01*
X324606Y52583D02*
X328937D01*
X324606Y43874D02*
Y52583D01*
Y43874D02*
X328937D01*
Y52583D01*
M02*
