M48
;Layer_Color=9474304
;FILE_FORMAT=2:5
INCH,LZ
;TYPE=PLATED
T1F00S00C0.04000
T2F00S00C0.04200
T3F00S00C0.04400
T4F00S00C0.05000
T5F00S00C0.07008
%
T01
X011446Y002391
X0101862Y0036606
Y0046449
X0162885Y0023516
X0213968Y0023614
X0264657Y0023516
X0291626Y0033358
Y0043299
X0299204Y0021154
X0290149Y0107571
X0291626Y0137197
X0291626Y0168988
X0291527Y0178929
X0102059Y0176173
X010196Y014763
Y0137689
Y0106095
X0103043Y0209835
X0102963Y021997
X0102452Y0249894
X0102649Y0274402
X0127916Y0347564
X0127945Y0357571
X0282964Y035265
Y0342709
X0291527Y0275189
X0292618Y0247933
X0291527Y0221646
Y0211607
T02
X015686Y0337402
X023686
T03
X0031594Y0025
X0071595
X0326095Y0022621
X0366095
X0362158Y03711
X0322158
X0071543
X0031543
T04
X0136882Y0044705
X0151882
X0161882
X0171882
X0181882
X0191882
X0201882
X0211882
X0221882
X0231882
X0241882
X0256882
X0136882Y0314705
X0236882Y0294705
T05
X0369114Y0081693
X0324114
X0309114
X0083858Y0076476
X0038858
X0023858
X0023701Y0317224
X0068701
X0083701
X0310216Y0311417
X0355217
X0370216
M30
