G04*
G04 #@! TF.GenerationSoftware,Altium Limited,Altium Designer,21.5.1 (32)*
G04*
G04 Layer_Color=65535*
%FSLAX25Y25*%
%MOIN*%
G70*
G04*
G04 #@! TF.SameCoordinates,40DED969-F63B-4BA1-A5F3-3E20095EF234*
G04*
G04*
G04 #@! TF.FilePolarity,Positive*
G04*
G01*
G75*
%ADD10C,0.00787*%
%ADD11C,0.00500*%
%ADD12C,0.00600*%
%ADD13C,0.00300*%
%ADD14C,0.01000*%
D10*
X94267Y348031D02*
X102189D01*
X94267Y354724D02*
X102189D01*
X32776Y39838D02*
Y47760D01*
X39469Y39838D02*
Y47760D01*
X358071Y342496D02*
Y350418D01*
X351378Y342496D02*
Y350418D01*
X330118Y44267D02*
Y52189D01*
X323425Y44267D02*
Y52189D01*
X109843Y57481D02*
Y59448D01*
X110827D01*
X111155Y59121D01*
Y58465D01*
X110827Y58137D01*
X109843D01*
X110499D02*
X111155Y57481D01*
X111811D02*
X112467D01*
X112139D01*
Y59448D01*
X111811Y59121D01*
X113451D02*
X113779Y59448D01*
X114435D01*
X114763Y59121D01*
Y57809D01*
X114435Y57481D01*
X113779D01*
X113451Y57809D01*
Y59121D01*
X114403Y30906D02*
Y32874D01*
X115387D01*
X115715Y32546D01*
Y31890D01*
X115387Y31562D01*
X114403D01*
X115059D02*
X115715Y30906D01*
X116371Y31234D02*
X116699Y30906D01*
X117355D01*
X117683Y31234D01*
Y32546D01*
X117355Y32874D01*
X116699D01*
X116371Y32546D01*
Y32218D01*
X116699Y31890D01*
X117683D01*
D11*
X167885Y18516D02*
Y28516D01*
X157885D02*
X167885D01*
X157885Y18516D02*
X167885D01*
X157885D02*
Y28516D01*
X119460Y18910D02*
Y28910D01*
X109460D02*
X119460D01*
X109460Y18910D02*
X119460D01*
X109460D02*
Y28910D01*
X304204Y16154D02*
Y26154D01*
X294204D02*
X304204D01*
X294204Y16154D02*
X304204D01*
X294204D02*
Y26154D01*
X296527Y270189D02*
Y280189D01*
X286527D02*
X296527D01*
X286527Y270189D02*
X296527D01*
X286527D02*
Y280189D01*
X297618Y242933D02*
Y252933D01*
X287618D02*
X297618D01*
X287618Y242933D02*
X297618D01*
X287618D02*
Y252933D01*
X106862Y31607D02*
Y41607D01*
X96862D02*
X106862D01*
X96862Y31607D02*
X106862D01*
X96862D02*
Y41607D01*
X287964Y347650D02*
Y357650D01*
X277964D02*
X287964D01*
X277964Y347650D02*
X287964D01*
X277964D02*
Y357650D01*
X106960Y132689D02*
Y142689D01*
X96960D02*
X106960D01*
X96960Y132689D02*
X106960D01*
X96960D02*
Y142689D01*
X296527Y206607D02*
Y216606D01*
X286527D02*
X296527D01*
X286527Y206607D02*
X296527D01*
X286527D02*
Y216606D01*
X107059Y171174D02*
Y181174D01*
X97059D02*
X107059D01*
X97059Y171174D02*
X107059D01*
X97059D02*
Y181174D01*
X106960Y101095D02*
Y111095D01*
X96960D02*
X106960D01*
X96960Y101095D02*
X106960D01*
X96960D02*
Y111095D01*
X132916Y342564D02*
Y352564D01*
X122916D02*
X132916D01*
X122916Y342564D02*
X132916D01*
X122916D02*
Y352564D01*
X106862Y41449D02*
Y51449D01*
X96862D02*
X106862D01*
X96862Y41449D02*
X106862D01*
X96862D02*
Y51449D01*
X108043Y204835D02*
Y214835D01*
X98043D02*
X108043D01*
X98043Y204835D02*
X108043D01*
X98043D02*
Y214835D01*
X106960Y142630D02*
Y152630D01*
X96960D02*
X106960D01*
X96960Y142630D02*
X106960D01*
X96960D02*
Y152630D01*
X296626Y132197D02*
Y142197D01*
X286626D02*
X296626D01*
X286626Y132197D02*
X296626D01*
X286626D02*
Y142197D01*
X295149Y102571D02*
Y112571D01*
X285149D02*
X295149D01*
X285149Y102571D02*
X295149D01*
X285149D02*
Y112571D01*
X296527Y173929D02*
Y183929D01*
X286527D02*
X296527D01*
X286527Y173929D02*
X296527D01*
X286527D02*
Y183929D01*
X296626Y163988D02*
Y173988D01*
X286626D02*
X296626D01*
X286626Y163988D02*
X296626D01*
X286626D02*
Y173988D01*
X296626Y38300D02*
Y48300D01*
X286626D02*
X296626D01*
X286626Y38300D02*
X296626D01*
X286626D02*
Y48300D01*
X296626Y28359D02*
Y38359D01*
X286626D02*
X296626D01*
X286626Y28359D02*
X296626D01*
X286626D02*
Y38359D01*
X97649Y269402D02*
Y279402D01*
Y269402D02*
X107649D01*
X97649Y279402D02*
X107649D01*
Y269402D02*
Y279402D01*
X97452Y244894D02*
Y254894D01*
Y244894D02*
X107452D01*
X97452Y254894D02*
X107452D01*
Y244894D02*
Y254894D01*
X287964Y337709D02*
Y347709D01*
X277964D02*
X287964D01*
X277964Y337709D02*
X287964D01*
X277964D02*
Y347709D01*
X122944Y352571D02*
Y362571D01*
Y352571D02*
X132945D01*
X122944Y362571D02*
X132945D01*
Y352571D02*
Y362571D01*
X296527Y216646D02*
Y226646D01*
X286527D02*
X296527D01*
X286527Y216646D02*
X296527D01*
X286527D02*
Y226646D01*
X107963Y214970D02*
Y224970D01*
X97963D02*
X107963D01*
X97963Y214970D02*
X107963D01*
X97963D02*
Y224970D01*
X218968Y18614D02*
Y28614D01*
X208968D02*
X218968D01*
X208968Y18614D02*
X218968D01*
X208968D02*
Y28614D01*
X269657Y18516D02*
Y28516D01*
X259657D02*
X269657D01*
X259657Y18516D02*
X269657D01*
X259657D02*
Y28516D01*
X121852Y31248D02*
X271852D01*
Y328248D01*
X121852Y31248D02*
Y328248D01*
X271852D01*
X14488Y304744D02*
X92913D01*
Y324508D01*
X14488D02*
X92913D01*
X14488Y304744D02*
Y324508D01*
X93071Y69193D02*
Y88957D01*
X14646Y69193D02*
X93071D01*
X14646D02*
Y88957D01*
X93071D01*
X301004Y298937D02*
Y318701D01*
X379429D01*
Y298937D02*
Y318701D01*
X301004Y298937D02*
X379429D01*
X378327Y74410D02*
Y94173D01*
X299902Y74410D02*
X378327D01*
X299902D02*
Y94173D01*
X378327D01*
D12*
X100448Y344741D02*
Y346081D01*
Y331281D02*
Y332621D01*
X70448Y331281D02*
X100448D01*
X70448Y344741D02*
Y346081D01*
X100448D01*
X70448Y331281D02*
Y332621D01*
X42756Y63048D02*
Y64388D01*
X12756Y49588D02*
X42756D01*
Y50928D01*
X12756Y64388D02*
X42756D01*
X12756Y63048D02*
Y64388D01*
Y49588D02*
Y50928D01*
X381043Y336867D02*
Y338207D01*
Y323407D02*
Y324747D01*
X351043Y323407D02*
X381043D01*
X351043Y336867D02*
Y338207D01*
X381043D01*
X351043Y323407D02*
Y324747D01*
X328992Y68265D02*
Y69605D01*
X298992Y54805D02*
X328992D01*
Y56145D01*
X298992Y69605D02*
X328992D01*
X298992Y68265D02*
Y69605D01*
Y54805D02*
Y56145D01*
X243860Y324402D02*
Y350402D01*
X149860D02*
X243860D01*
X149860Y324402D02*
X243860D01*
X149860D02*
Y350402D01*
X112311Y339282D02*
Y350482D01*
X105011Y339282D02*
Y350482D01*
X16743Y41035D02*
X27942D01*
X16743Y48335D02*
X27942D01*
X362904Y349516D02*
X374104D01*
X362904Y342216D02*
X374104D01*
X306703Y45169D02*
X317903D01*
X306703Y52469D02*
X317903D01*
X22042Y365600D02*
X81042D01*
X22042Y376600D02*
X81042D01*
X22042Y365600D02*
Y376600D01*
X81042Y365600D02*
Y376600D01*
X22095Y19500D02*
X81094D01*
X22095Y30500D02*
X81094D01*
X22095Y19500D02*
Y30500D01*
X81094Y19500D02*
Y30500D01*
X312658Y376600D02*
X371658D01*
X312658Y365600D02*
X371658D01*
Y376600D01*
X312658Y365600D02*
Y376600D01*
X316595Y28121D02*
X375595D01*
X316595Y17121D02*
X375595D01*
Y28121D01*
X316595Y17121D02*
Y28121D01*
X56504Y348271D02*
Y350549D01*
X25976Y331537D02*
X56504D01*
Y333815D01*
X25976Y350549D02*
X56504D01*
X25976Y348271D02*
Y350549D01*
Y331537D02*
Y333815D01*
X55307Y43250D02*
Y45528D01*
Y62262D02*
X85835D01*
X55307Y59984D02*
Y62262D01*
Y43250D02*
X85835D01*
Y45528D01*
Y59984D02*
Y62262D01*
X337803Y348370D02*
Y350648D01*
X307276Y331636D02*
X337803D01*
Y333913D01*
X307276Y350648D02*
X337803D01*
X307276Y348370D02*
Y350648D01*
Y331636D02*
Y333913D01*
X342315Y48565D02*
Y50843D01*
Y67577D02*
X372843D01*
X342315Y65299D02*
Y67577D01*
Y48565D02*
X372843D01*
Y50843D01*
Y65299D02*
Y67577D01*
D13*
X106428Y352782D02*
X105095Y351449D01*
Y352782D02*
X106428Y351449D01*
X105761Y352782D02*
Y351449D01*
X105095Y352115D02*
X106428D01*
X30242Y46919D02*
X28910Y48252D01*
X30242D02*
X28910Y46919D01*
X30242Y47585D02*
X28910D01*
X29576Y48252D02*
Y46919D01*
X360604Y343632D02*
X361937Y342299D01*
X360604D02*
X361937Y343632D01*
X360604Y342966D02*
X361937D01*
X361270Y342299D02*
Y343632D01*
X320203Y51053D02*
X318870Y52386D01*
X320203D02*
X318870Y51053D01*
X320203Y51719D02*
X318870D01*
X319537Y52386D02*
Y51053D01*
X19578Y351917D02*
X22910Y348584D01*
X19578D02*
X22910Y351917D01*
X19578Y350250D02*
X22910D01*
X21244Y348584D02*
Y351917D01*
X92234Y41883D02*
X88901Y45215D01*
X92234D02*
X88901Y41883D01*
X92234Y43549D02*
X88901D01*
X90567Y45215D02*
Y41883D01*
X300877Y352015D02*
X304209Y348683D01*
X300877D02*
X304209Y352015D01*
X300877Y350349D02*
X304209D01*
X302543Y348683D02*
Y352015D01*
X379241Y47198D02*
X375909Y50530D01*
X379241D02*
X375909Y47198D01*
X379241Y48864D02*
X375909D01*
X377575Y50530D02*
Y47198D01*
D14*
X101986Y238535D02*
X102642Y237879D01*
X103954D01*
X104610Y238535D01*
Y239191D01*
X103954Y239847D01*
X102642D01*
X101986Y240503D01*
Y241159D01*
X102642Y241815D01*
X103954D01*
X104610Y241159D01*
X100674Y237879D02*
X99363D01*
X100019D01*
Y241815D01*
X100674D01*
X99363D01*
X94771Y238535D02*
X95427Y237879D01*
X96739D01*
X97395Y238535D01*
Y241159D01*
X96739Y241815D01*
X95427D01*
X94771Y241159D01*
Y239847D01*
X96083D01*
X93459Y241815D02*
X92147D01*
X92803D01*
Y237879D01*
X93459Y238535D01*
X98345Y198706D02*
X100969D01*
Y200674D01*
X99657Y200018D01*
X99001D01*
X98345Y200674D01*
Y201986D01*
X99001Y202642D01*
X100312D01*
X100969Y201986D01*
X97033Y198706D02*
Y201330D01*
X95721Y202642D01*
X94409Y201330D01*
Y198706D01*
X100510Y264323D02*
X101166Y263667D01*
X102478D01*
X103134Y264323D01*
Y266946D01*
X102478Y267602D01*
X101166D01*
X100510Y266946D01*
Y265634D01*
X101822D01*
X99198Y267602D02*
Y263667D01*
X96574Y267602D01*
Y263667D01*
X95262D02*
Y267602D01*
X93295D01*
X92639Y266946D01*
Y264323D01*
X93295Y263667D01*
X95262D01*
X101297Y165996D02*
X101953Y165340D01*
X103265D01*
X103921Y165996D01*
Y168620D01*
X103265Y169276D01*
X101953D01*
X101297Y168620D01*
Y167308D01*
X102609D01*
X99985Y169276D02*
Y165340D01*
X97362Y169276D01*
Y165340D01*
X96050D02*
Y169276D01*
X94082D01*
X93426Y168620D01*
Y165996D01*
X94082Y165340D01*
X96050D01*
X104545Y96212D02*
X105201Y95556D01*
X106513D01*
X107169Y96212D01*
Y96868D01*
X106513Y97524D01*
X105201D01*
X104545Y98180D01*
Y98836D01*
X105201Y99492D01*
X106513D01*
X107169Y98836D01*
X103234Y95556D02*
X101922D01*
X102578D01*
Y99492D01*
X103234D01*
X101922D01*
X97330Y96212D02*
X97986Y95556D01*
X99298D01*
X99954Y96212D01*
Y98836D01*
X99298Y99492D01*
X97986D01*
X97330Y98836D01*
Y97524D01*
X98642D01*
X93394Y99492D02*
X96018D01*
X93394Y96868D01*
Y96212D01*
X94050Y95556D01*
X95362D01*
X96018Y96212D01*
X96868Y125773D02*
X99492D01*
Y127741D01*
X98180Y127085D01*
X97524D01*
X96868Y127741D01*
Y129053D01*
X97524Y129709D01*
X98836D01*
X99492Y129053D01*
X95556Y125773D02*
Y128397D01*
X94244Y129709D01*
X92933Y128397D01*
Y125773D01*
X296770Y96212D02*
X297426Y95556D01*
X298738D01*
X299394Y96212D01*
Y96868D01*
X298738Y97524D01*
X297426D01*
X296770Y98180D01*
Y98836D01*
X297426Y99492D01*
X298738D01*
X299394Y98836D01*
X295458Y95556D02*
X294146D01*
X294802D01*
Y99492D01*
X295458D01*
X294146D01*
X289554Y96212D02*
X290210Y95556D01*
X291522D01*
X292178Y96212D01*
Y98836D01*
X291522Y99492D01*
X290210D01*
X289554Y98836D01*
Y97524D01*
X290866D01*
X286275Y99492D02*
Y95556D01*
X288242Y97524D01*
X285619D01*
X297951Y126823D02*
X298607Y126167D01*
X299919D01*
X300575Y126823D01*
Y129446D01*
X299919Y130102D01*
X298607D01*
X297951Y129446D01*
Y128135D01*
X299263D01*
X296639Y130102D02*
Y126167D01*
X294015Y130102D01*
Y126167D01*
X292703D02*
Y130102D01*
X290735D01*
X290079Y129446D01*
Y126823D01*
X290735Y126167D01*
X292703D01*
X300575Y161106D02*
X299263D01*
X299919D01*
Y157171D01*
X300575Y157826D01*
X297295D02*
X296639Y157171D01*
X295327D01*
X294671Y157826D01*
Y160450D01*
X295327Y161106D01*
X296639D01*
X297295Y160450D01*
Y157826D01*
X293359Y157171D02*
Y159794D01*
X292047Y161106D01*
X290736Y159794D01*
Y157171D01*
X298345Y199592D02*
X300969D01*
Y201560D01*
X299657Y200904D01*
X299001D01*
X298345Y201560D01*
Y202872D01*
X299001Y203528D01*
X300312D01*
X300969Y202872D01*
X297033Y199592D02*
Y202216D01*
X295721Y203528D01*
X294409Y202216D01*
Y199592D01*
X298738Y237748D02*
X299394Y237092D01*
X300706D01*
X301362Y237748D01*
Y238404D01*
X300706Y239060D01*
X299394D01*
X298738Y239716D01*
Y240372D01*
X299394Y241028D01*
X300706D01*
X301362Y240372D01*
X297427Y237092D02*
X296115D01*
X296771D01*
Y241028D01*
X297427D01*
X296115D01*
X291523Y237748D02*
X292179Y237092D01*
X293491D01*
X294147Y237748D01*
Y240372D01*
X293491Y241028D01*
X292179D01*
X291523Y240372D01*
Y239060D01*
X292835D01*
X290211Y237748D02*
X289555Y237092D01*
X288243D01*
X287587Y237748D01*
Y238404D01*
X288243Y239060D01*
X288899D01*
X288243D01*
X287587Y239716D01*
Y240372D01*
X288243Y241028D01*
X289555D01*
X290211Y240372D01*
X297164Y264913D02*
X297819Y264257D01*
X299131D01*
X299787Y264913D01*
Y267537D01*
X299131Y268193D01*
X297819D01*
X297164Y267537D01*
Y266225D01*
X298476D01*
X295852Y268193D02*
Y264257D01*
X293228Y268193D01*
Y264257D01*
X291916D02*
Y268193D01*
X289948D01*
X289292Y267537D01*
Y264913D01*
X289948Y264257D01*
X291916D01*
X256647Y11852D02*
X252711D01*
Y13819D01*
X253367Y14475D01*
X254679D01*
X255335Y13819D01*
Y11852D01*
X252711Y15787D02*
Y18411D01*
X253367D01*
X255991Y15787D01*
X256647D01*
Y22347D02*
Y19723D01*
X254023Y22347D01*
X253367D01*
X252711Y21691D01*
Y20379D01*
X253367Y19723D01*
X257302Y23659D02*
Y26283D01*
X256647Y27595D02*
Y28906D01*
Y28251D01*
X252711D01*
X253367Y27595D01*
X260067Y17177D02*
Y11179D01*
Y14178D01*
X264066D01*
Y17177D01*
Y11179D01*
X266065Y17177D02*
Y13179D01*
X268065Y11179D01*
X270064Y13179D01*
Y17177D01*
X276062Y16177D02*
X275062Y17177D01*
X273063D01*
X272063Y16177D01*
Y15178D01*
X273063Y14178D01*
X275062D01*
X276062Y13179D01*
Y12179D01*
X275062Y11179D01*
X273063D01*
X272063Y12179D01*
X278061Y17177D02*
X280061D01*
X279061D01*
Y11179D01*
X278061D01*
X280061D01*
X287058Y16177D02*
X286059Y17177D01*
X284059D01*
X283060Y16177D01*
Y12179D01*
X284059Y11179D01*
X286059D01*
X287058Y12179D01*
Y14178D01*
X285059D01*
X292057Y11179D02*
Y17177D01*
X289058Y14178D01*
X293057D01*
X205034Y13294D02*
X201098D01*
Y15262D01*
X201754Y15917D01*
X203066D01*
X203722Y15262D01*
Y13294D01*
X201098Y17229D02*
Y19853D01*
X201754D01*
X204378Y17229D01*
X205034D01*
Y21165D02*
Y22477D01*
Y21821D01*
X201098D01*
X201754Y21165D01*
X205690Y24445D02*
Y27069D01*
X205034Y28381D02*
Y29693D01*
Y29037D01*
X201098D01*
X201754Y28381D01*
X209340Y17012D02*
Y11014D01*
Y14013D01*
X213339D01*
Y17012D01*
Y11014D01*
X215338Y17012D02*
Y13013D01*
X217338Y11014D01*
X219337Y13013D01*
Y17012D01*
X225335Y16012D02*
X224336Y17012D01*
X222336D01*
X221337Y16012D01*
Y15012D01*
X222336Y14013D01*
X224336D01*
X225335Y13013D01*
Y12014D01*
X224336Y11014D01*
X222336D01*
X221337Y12014D01*
X227334Y17012D02*
X229334D01*
X228334D01*
Y11014D01*
X227334D01*
X229334D01*
X236332Y16012D02*
X235332Y17012D01*
X233333D01*
X232333Y16012D01*
Y12014D01*
X233333Y11014D01*
X235332D01*
X236332Y12014D01*
Y14013D01*
X234332D01*
X238331Y16012D02*
X239331Y17012D01*
X241330D01*
X242330Y16012D01*
Y15012D01*
X241330Y14013D01*
X240330D01*
X241330D01*
X242330Y13013D01*
Y12014D01*
X241330Y11014D01*
X239331D01*
X238331Y12014D01*
X97170Y230504D02*
X94547D01*
Y228536D01*
X95859Y229192D01*
X96514D01*
X97170Y228536D01*
Y227224D01*
X96514Y226568D01*
X95203D01*
X94547Y227224D01*
X98482Y230504D02*
Y227880D01*
X99794Y226568D01*
X101106Y227880D01*
Y230504D01*
X295104Y232078D02*
X292480D01*
Y230111D01*
X293792Y230766D01*
X294447D01*
X295104Y230111D01*
Y228799D01*
X294447Y228143D01*
X293136D01*
X292480Y228799D01*
X296415Y232078D02*
Y229454D01*
X297727Y228143D01*
X299039Y229454D01*
Y232078D01*
X116626Y358554D02*
Y357242D01*
Y357898D01*
X120562D01*
X119906Y358554D01*
Y355274D02*
X120562Y354618D01*
Y353306D01*
X119906Y352650D01*
X117282D01*
X116626Y353306D01*
Y354618D01*
X117282Y355274D01*
X119906D01*
X120562Y351338D02*
X117938D01*
X116626Y350026D01*
X117938Y348714D01*
X120562D01*
X95006Y259572D02*
X94350Y260228D01*
X93038D01*
X92382Y259572D01*
Y258916D01*
X93038Y258260D01*
X94350D01*
X95006Y257604D01*
Y256948D01*
X94350Y256292D01*
X93038D01*
X92382Y256948D01*
X96318Y260228D02*
X97630D01*
X96974D01*
Y256292D01*
X96318D01*
X97630D01*
X102222Y259572D02*
X101566Y260228D01*
X100254D01*
X99598Y259572D01*
Y256948D01*
X100254Y256292D01*
X101566D01*
X102222Y256948D01*
Y258260D01*
X100910D01*
X103533Y256292D02*
X104845D01*
X104189D01*
Y260228D01*
X103533Y259572D01*
X95695Y284277D02*
X95039Y284933D01*
X93727D01*
X93071Y284277D01*
Y281653D01*
X93727Y280997D01*
X95039D01*
X95695Y281653D01*
Y282965D01*
X94383D01*
X97007Y280997D02*
Y284933D01*
X99630Y280997D01*
Y284933D01*
X100942D02*
Y280997D01*
X102910D01*
X103566Y281653D01*
Y284277D01*
X102910Y284933D01*
X100942D01*
X298221Y35557D02*
Y32933D01*
X300189D01*
X299533Y34245D01*
Y34901D01*
X300189Y35557D01*
X301501D01*
X302156Y34901D01*
Y33589D01*
X301501Y32933D01*
X298221Y36869D02*
X300845D01*
X302156Y38181D01*
X300845Y39493D01*
X298221D01*
X288970Y185820D02*
X290282D01*
X289626D01*
Y189755D01*
X288970Y189100D01*
X292249D02*
X292905Y189755D01*
X294217D01*
X294873Y189100D01*
Y186476D01*
X294217Y185820D01*
X292905D01*
X292249Y186476D01*
Y189100D01*
X296185Y189755D02*
Y187132D01*
X297497Y185820D01*
X298809Y187132D01*
Y189755D01*
X288543Y117151D02*
X287887Y117807D01*
X286575D01*
X285919Y117151D01*
Y116495D01*
X286575Y115839D01*
X287887D01*
X288543Y115183D01*
Y114527D01*
X287887Y113871D01*
X286575D01*
X285919Y114527D01*
X289855Y117807D02*
X291167D01*
X290511D01*
Y113871D01*
X289855D01*
X291167D01*
X295759Y117151D02*
X295103Y117807D01*
X293791D01*
X293135Y117151D01*
Y114527D01*
X293791Y113871D01*
X295103D01*
X295759Y114527D01*
Y115839D01*
X294447D01*
X299038Y113871D02*
Y117807D01*
X297070Y115839D01*
X299694D01*
X291266Y147170D02*
X290610Y147826D01*
X289298D01*
X288642Y147170D01*
Y144547D01*
X289298Y143891D01*
X290610D01*
X291266Y144547D01*
Y145859D01*
X289954D01*
X292577Y143891D02*
Y147826D01*
X295201Y143891D01*
Y147826D01*
X296513D02*
Y143891D01*
X298481D01*
X299137Y144547D01*
Y147170D01*
X298481Y147826D01*
X296513D01*
X96580Y158161D02*
X93956D01*
Y156193D01*
X95268Y156849D01*
X95924D01*
X96580Y156193D01*
Y154881D01*
X95924Y154225D01*
X94612D01*
X93956Y154881D01*
X97892Y158161D02*
Y155537D01*
X99204Y154225D01*
X100516Y155537D01*
Y158161D01*
X91233Y46054D02*
Y44742D01*
Y45398D01*
X95168D01*
X94512Y46054D01*
Y42774D02*
X95168Y42118D01*
Y40806D01*
X94512Y40150D01*
X91888D01*
X91233Y40806D01*
Y42118D01*
X91888Y42774D01*
X94512D01*
X95168Y38838D02*
X92544D01*
X91233Y37526D01*
X92544Y36214D01*
X95168D01*
X95728Y115970D02*
X95072Y116626D01*
X93760D01*
X93104Y115970D01*
Y115314D01*
X93760Y114658D01*
X95072D01*
X95728Y114002D01*
Y113346D01*
X95072Y112690D01*
X93760D01*
X93104Y113346D01*
X97040Y116626D02*
X98352D01*
X97696D01*
Y112690D01*
X97040D01*
X98352D01*
X102944Y115970D02*
X102288Y116626D01*
X100976D01*
X100320Y115970D01*
Y113346D01*
X100976Y112690D01*
X102288D01*
X102944Y113346D01*
Y114658D01*
X101632D01*
X106879Y112690D02*
X104255D01*
X106879Y115314D01*
Y115970D01*
X106223Y116626D01*
X104911D01*
X104255Y115970D01*
X96088Y185655D02*
X95432Y186311D01*
X94121D01*
X93464Y185655D01*
Y183031D01*
X94121Y182375D01*
X95432D01*
X96088Y183031D01*
Y184343D01*
X94776D01*
X97400Y182375D02*
Y186311D01*
X100024Y182375D01*
Y186311D01*
X101336D02*
Y182375D01*
X103304D01*
X103960Y183031D01*
Y185655D01*
X103304Y186311D01*
X101336D01*
X293692Y343400D02*
Y344711D01*
Y344056D01*
X289756D01*
X290412Y343400D01*
Y346679D02*
X289756Y347335D01*
Y348647D01*
X290412Y349303D01*
X293036D01*
X293692Y348647D01*
Y347335D01*
X293036Y346679D01*
X290412D01*
X289756Y350615D02*
X292380D01*
X293692Y351927D01*
X292380Y353239D01*
X289756D01*
X290618Y257906D02*
X289962Y258562D01*
X288650D01*
X287994Y257906D01*
Y257250D01*
X288650Y256594D01*
X289962D01*
X290618Y255939D01*
Y255283D01*
X289962Y254627D01*
X288650D01*
X287994Y255283D01*
X291930Y258562D02*
X293242D01*
X292586D01*
Y254627D01*
X291930D01*
X293242D01*
X297834Y257906D02*
X297178Y258562D01*
X295866D01*
X295210Y257906D01*
Y255283D01*
X295866Y254627D01*
X297178D01*
X297834Y255283D01*
Y256594D01*
X296522D01*
X299146Y257906D02*
X299802Y258562D01*
X301114D01*
X301769Y257906D01*
Y257250D01*
X301114Y256594D01*
X300458D01*
X301114D01*
X301769Y255939D01*
Y255283D01*
X301114Y254627D01*
X299802D01*
X299146Y255283D01*
X292053Y285064D02*
X291397Y285720D01*
X290085D01*
X289429Y285064D01*
Y282440D01*
X290085Y281784D01*
X291397D01*
X292053Y282440D01*
Y283752D01*
X290741D01*
X293365Y281784D02*
Y285720D01*
X295989Y281784D01*
Y285720D01*
X297301D02*
Y281784D01*
X299269D01*
X299924Y282440D01*
Y285064D01*
X299269Y285720D01*
X297301D01*
X283079Y19221D02*
X280455D01*
X283079Y21845D01*
Y22501D01*
X282423Y23156D01*
X281112D01*
X280455Y22501D01*
X284391D02*
X285047Y23156D01*
X286359D01*
X287015Y22501D01*
Y21845D01*
X286359Y21189D01*
X287015Y20533D01*
Y19877D01*
X286359Y19221D01*
X285047D01*
X284391Y19877D01*
Y20533D01*
X285047Y21189D01*
X284391Y21845D01*
Y22501D01*
X285047Y21189D02*
X286359D01*
X288327Y23156D02*
Y20533D01*
X289639Y19221D01*
X290951Y20533D01*
Y23156D01*
X105864Y16661D02*
X101928D01*
Y18629D01*
X102584Y19285D01*
X103896D01*
X104552Y18629D01*
Y16661D01*
X101928Y23221D02*
X102584Y21909D01*
X103896Y20597D01*
X105208D01*
X105864Y21253D01*
Y22565D01*
X105208Y23221D01*
X104552D01*
X103896Y22565D01*
Y20597D01*
X106520Y24533D02*
Y27156D01*
X105864Y28468D02*
Y29780D01*
Y29124D01*
X101928D01*
X102584Y28468D01*
X110383Y17263D02*
Y11265D01*
Y14264D01*
X114381D01*
Y17263D01*
Y11265D01*
X116381Y17263D02*
Y13264D01*
X118380Y11265D01*
X120379Y13264D01*
Y17263D01*
X126377Y16263D02*
X125378Y17263D01*
X123378D01*
X122379Y16263D01*
Y15264D01*
X123378Y14264D01*
X125378D01*
X126377Y13264D01*
Y12265D01*
X125378Y11265D01*
X123378D01*
X122379Y12265D01*
X128377Y17263D02*
X130376D01*
X129376D01*
Y11265D01*
X128377D01*
X130376D01*
X137374Y16263D02*
X136374Y17263D01*
X134375D01*
X133375Y16263D01*
Y12265D01*
X134375Y11265D01*
X136374D01*
X137374Y12265D01*
Y14264D01*
X135374D01*
X139373Y11265D02*
X141373D01*
X140373D01*
Y17263D01*
X139373Y16263D01*
X154875Y17442D02*
X150939D01*
Y19409D01*
X151595Y20065D01*
X152907D01*
X153563Y19409D01*
Y17442D01*
X150939Y24001D02*
Y21377D01*
X152907D01*
X152251Y22689D01*
Y23345D01*
X152907Y24001D01*
X154219D01*
X154875Y23345D01*
Y22033D01*
X154219Y21377D01*
X155531Y25313D02*
Y27937D01*
X154875Y29249D02*
Y30561D01*
Y29905D01*
X150939D01*
X151595Y29249D01*
X158497Y16869D02*
Y10871D01*
Y13870D01*
X162496D01*
Y16869D01*
Y10871D01*
X164495Y16869D02*
Y12871D01*
X166495Y10871D01*
X168494Y12871D01*
Y16869D01*
X174492Y15870D02*
X173492Y16869D01*
X171493D01*
X170493Y15870D01*
Y14870D01*
X171493Y13870D01*
X173492D01*
X174492Y12871D01*
Y11871D01*
X173492Y10871D01*
X171493D01*
X170493Y11871D01*
X176491Y16869D02*
X178491D01*
X177491D01*
Y10871D01*
X176491D01*
X178491D01*
X185488Y15870D02*
X184489Y16869D01*
X182489D01*
X181490Y15870D01*
Y11871D01*
X182489Y10871D01*
X184489D01*
X185488Y11871D01*
Y13870D01*
X183489D01*
X191486Y10871D02*
X187488D01*
X191486Y14870D01*
Y15870D01*
X190487Y16869D01*
X188487D01*
X187488Y15870D01*
X12272Y294587D02*
X16271D01*
X17271Y295586D01*
Y297586D01*
X16271Y298585D01*
X12272D01*
X11273Y297586D01*
Y295586D01*
X13272Y296586D02*
X11273Y294587D01*
Y295586D02*
X12272Y294587D01*
X11273Y292587D02*
Y290588D01*
Y291588D01*
X17271D01*
X16271Y292587D01*
X300507Y71819D02*
X296571D01*
Y73786D01*
X297227Y74442D01*
X298539D01*
X299195Y73786D01*
Y71819D01*
Y73131D02*
X300507Y74442D01*
X297227Y75754D02*
X296571Y76410D01*
Y77722D01*
X297227Y78378D01*
X297883D01*
X298539Y77722D01*
X299195Y78378D01*
X299851D01*
X300507Y77722D01*
Y76410D01*
X299851Y75754D01*
X299195D01*
X298539Y76410D01*
X297883Y75754D01*
X297227D01*
X298539Y76410D02*
Y77722D01*
X338536Y36439D02*
X343535D01*
X344534Y37438D01*
Y39438D01*
X343535Y40437D01*
X338536D01*
X344534Y45436D02*
X338536D01*
X341535Y42437D01*
Y46435D01*
X313629Y15337D02*
X307631D01*
Y18336D01*
X308631Y19336D01*
X310630D01*
X311630Y18336D01*
Y15337D01*
Y17336D02*
X313629Y19336D01*
Y21335D02*
Y23335D01*
Y22335D01*
X307631D01*
X308631Y21335D01*
X307631Y30332D02*
X308631Y28333D01*
X310630Y26333D01*
X312629D01*
X313629Y27333D01*
Y29333D01*
X312629Y30332D01*
X311630D01*
X310630Y29333D01*
Y26333D01*
X309397Y363073D02*
X303399D01*
Y366072D01*
X304398Y367072D01*
X306398D01*
X307397Y366072D01*
Y363073D01*
Y365073D02*
X309397Y367072D01*
Y369071D02*
Y371071D01*
Y370071D01*
X303399D01*
X304398Y369071D01*
X303399Y378068D02*
Y374070D01*
X306398D01*
X305398Y376069D01*
Y377069D01*
X306398Y378068D01*
X308397D01*
X309397Y377069D01*
Y375069D01*
X308397Y374070D01*
X321655Y38288D02*
Y42224D01*
X323623D01*
X324279Y41568D01*
Y40256D01*
X323623Y39600D01*
X321655D01*
X322967D02*
X324279Y38288D01*
X325591D02*
X326903D01*
X326247D01*
Y42224D01*
X325591Y41568D01*
X330838Y38288D02*
Y42224D01*
X328871Y40256D01*
X331494D01*
X350051Y352701D02*
Y356636D01*
X352019D01*
X352675Y355980D01*
Y354668D01*
X352019Y354012D01*
X350051D01*
X351363D02*
X352675Y352701D01*
X353987D02*
X355298D01*
X354643D01*
Y356636D01*
X353987Y355980D01*
X357266D02*
X357922Y356636D01*
X359234D01*
X359890Y355980D01*
Y355324D01*
X359234Y354668D01*
X358578D01*
X359234D01*
X359890Y354012D01*
Y353357D01*
X359234Y352701D01*
X357922D01*
X357266Y353357D01*
X347622Y323295D02*
X343686D01*
Y325263D01*
X344342Y325919D01*
X345654D01*
X346310Y325263D01*
Y323295D01*
Y324607D02*
X347622Y325919D01*
X343686Y327231D02*
Y329855D01*
X344342D01*
X346966Y327231D01*
X347622D01*
X83372Y29917D02*
X89370D01*
Y26917D01*
X88370Y25918D01*
X86371D01*
X85371Y26917D01*
Y29917D01*
Y27917D02*
X83372Y25918D01*
X89370Y19920D02*
X88370Y21919D01*
X86371Y23919D01*
X84372D01*
X83372Y22919D01*
Y20920D01*
X84372Y19920D01*
X85371D01*
X86371Y20920D01*
Y23919D01*
X40453Y47374D02*
X44389D01*
Y45406D01*
X43733Y44750D01*
X42421D01*
X41765Y45406D01*
Y47374D01*
Y46062D02*
X40453Y44750D01*
X44389Y40815D02*
Y43439D01*
X42421D01*
X43077Y42127D01*
Y41471D01*
X42421Y40815D01*
X41109D01*
X40453Y41471D01*
Y42783D01*
X41109Y43439D01*
X27134Y60532D02*
Y64468D01*
X29101D01*
X29757Y63812D01*
Y62500D01*
X29101Y61844D01*
X27134D01*
X28446D02*
X29757Y60532D01*
X33037D02*
Y64468D01*
X31069Y62500D01*
X33693D01*
X84107Y376258D02*
X90105D01*
Y373259D01*
X89106Y372259D01*
X87106D01*
X86107Y373259D01*
Y376258D01*
Y374259D02*
X84107Y372259D01*
X89106Y370260D02*
X90105Y369261D01*
Y367261D01*
X89106Y366262D01*
X88106D01*
X87106Y367261D01*
Y368261D01*
Y367261D01*
X86107Y366262D01*
X85107D01*
X84107Y367261D01*
Y369261D01*
X85107Y370260D01*
X69752Y348327D02*
Y352263D01*
X71720D01*
X72376Y351607D01*
Y350295D01*
X71720Y349639D01*
X69752D01*
X71064D02*
X72376Y348327D01*
X76311D02*
X73687D01*
X76311Y350951D01*
Y351607D01*
X75655Y352263D01*
X74343D01*
X73687Y351607D01*
X95506Y356595D02*
Y360531D01*
X97474D01*
X98130Y359875D01*
Y358563D01*
X97474Y357907D01*
X95506D01*
X96818D02*
X98130Y356595D01*
X99442D02*
X100754D01*
X100098D01*
Y360531D01*
X99442Y359875D01*
X298426Y46228D02*
X302361D01*
Y48196D01*
X301706Y48852D01*
X299082D01*
X298426Y48196D01*
Y46228D01*
X301706Y50164D02*
X302361Y50820D01*
Y52132D01*
X301706Y52788D01*
X299082D01*
X298426Y52132D01*
Y50820D01*
X299082Y50164D01*
X299738D01*
X300394Y50820D01*
Y52788D01*
X378642Y342586D02*
X382578D01*
Y344554D01*
X381922Y345210D01*
X379298D01*
X378642Y344554D01*
Y342586D01*
X379298Y346522D02*
X378642Y347178D01*
Y348490D01*
X379298Y349146D01*
X379954D01*
X380610Y348490D01*
X381266Y349146D01*
X381922D01*
X382578Y348490D01*
Y347178D01*
X381922Y346522D01*
X381266D01*
X380610Y347178D01*
X379954Y346522D01*
X379298D01*
X380610Y347178D02*
Y348490D01*
X12991Y47473D02*
X9056D01*
Y45505D01*
X9712Y44849D01*
X12336D01*
X12991Y45505D01*
Y47473D01*
Y43537D02*
Y40913D01*
X12336D01*
X9712Y43537D01*
X9056D01*
X105382Y359448D02*
Y355512D01*
X107350D01*
X108005Y356168D01*
Y358792D01*
X107350Y359448D01*
X105382D01*
X111941D02*
X110629Y358792D01*
X109317Y357480D01*
Y356168D01*
X109973Y355512D01*
X111285D01*
X111941Y356168D01*
Y356824D01*
X111285Y357480D01*
X109317D01*
X123003Y337804D02*
Y332805D01*
X124003Y331806D01*
X126002D01*
X127002Y332805D01*
Y337804D01*
X133000D02*
X129001D01*
Y334805D01*
X131001Y335804D01*
X132000D01*
X133000Y334805D01*
Y332805D01*
X132000Y331806D01*
X130001D01*
X129001Y332805D01*
X292966Y354942D02*
X297964D01*
X298964Y355942D01*
Y357942D01*
X297964Y358941D01*
X292966D01*
X293965Y360941D02*
X292966Y361940D01*
Y363940D01*
X293965Y364939D01*
X294965D01*
X295965Y363940D01*
Y362940D01*
Y363940D01*
X296964Y364939D01*
X297964D01*
X298964Y363940D01*
Y361940D01*
X297964Y360941D01*
X105187Y64467D02*
X100189D01*
X99189Y63467D01*
Y61468D01*
X100189Y60468D01*
X105187D01*
X99189Y54470D02*
Y58469D01*
X103188Y54470D01*
X104188D01*
X105187Y55470D01*
Y57469D01*
X104188Y58469D01*
X21306Y360495D02*
X16308D01*
X15308Y359495D01*
Y357496D01*
X16308Y356496D01*
X21306D01*
X15308Y354497D02*
Y352497D01*
Y353497D01*
X21306D01*
X20306Y354497D01*
X380346Y104217D02*
X376347D01*
X375347Y103217D01*
Y101218D01*
X376347Y100218D01*
X380346D01*
X381346Y101218D01*
Y103217D01*
X379346Y102217D02*
X381346Y104217D01*
Y103217D02*
X380346Y104217D01*
X381346Y109215D02*
X375347D01*
X378346Y106216D01*
Y110215D01*
X374051Y289343D02*
X378050D01*
X379049Y290343D01*
Y292342D01*
X378050Y293342D01*
X374051D01*
X373051Y292342D01*
Y290343D01*
X375051Y291342D02*
X373051Y289343D01*
Y290343D02*
X374051Y289343D01*
X378050Y287344D02*
X379049Y286344D01*
Y284345D01*
X378050Y283345D01*
X377050D01*
X376050Y284345D01*
Y285344D01*
Y284345D01*
X375051Y283345D01*
X374051D01*
X373051Y284345D01*
Y286344D01*
X374051Y287344D01*
X13060Y101492D02*
X17058D01*
X18058Y102491D01*
Y104491D01*
X17058Y105491D01*
X13060D01*
X12060Y104491D01*
Y102491D01*
X14059Y103491D02*
X12060Y101492D01*
Y102491D02*
X13060Y101492D01*
X12060Y95494D02*
Y99492D01*
X16059Y95494D01*
X17058D01*
X18058Y96493D01*
Y98493D01*
X17058Y99492D01*
X141603Y337137D02*
X140603Y336137D01*
Y334138D01*
X141603Y333138D01*
X145602D01*
X146601Y334138D01*
Y336137D01*
X145602Y337137D01*
X146601Y339136D02*
Y341136D01*
Y340136D01*
X140603D01*
X141603Y339136D01*
M02*
