G04*
G04 #@! TF.GenerationSoftware,Altium Limited,Altium Designer,21.5.1 (32)*
G04*
G04 Layer_Color=16711935*
%FSLAX25Y25*%
%MOIN*%
G70*
G04*
G04 #@! TF.SameCoordinates,40DED969-F63B-4BA1-A5F3-3E20095EF234*
G04*
G04*
G04 #@! TF.FilePolarity,Positive*
G04*
G01*
G75*
%ADD10C,0.00787*%
%ADD11C,0.00500*%
%ADD13C,0.00300*%
%ADD14C,0.01000*%
%ADD39C,0.00000*%
%ADD40C,0.00100*%
D10*
X14488Y304744D02*
X92913D01*
Y324508D01*
X14488Y304744D02*
Y324508D01*
X92913D01*
X14646Y69193D02*
X93071D01*
Y88957D01*
X14646Y69193D02*
Y88957D01*
X93071D01*
X301004Y318701D02*
X379429D01*
X301004Y298937D02*
Y318701D01*
X379429Y298937D02*
Y318701D01*
X301004Y298937D02*
X379429D01*
X299902Y74410D02*
X378327D01*
Y94173D01*
X299902Y74410D02*
Y94173D01*
X378327D01*
D11*
X115059Y36299D02*
X118602D01*
X115059Y42835D02*
X118602D01*
X115059Y36299D02*
Y42835D01*
X118602Y36299D02*
Y42835D01*
D13*
X110327Y350232D02*
X106994Y346900D01*
Y350232D02*
X110327Y346900D01*
X108661Y350232D02*
Y346900D01*
X106994Y348566D02*
X110327D01*
X27692Y43020D02*
X24360Y46352D01*
X27692D02*
X24360Y43020D01*
X27692Y44686D02*
X24360D01*
X26026Y46352D02*
Y43020D01*
X363154Y347532D02*
X366486Y344199D01*
X363154D02*
X366486Y347532D01*
X363154Y345865D02*
X366486D01*
X364820Y344199D02*
Y347532D01*
X317653Y47154D02*
X314321Y50486D01*
X317653D02*
X314321Y47154D01*
X317653Y48820D02*
X314321D01*
X315987Y50486D02*
Y47154D01*
X26726Y348915D02*
X30059Y345582D01*
X26726D02*
X30059Y348915D01*
X26726Y347248D02*
X30059D01*
X28392Y345582D02*
Y348915D01*
X85085Y44885D02*
X81752Y48217D01*
X85085D02*
X81752Y44885D01*
X85085Y46551D02*
X81752D01*
X83419Y48217D02*
Y44885D01*
X308026Y349013D02*
X311358Y345681D01*
X308026D02*
X311358Y349013D01*
X308026Y347347D02*
X311358D01*
X309692Y345681D02*
Y349013D01*
X372093Y50200D02*
X368760Y53532D01*
X372093D02*
X368760Y50200D01*
X372093Y51866D02*
X368760D01*
X370426Y53532D02*
Y50200D01*
D14*
X121882Y328205D02*
X271882D01*
Y31205D02*
Y328205D01*
X121882Y31205D02*
Y328205D01*
Y31205D02*
X271882D01*
D39*
X40040Y350049D02*
G03*
X42440Y350049I1200J0D01*
G01*
X71771Y43750D02*
G03*
X69371Y43750I-1200J0D01*
G01*
X321339Y350148D02*
G03*
X323739Y350148I1200J0D01*
G01*
X358779Y49065D02*
G03*
X356379Y49065I-1200J0D01*
G01*
D40*
X111794Y50316D02*
X113994D01*
X111794Y49116D02*
Y50316D01*
Y49116D02*
X113994D01*
Y50316D01*
X111794Y52216D02*
X113994D01*
Y53416D01*
X111794D02*
X113994D01*
X111794Y52216D02*
Y53416D01*
X113994Y49116D02*
Y53416D01*
X111794D02*
X113994D01*
X111794Y49116D02*
Y53416D01*
Y49116D02*
X113994D01*
X99948Y331781D02*
Y345581D01*
X70948Y331781D02*
X99948D01*
X70948D02*
Y345581D01*
X99948D01*
X13256Y50088D02*
X42256D01*
Y63888D01*
X13256D02*
X42256D01*
X13256Y50088D02*
Y63888D01*
X380543Y323907D02*
Y337707D01*
X351543Y323907D02*
X380543D01*
X351543D02*
Y337707D01*
X380543D01*
X299492Y55305D02*
X328492D01*
Y69105D01*
X299492D02*
X328492D01*
X299492Y55305D02*
Y69105D01*
X150360Y349902D02*
X243360D01*
X150360Y324902D02*
X243360D01*
Y349902D01*
X150360Y324902D02*
Y349902D01*
X105511Y349982D02*
X111811D01*
Y339782D02*
Y349982D01*
X105511Y339782D02*
X111811D01*
X105511D02*
Y349982D01*
Y348407D02*
X107086Y349982D01*
X110236D02*
X111811Y348407D01*
X110411Y337982D02*
Y339782D01*
X106911Y337982D02*
X110411D01*
X106911D02*
Y339782D01*
X110411D01*
X106911Y349982D02*
Y351782D01*
X110411D01*
Y349982D02*
Y351782D01*
X106911Y349982D02*
X110411D01*
X27442Y41535D02*
Y47835D01*
X17243Y41535D02*
X27442D01*
X17243D02*
Y47835D01*
X27442D01*
X25868D02*
X27442Y46260D01*
X25868Y41535D02*
X27442Y43110D01*
X15442Y42935D02*
X17243D01*
X15442D02*
Y46435D01*
X17243D01*
Y42935D02*
Y46435D01*
X27442D02*
X29243D01*
Y42935D02*
Y46435D01*
X27442Y42935D02*
X29243D01*
X27442D02*
Y46435D01*
X363404Y342716D02*
Y349016D01*
X373604D01*
Y342716D02*
Y349016D01*
X363404Y342716D02*
X373604D01*
X363404Y344291D02*
X364979Y342716D01*
X363404Y347441D02*
X364979Y349016D01*
X373604Y347616D02*
X375404D01*
Y344116D02*
Y347616D01*
X373604Y344116D02*
X375404D01*
X373604D02*
Y347616D01*
X361604Y344116D02*
X363404D01*
X361604D02*
Y347616D01*
X363404D01*
Y344116D02*
Y347616D01*
X317403Y45669D02*
Y51969D01*
X307203Y45669D02*
X317403D01*
X307203D02*
Y51969D01*
X317403D01*
X315828D02*
X317403Y50394D01*
X315828Y45669D02*
X317403Y47244D01*
X305403Y47069D02*
X307203D01*
X305403D02*
Y50569D01*
X307203D01*
Y47069D02*
Y50569D01*
X317403D02*
X319203D01*
Y47069D02*
Y50569D01*
X317403Y47069D02*
X319203D01*
X317403D02*
Y50569D01*
X22543Y366100D02*
X80542D01*
X22543Y376100D02*
X80542D01*
X22543Y366100D02*
Y376100D01*
X80542Y366100D02*
Y376100D01*
X22594Y20000D02*
X80594D01*
X22594Y30000D02*
X80594D01*
X22594Y20000D02*
Y30000D01*
X80594Y20000D02*
Y30000D01*
X313158Y376100D02*
X371158D01*
X313158Y366100D02*
X371158D01*
Y376100D01*
X313158Y366100D02*
Y376100D01*
X317095Y27621D02*
X375095D01*
X317095Y17621D02*
X375095D01*
Y27621D01*
X317095Y17621D02*
Y27621D01*
X26476Y345039D02*
Y347047D01*
X20551D02*
X26476D01*
X20551Y345039D02*
Y347047D01*
Y345039D02*
X26476D01*
Y340039D02*
Y342047D01*
X20551D02*
X26476D01*
X20551Y340039D02*
Y342047D01*
Y340039D02*
X26476D01*
Y335039D02*
Y337047D01*
X20551D02*
X26476D01*
X20551Y335039D02*
Y337047D01*
Y335039D02*
X26476D01*
X56004D02*
Y337047D01*
Y335039D02*
X61929D01*
Y337047D01*
X56004D02*
X61929D01*
X56004Y340039D02*
Y342047D01*
Y340039D02*
X61929D01*
Y342047D01*
X56004D02*
X61929D01*
X56004Y345039D02*
Y347047D01*
Y345039D02*
X61929D01*
Y347047D01*
X56004D02*
X61929D01*
X26476Y332037D02*
X56004D01*
Y350049D01*
X26476D02*
X56004D01*
X26476Y332037D02*
Y350049D01*
X85335Y46752D02*
Y48760D01*
Y46752D02*
X91260D01*
Y48760D01*
X85335D02*
X91260D01*
X85335Y51752D02*
Y53760D01*
Y51752D02*
X91260D01*
Y53760D01*
X85335D02*
X91260D01*
X85335Y56752D02*
Y58760D01*
Y56752D02*
X91260D01*
Y58760D01*
X85335D02*
X91260D01*
X55807Y56752D02*
Y58760D01*
X49882D02*
X55807D01*
X49882Y56752D02*
Y58760D01*
Y56752D02*
X55807D01*
Y51752D02*
Y53760D01*
X49882D02*
X55807D01*
X49882Y51752D02*
Y53760D01*
Y51752D02*
X55807D01*
Y46752D02*
Y48760D01*
X49882D02*
X55807D01*
X49882Y46752D02*
Y48760D01*
Y46752D02*
X55807D01*
Y61762D02*
X85335D01*
X55807Y43750D02*
Y61762D01*
Y43750D02*
X85335D01*
Y61762D01*
X307776Y345138D02*
Y347146D01*
X301850D02*
X307776D01*
X301850Y345138D02*
Y347146D01*
Y345138D02*
X307776D01*
Y340138D02*
Y342146D01*
X301850D02*
X307776D01*
X301850Y340138D02*
Y342146D01*
Y340138D02*
X307776D01*
Y335138D02*
Y337146D01*
X301850D02*
X307776D01*
X301850Y335138D02*
Y337146D01*
Y335138D02*
X307776D01*
X337303D02*
Y337146D01*
Y335138D02*
X343228D01*
Y337146D01*
X337303D02*
X343228D01*
X337303Y340138D02*
Y342146D01*
Y340138D02*
X343228D01*
Y342146D01*
X337303D02*
X343228D01*
X337303Y345138D02*
Y347146D01*
Y345138D02*
X343228D01*
Y347146D01*
X337303D02*
X343228D01*
X307776Y332136D02*
X337303D01*
Y350148D01*
X307776D02*
X337303D01*
X307776Y332136D02*
Y350148D01*
X372342Y52067D02*
Y54075D01*
Y52067D02*
X378268D01*
Y54075D01*
X372342D02*
X378268D01*
X372342Y57067D02*
Y59075D01*
Y57067D02*
X378268D01*
Y59075D01*
X372342D02*
X378268D01*
X372342Y62067D02*
Y64075D01*
Y62067D02*
X378268D01*
Y64075D01*
X372342D02*
X378268D01*
X342815Y62067D02*
Y64075D01*
X336890D02*
X342815D01*
X336890Y62067D02*
Y64075D01*
Y62067D02*
X342815D01*
Y57067D02*
Y59075D01*
X336890D02*
X342815D01*
X336890Y57067D02*
Y59075D01*
Y57067D02*
X342815D01*
Y52067D02*
Y54075D01*
X336890D02*
X342815D01*
X336890Y52067D02*
Y54075D01*
Y52067D02*
X342815D01*
Y67077D02*
X372342D01*
X342815Y49065D02*
Y67077D01*
Y49065D02*
X372342D01*
Y67077D01*
M02*
