G04*
G04 #@! TF.GenerationSoftware,Altium Limited,Altium Designer,21.5.1 (32)*
G04*
G04 Layer_Physical_Order=4*
G04 Layer_Color=16711680*
%FSLAX25Y25*%
%MOIN*%
G70*
G04*
G04 #@! TF.SameCoordinates,40DED969-F63B-4BA1-A5F3-3E20095EF234*
G04*
G04*
G04 #@! TF.FilePolarity,Positive*
G04*
G01*
G75*
%ADD14C,0.01000*%
%ADD28R,0.06200X0.06200*%
%ADD29C,0.06200*%
%ADD30R,0.06400X0.06400*%
%ADD31C,0.06400*%
%ADD33C,0.02500*%
%ADD35C,0.08000*%
%ADD36C,0.09000*%
%ADD37C,0.10512*%
%ADD38R,0.10512X0.10512*%
D14*
X-0Y0D02*
X393701D01*
X-0D02*
Y393701D01*
X393701Y0D02*
Y393701D01*
X-0D02*
X393701D01*
D28*
X236860Y337402D02*
D03*
D29*
X156860D02*
D03*
D30*
X71543Y371100D02*
D03*
X71595Y25000D02*
D03*
X322158Y371100D02*
D03*
X326095Y22621D02*
D03*
D31*
X31543Y371100D02*
D03*
X31594Y25000D02*
D03*
X362158Y371100D02*
D03*
X366095Y22621D02*
D03*
D33*
X114460Y116052D02*
G03*
X108858Y121653I-5602J0D01*
G01*
X58205Y153381D02*
G03*
X89961Y121653I31756J28D01*
G01*
X58205Y278578D02*
G03*
X55276Y285649I-10000J0D01*
G01*
X265950Y34941D02*
G03*
X275787Y44779I0J9838D01*
G01*
X246258Y34941D02*
G03*
X242618Y33366I0J-4995D01*
G01*
X351256Y63834D02*
G03*
X348031Y56050I7784J-7784D01*
G01*
X345177Y11122D02*
G03*
X348031Y13976I0J2854D01*
G01*
X265059Y13091D02*
G03*
X267028Y11122I1969J0D01*
G01*
X264665Y13484D02*
G03*
X265059Y13091I394J0D01*
G01*
X275787Y57975D02*
G03*
X274606Y60827I-4033J0D01*
G01*
X255315Y84260D02*
G03*
X258244Y77189I10000J0D01*
G01*
X313145Y322087D02*
G03*
X310216Y315016I7071J-7071D01*
G01*
X296170Y311417D02*
G03*
X289099Y308488I0J-10000D01*
G01*
X258244Y277634D02*
G03*
X255315Y270563I7071J-7071D01*
G01*
X228338Y23228D02*
G03*
X235409Y26157I0J10000D01*
G01*
X366185Y22711D02*
G03*
X369114Y29782I-7071J7071D01*
G01*
X32631Y25249D02*
G03*
X31543Y22621I2628J-2628D01*
G01*
X28614Y322137D02*
G03*
X31543Y329208I-7071J7071D01*
G01*
X159153Y6988D02*
G03*
X162992Y10827I0J3839D01*
G01*
X83858Y16988D02*
G03*
X93858Y6988I10000J0D01*
G01*
X114460Y23910D02*
Y116052D01*
X58205Y153400D02*
X58205Y153381D01*
X58205Y153400D02*
Y278578D01*
X23701Y317224D02*
X28614Y322137D01*
X23701Y317224D02*
X55276Y285649D01*
X89961Y121653D02*
X108858D01*
X246258Y34941D02*
X265950D01*
X351256Y63834D02*
X369114Y81693D01*
X267028Y11122D02*
X345177D01*
X348031Y13976D02*
Y56050D01*
X264665Y13484D02*
Y22933D01*
X275787Y44779D02*
Y57975D01*
X258244Y77189D02*
X274606Y60827D01*
X255315Y90945D02*
X255315Y270563D01*
X255315Y84260D02*
Y90945D01*
X313145Y322087D02*
X362158Y371100D01*
X310216Y311417D02*
Y315016D01*
X296170Y311417D02*
X310216D01*
X258244Y277634D02*
X289099Y308488D01*
X235409Y26157D02*
X242618Y33366D01*
X214075Y23228D02*
X228338D01*
X366095Y22621D02*
X366185Y22711D01*
X369114Y29782D02*
Y81693D01*
X83858Y16988D02*
Y76476D01*
X32631Y25249D02*
X83858Y76476D01*
X31543Y329208D02*
Y371100D01*
X242618Y33366D02*
X242839Y33587D01*
X93858Y6988D02*
X159153D01*
X162992Y10827D02*
Y23130D01*
D35*
X162885Y23516D02*
D03*
X114460Y23910D02*
D03*
X299204Y21154D02*
D03*
X291527Y275189D02*
D03*
X292618Y247933D02*
D03*
X101862Y36606D02*
D03*
X282964Y352650D02*
D03*
X101960Y137689D02*
D03*
X291527Y211607D02*
D03*
X102059Y176173D02*
D03*
X101960Y106095D02*
D03*
X127916Y347564D02*
D03*
X101862Y46449D02*
D03*
X103043Y209835D02*
D03*
X101960Y147630D02*
D03*
X291626Y137197D02*
D03*
X290149Y107571D02*
D03*
X291527Y178929D02*
D03*
X291626Y168988D02*
D03*
X291626Y43299D02*
D03*
Y33358D02*
D03*
X102649Y274402D02*
D03*
X102452Y249894D02*
D03*
X282964Y342709D02*
D03*
X127945Y357571D02*
D03*
X291527Y221646D02*
D03*
X102963Y219970D02*
D03*
X213968Y23614D02*
D03*
X264657Y23516D02*
D03*
X256882Y44705D02*
D03*
X241882D02*
D03*
X231882D02*
D03*
X221882D02*
D03*
X211882D02*
D03*
X201882D02*
D03*
X191882D02*
D03*
X181882D02*
D03*
X171882D02*
D03*
X161882D02*
D03*
X136882D02*
D03*
X151882D02*
D03*
D36*
X236882Y294705D02*
D03*
X136882Y314705D02*
D03*
D37*
X23701Y317224D02*
D03*
X68701D02*
D03*
X38858Y76476D02*
D03*
X83858D02*
D03*
X355217Y311417D02*
D03*
X310216D02*
D03*
X324114Y81693D02*
D03*
X369114D02*
D03*
D38*
X83701Y317224D02*
D03*
X23858Y76476D02*
D03*
X370216Y311417D02*
D03*
X309114Y81693D02*
D03*
M02*
