G04*
G04 #@! TF.GenerationSoftware,Altium Limited,Altium Designer,21.5.1 (32)*
G04*
G04 Layer_Color=8421504*
%FSLAX25Y25*%
%MOIN*%
G70*
G04*
G04 #@! TF.SameCoordinates,40DED969-F63B-4BA1-A5F3-3E20095EF234*
G04*
G04*
G04 #@! TF.FilePolarity,Positive*
G04*
G01*
G75*
%ADD15R,0.02593X0.03197*%
%ADD16R,0.03197X0.02593*%
%ADD17R,0.03661X0.03425*%
%ADD18R,0.02200X0.02600*%
%ADD19R,0.09500X0.09500*%
%ADD20R,0.03500X0.02600*%
%ADD21R,0.02600X0.03500*%
%ADD22R,0.06953X0.02208*%
D15*
X95564Y351378D02*
D03*
X100893D02*
D03*
D16*
X36122Y46463D02*
D03*
Y41135D02*
D03*
X354724Y343793D02*
D03*
Y349121D02*
D03*
X326772Y45564D02*
D03*
Y50893D02*
D03*
D17*
X116831Y42539D02*
D03*
Y36595D02*
D03*
D18*
X112894Y49016D02*
D03*
Y53516D02*
D03*
D19*
X75098Y338681D02*
D03*
X95798D02*
D03*
X17406Y56988D02*
D03*
X38106D02*
D03*
X355693Y330807D02*
D03*
X376393D02*
D03*
X303642Y62205D02*
D03*
X324342D02*
D03*
D20*
X108661Y338482D02*
D03*
Y351282D02*
D03*
D21*
X15943Y44685D02*
D03*
X28743D02*
D03*
X374904Y345866D02*
D03*
X362104D02*
D03*
X305903Y48819D02*
D03*
X318703D02*
D03*
D22*
X21828Y346043D02*
D03*
Y341043D02*
D03*
Y336043D02*
D03*
X60653D02*
D03*
Y341043D02*
D03*
Y346043D02*
D03*
X89983Y47756D02*
D03*
Y52756D02*
D03*
Y57756D02*
D03*
X51158D02*
D03*
Y52756D02*
D03*
Y47756D02*
D03*
X303127Y346142D02*
D03*
Y341142D02*
D03*
Y336142D02*
D03*
X341952D02*
D03*
Y341142D02*
D03*
Y346142D02*
D03*
X376991Y53071D02*
D03*
Y58071D02*
D03*
Y63071D02*
D03*
X338166D02*
D03*
Y58071D02*
D03*
Y53071D02*
D03*
M02*
