G04*
G04 #@! TF.GenerationSoftware,Altium Limited,Altium Designer,21.5.1 (32)*
G04*
G04 Layer_Color=16711935*
%FSLAX25Y25*%
%MOIN*%
G70*
G04*
G04 #@! TF.SameCoordinates,40DED969-F63B-4BA1-A5F3-3E20095EF234*
G04*
G04*
G04 #@! TF.FilePolarity,Positive*
G04*
G01*
G75*
G36*
X45356Y65262D02*
X96960D01*
Y40250D01*
X93094D01*
Y7500D01*
X10095D01*
Y42500D01*
X13893D01*
Y48585D01*
X30792D01*
Y42500D01*
X44182D01*
Y48588D01*
X10156D01*
Y65388D01*
X45356D01*
Y65262D01*
D02*
G37*
G36*
X115494Y46216D02*
X110294D01*
Y56316D01*
X115494D01*
Y46216D01*
D02*
G37*
G36*
X331592Y70577D02*
X383968D01*
Y45565D01*
X331190D01*
Y53805D01*
X296392D01*
Y70605D01*
X331592D01*
Y70577D01*
D02*
G37*
G36*
X320753Y44919D02*
X303853D01*
Y52719D01*
X320753D01*
Y44919D01*
D02*
G37*
G36*
X387595Y5121D02*
X304595D01*
Y40121D01*
X387595D01*
Y5121D01*
D02*
G37*
G36*
X93042Y353600D02*
X10042D01*
Y388600D01*
X93042D01*
Y353600D01*
D02*
G37*
G36*
X103048Y330281D02*
X67848D01*
Y347081D01*
X103048D01*
Y330281D01*
D02*
G37*
G36*
X67629Y328537D02*
X14851D01*
Y353549D01*
X67629D01*
Y328537D01*
D02*
G37*
G36*
X104761Y336432D02*
Y353332D01*
X112561D01*
Y336432D01*
X104761D01*
D02*
G37*
G36*
X137860Y362402D02*
X255860D01*
Y312402D01*
X137860D01*
Y362402D01*
D02*
G37*
G36*
X376954Y341966D02*
X360054D01*
Y349766D01*
X376954D01*
Y341966D01*
D02*
G37*
G36*
X383658Y353600D02*
X348928D01*
Y339207D01*
X383643D01*
Y322407D01*
X348443D01*
Y328636D01*
X296150D01*
Y353648D01*
X300658D01*
Y388600D01*
X383658D01*
Y353600D01*
D02*
G37*
M02*
